{"glyphs":{"0":{"ha":936,"x_min":79,"x_max":857,"o":"m 79 500 q 108 736 79 635 q 194 906 138 838 q 309 990 244 967 q 468 1014 374 1014 q 627 990 563 1014 q 742 906 692 967 q 828 736 799 838 q 857 500 857 635 q 828 264 857 365 q 742 94 799 163 q 627 10 692 33 q 468 -14 563 -14 q 309 10 374 -14 q 194 94 244 33 q 108 264 138 163 q 79 500 79 365 m 701 500 q 686 710 701 622 q 639 851 671 797 q 574 917 613 896 q 468 939 535 939 q 363 917 401 939 q 297 851 324 896 q 250 710 265 797 q 235 500 235 622 q 250 290 235 378 q 297 149 265 203 q 363 83 324 104 q 468 61 401 61 q 574 83 535 61 q 639 149 613 104 q 686 290 671 203 q 701 500 701 378 z "},"1":{"ha":556,"x_min":63,"x_max":522,"o":"m 239 879 l 63 879 l 63 950 q 120 954 88 950 q 184 967 153 958 q 241 987 215 975 q 279 1014 267 999 l 374 1014 l 374 83 l 522 57 l 522 0 l 63 0 l 63 57 l 239 83 l 239 879 z "},"2":{"ha":818,"x_min":71,"x_max":731,"o":"m 621 132 l 654 310 l 731 310 l 731 0 l 71 0 l 71 92 q 108 224 71 164 q 202 338 146 285 q 324 442 258 392 q 447 544 390 492 q 540 653 503 596 q 578 781 578 711 q 526 899 578 858 q 378 940 475 940 q 181 806 210 940 q 249 783 225 806 q 272 721 272 761 q 249 658 272 681 q 182 636 225 636 q 89 751 89 636 q 112 860 89 811 q 176 943 135 908 q 276 997 218 978 q 406 1015 335 1015 q 534 997 476 1015 q 633 942 592 978 q 696 857 674 907 q 718 746 718 807 q 678 596 718 661 q 579 479 639 531 q 451 386 519 428 q 322 305 382 344 q 223 224 263 265 q 183 132 183 182 l 621 132 z "},"3":{"ha":806,"x_min":74,"x_max":725,"o":"m 710 754 q 657 600 710 663 q 513 522 604 538 l 513 517 q 725 271 725 471 q 701 155 725 207 q 632 65 676 103 q 525 7 588 28 q 386 -14 463 -14 q 259 6 317 -14 q 160 59 201 25 q 97 141 119 93 q 74 247 74 189 q 171 365 74 365 q 234 342 211 365 q 257 279 257 319 q 232 219 257 242 q 165 196 207 196 q 369 61 190 61 q 524 110 472 61 q 575 253 575 158 q 508 422 575 360 q 322 485 440 485 l 322 551 q 424 567 378 551 q 502 613 469 583 q 553 683 535 642 q 571 774 571 724 q 523 897 571 854 q 385 940 475 940 q 185 819 207 940 q 252 798 228 819 q 276 736 276 776 q 252 673 276 696 q 188 650 228 650 q 112 683 139 650 q 85 774 85 715 q 108 872 85 828 q 172 949 131 917 q 272 998 214 981 q 400 1015 331 1015 q 526 997 468 1015 q 624 943 583 978 q 687 860 664 908 q 710 754 710 813 z "},"4":{"ha":776,"x_min":25,"x_max":732,"o":"m 446 296 l 40 296 l 25 357 l 471 1014 l 581 1014 l 581 375 l 732 375 l 718 296 l 581 296 l 581 83 l 688 57 l 688 0 l 311 0 l 311 57 l 446 83 l 446 296 m 121 375 l 446 375 l 446 858 l 121 375 z "},"5":{"ha":764,"x_min":63,"x_max":701,"o":"m 613 868 l 231 868 l 185 565 q 272 611 225 596 q 381 626 319 626 q 512 605 453 626 q 613 542 571 583 q 678 444 656 501 q 701 315 701 386 q 676 181 701 242 q 607 76 651 119 q 499 10 563 33 q 358 -14 435 -14 q 237 4 292 -14 q 144 53 182 22 q 84 126 106 85 q 63 213 63 167 q 93 310 63 275 q 165 346 124 346 q 228 321 207 346 q 249 263 249 296 q 224 203 249 229 q 156 176 200 176 q 222 92 167 125 q 358 58 278 58 q 451 76 414 58 q 510 127 488 94 q 542 206 532 160 q 551 308 551 251 q 542 408 551 364 q 511 484 533 453 q 452 533 489 515 q 361 550 415 550 q 253 533 306 550 q 172 481 200 515 l 106 508 l 185 1000 l 585 1000 l 610 1044 l 668 1044 l 613 868 z "},"6":{"ha":838,"x_min":82,"x_max":761,"o":"m 219 488 q 324 568 258 539 q 465 597 389 597 q 586 575 532 597 q 679 513 640 553 q 740 417 718 474 q 761 292 761 360 q 672 67 761 149 q 429 -14 583 -14 q 167 105 251 -14 q 82 472 82 224 q 173 877 82 739 q 439 1015 264 1015 q 556 999 503 1015 q 646 951 608 982 q 704 876 683 919 q 725 782 725 833 q 631 665 725 665 q 566 688 590 665 q 542 750 542 710 q 566 812 542 789 q 633 835 590 835 q 576 913 622 886 q 451 939 529 939 q 268 847 325 939 q 211 553 211 756 q 211 519 211 533 q 214 488 211 506 l 219 488 m 613 292 q 428 518 613 518 q 243 292 243 518 q 428 63 243 63 q 613 292 613 63 z "},"7":{"ha":713,"x_min":56,"x_max":693,"o":"m 364 75 q 347 10 364 35 q 293 -14 331 -14 q 237 9 253 -14 q 221 76 221 32 q 233 188 221 125 q 269 321 246 250 q 324 466 292 392 q 394 612 356 540 q 475 749 432 683 q 564 868 518 815 l 154 868 l 128 706 l 56 706 l 56 1000 l 693 1000 l 693 915 q 563 731 624 833 q 458 517 503 628 q 389 292 414 406 q 364 75 364 178 z "},"8":{"ha":794,"x_min":74,"x_max":721,"o":"m 675 793 q 635 649 675 714 q 524 540 596 583 q 674 421 628 483 q 721 275 721 358 q 696 156 721 210 q 625 65 671 103 q 515 7 579 28 q 374 -14 451 -14 q 152 55 231 -14 q 74 247 74 124 q 119 403 74 336 q 261 525 164 469 q 195 579 222 553 q 151 633 168 606 q 127 692 135 661 q 119 758 119 722 q 196 947 119 879 q 408 1015 272 1015 q 605 956 535 1015 q 675 793 675 897 m 318 489 q 206 386 242 444 q 171 249 171 328 q 375 61 171 61 q 585 232 585 61 q 572 294 585 265 q 528 352 560 322 q 446 415 497 382 q 318 489 394 447 m 464 576 q 558 663 524 606 q 592 788 592 719 q 411 940 592 940 q 238 797 238 940 q 249 736 238 764 q 288 682 261 708 q 358 630 315 656 q 464 576 401 604 z "},"9":{"ha":838,"x_min":76,"x_max":756,"o":"m 618 514 q 514 433 579 463 q 372 404 449 404 q 251 426 306 404 q 158 488 197 449 q 98 584 119 528 q 76 710 76 640 q 165 934 76 853 q 408 1015 254 1015 q 671 897 586 1015 q 756 528 756 778 q 662 123 756 260 q 383 -14 568 -14 q 184 48 258 -14 q 110 214 110 110 q 204 332 110 332 q 269 310 244 332 q 293 247 293 288 q 269 185 293 208 q 201 163 244 163 q 367 63 217 63 q 485 84 436 63 q 566 152 535 106 q 612 272 597 199 q 626 449 626 344 q 626 486 626 474 q 624 514 626 499 l 618 514 m 225 710 q 410 483 225 483 q 594 710 594 483 q 410 939 594 939 q 225 710 225 939 z "}," ":{"ha":353,"x_min":0,"x_max":0,"o":""},"c":{"ha":744,"x_min":64,"x_max":692,"o":"m 419 764 q 612 705 540 764 q 683 547 683 646 q 597 440 683 440 q 535 463 557 440 q 513 522 513 485 q 531 582 513 557 q 582 617 550 607 q 428 693 542 693 q 262 619 314 693 q 210 388 210 546 q 246 186 210 256 q 428 79 301 79 q 550 107 492 79 q 650 186 608 135 l 692 153 q 564 26 636 67 q 394 -14 492 -14 q 226 26 297 -14 q 114 142 154 65 q 77 244 90 186 q 64 367 64 301 q 89 530 64 457 q 160 655 114 603 q 273 735 207 707 q 419 764 339 764 z "},"d":{"ha":861,"x_min":64,"x_max":826,"o":"m 64 368 q 88 540 64 460 q 158 674 111 621 q 253 741 199 718 q 382 764 308 764 q 494 740 444 764 q 585 656 544 717 l 585 1000 l 478 1026 l 478 1083 l 719 1083 l 719 83 l 826 57 l 826 0 l 611 -14 l 600 100 q 503 10 557 35 q 382 -14 449 -14 q 254 7 311 -14 q 160 74 197 28 q 90 203 115 128 q 64 368 64 279 m 585 369 q 536 618 585 540 q 482 673 514 654 q 397 692 450 692 q 257 626 303 692 q 221 526 232 590 q 210 379 210 463 q 258 132 210 213 q 314 77 282 96 q 399 58 346 58 q 482 74 447 58 q 536 122 517 90 q 572 223 560 161 q 585 369 585 285 z "},"e":{"ha":756,"x_min":65,"x_max":694,"o":"m 206 367 q 233 199 206 265 q 312 106 261 133 q 424 79 363 79 q 544 106 490 79 q 640 181 597 133 l 685 147 q 631 85 660 114 q 567 33 603 56 q 486 -1 531 11 q 388 -14 442 -14 q 218 27 292 -14 q 106 147 144 68 q 75 242 85 190 q 65 356 65 294 q 154 658 65 551 q 399 764 243 764 q 618 676 542 764 q 694 432 694 588 q 694 406 694 418 q 690 367 693 394 l 206 367 m 390 689 q 207 435 224 689 l 554 435 l 554 481 q 512 635 554 581 q 390 689 469 689 z "},"f":{"ha":504,"x_min":25,"x_max":597,"o":"m 25 731 l 160 750 l 160 764 q 229 1010 160 924 q 417 1097 299 1097 q 549 1058 500 1097 q 597 957 597 1018 q 578 898 597 918 q 525 878 558 878 q 474 896 493 878 q 454 947 454 914 q 476 1019 454 983 q 413 1044 453 1044 q 357 1031 381 1044 q 321 994 333 1017 q 302 944 308 972 q 295 884 296 915 q 294 819 294 853 l 294 750 l 472 750 l 472 681 l 294 681 l 294 83 l 444 57 l 444 0 l 53 0 l 53 57 l 160 83 l 160 681 l 25 681 l 25 731 z "},"h":{"ha":894,"x_min":35,"x_max":864,"o":"m 622 393 q 617 527 622 482 q 600 597 613 572 q 478 665 565 665 q 403 651 439 665 q 339 614 367 638 q 294 550 308 586 q 276 460 279 514 l 276 83 l 369 57 l 369 0 l 35 0 l 35 57 l 142 83 l 142 1000 l 35 1026 l 35 1083 l 276 1083 l 276 619 q 387 725 318 686 q 535 764 456 764 q 635 744 590 764 q 706 689 679 725 q 745 580 733 650 q 757 390 757 510 l 757 83 l 864 57 l 864 0 l 529 0 l 529 57 l 622 83 l 622 393 z "},"i":{"ha":433,"x_min":50,"x_max":399,"o":"m 50 693 l 50 750 l 292 750 l 292 83 l 399 57 l 399 0 l 50 0 l 50 57 l 157 83 l 157 667 l 50 693 m 138 974 q 160 1038 138 1014 q 224 1061 183 1061 q 288 1038 264 1061 q 311 974 311 1014 q 288 910 311 933 q 224 888 264 888 q 160 910 183 888 q 138 974 138 933 z "},"j":{"ha":394,"x_min":-115,"x_max":299,"o":"m 279 118 q 272 -44 279 15 q 249 -140 265 -103 q 172 -232 222 -200 q 56 -264 122 -264 q -67 -227 -19 -264 q -115 -132 -115 -190 q -95 -74 -115 -96 q -42 -53 -75 -53 q 26 -129 26 -53 q 4 -192 26 -169 q 22 -207 7 -201 q 58 -212 36 -212 q 126 -174 107 -212 q 144 -33 144 -135 l 144 667 l 38 693 l 38 750 l 279 750 l 279 118 m 125 974 q 148 1038 125 1014 q 211 1061 171 1061 q 275 1038 251 1061 q 299 974 299 1014 q 275 910 299 933 q 211 888 251 888 q 148 910 171 888 q 125 974 125 933 z "},"k":{"ha":828,"x_min":35,"x_max":818,"o":"m 596 83 l 382 372 l 276 283 l 276 83 l 383 57 l 383 0 l 35 0 l 35 57 l 142 83 l 142 1000 l 35 1026 l 35 1083 l 276 1083 l 276 349 l 572 667 l 481 693 l 481 750 l 779 750 l 779 693 l 678 667 l 468 451 l 744 81 l 818 57 l 818 0 l 514 0 l 514 57 l 596 83 z "},"l":{"ha":428,"x_min":39,"x_max":388,"o":"m 146 1000 l 39 1026 l 39 1083 l 281 1083 l 281 83 l 388 57 l 388 0 l 39 0 l 39 57 l 146 83 l 146 1000 z "},"m":{"ha":1354,"x_min":50,"x_max":1326,"o":"m 157 667 l 50 693 l 50 750 l 250 750 l 281 611 l 286 611 q 394 723 326 682 q 538 764 461 764 q 640 742 596 764 q 704 689 683 721 q 740 597 726 654 q 856 720 785 676 q 1007 764 926 764 q 1107 742 1063 764 q 1175 683 1151 721 q 1196 636 1188 664 q 1210 567 1204 608 q 1217 471 1215 526 q 1219 340 1219 415 l 1219 83 l 1326 57 l 1326 0 l 992 0 l 992 57 l 1085 83 l 1085 393 q 1080 527 1085 482 q 1063 597 1075 572 q 946 665 1028 665 q 877 651 910 665 q 818 614 844 638 q 773 549 788 586 q 756 454 758 513 l 756 83 l 849 57 l 849 0 l 528 0 l 528 57 l 621 83 l 621 393 q 616 527 621 482 q 599 597 611 572 q 482 665 564 665 q 413 651 446 665 q 354 614 381 638 q 309 549 324 586 q 292 454 294 513 l 292 83 l 385 57 l 385 0 l 50 0 l 50 57 l 157 83 l 157 667 z "},"n":{"ha":910,"x_min":50,"x_max":879,"o":"m 157 667 l 50 693 l 50 750 l 250 750 l 281 611 l 286 611 q 398 723 328 682 q 550 764 468 764 q 650 744 606 764 q 721 689 694 725 q 760 580 749 650 q 772 390 772 510 l 772 83 l 879 57 l 879 0 l 544 0 l 544 57 l 638 83 l 638 393 q 633 527 638 482 q 615 597 628 572 q 493 665 581 665 q 418 651 454 665 q 354 614 382 638 q 309 549 324 586 q 292 454 294 513 l 292 83 l 385 57 l 385 0 l 50 0 l 50 57 l 157 83 l 157 667 z "},"o":{"ha":808,"x_min":64,"x_max":744,"o":"m 744 382 q 717 210 744 290 q 642 76 690 129 q 400 -14 560 -14 q 163 74 244 -14 q 90 201 115 125 q 64 365 64 276 q 90 539 64 457 q 167 674 117 621 q 269 742 211 721 q 406 764 328 764 q 543 742 482 764 q 646 676 604 721 q 719 548 694 625 q 744 382 744 471 m 213 381 q 263 132 213 214 q 319 77 286 96 q 404 58 351 58 q 547 124 500 58 q 584 224 572 160 q 596 371 596 288 q 546 618 596 536 q 489 673 522 654 q 403 692 456 692 q 263 628 306 692 q 213 381 213 550 z "},"œ":{"ha":1278,"x_min":64,"x_max":1217,"o":"m 406 764 q 486 756 446 764 q 561 730 526 747 q 623 686 596 713 q 663 624 650 660 l 668 624 q 766 728 703 692 q 921 764 829 764 q 1140 676 1064 764 q 1217 432 1217 588 q 1216 406 1217 418 q 1213 367 1215 394 l 728 367 q 756 199 728 265 q 834 106 783 133 q 946 79 885 79 q 1066 106 1013 79 q 1163 181 1119 133 l 1207 147 q 1153 85 1182 114 q 1089 33 1125 56 q 1008 -1 1053 11 q 910 -14 964 -14 q 833 -6 872 -14 q 761 19 794 3 q 703 60 728 36 q 668 118 678 85 l 663 118 q 618 61 646 86 q 556 19 590 36 q 481 -6 521 3 q 400 -14 440 -14 q 163 74 244 -14 q 90 201 115 125 q 64 365 64 276 q 90 539 64 457 q 167 674 117 621 q 269 742 211 721 q 406 764 328 764 m 213 381 q 263 132 213 214 q 319 77 286 96 q 404 58 351 58 q 547 124 500 58 q 584 224 572 160 q 596 371 596 288 q 546 618 596 536 q 489 673 522 654 q 403 692 456 692 q 263 628 306 692 q 213 381 213 550 m 913 689 q 729 435 746 689 l 1076 435 l 1076 481 q 1034 635 1076 581 q 913 689 992 689 z "},"p":{"ha":860,"x_min":35,"x_max":796,"o":"m 411 -193 l 411 -250 l 35 -250 l 35 -193 l 142 -167 l 142 667 l 35 693 l 35 750 l 235 750 l 256 643 q 356 738 300 713 q 483 764 413 764 q 612 743 554 764 q 706 676 669 722 q 772 550 747 624 q 796 389 796 476 q 769 222 796 300 q 696 90 742 143 q 472 0 618 0 q 365 22 413 0 q 276 103 317 44 l 276 -167 l 411 -193 m 275 388 q 324 146 275 222 q 378 91 346 110 q 463 72 410 72 q 603 138 557 72 q 639 234 628 172 q 650 378 650 296 q 601 618 650 540 q 546 673 578 654 q 461 692 514 692 q 378 676 413 692 q 324 628 343 660 q 288 531 300 590 q 275 388 275 471 z "},"q":{"ha":835,"x_min":64,"x_max":826,"o":"m 585 93 q 494 20 544 40 q 382 0 444 0 q 254 21 311 0 q 160 88 197 42 q 90 214 115 140 q 64 375 64 288 q 89 542 64 464 q 158 674 114 621 q 251 741 194 718 q 382 764 308 764 q 512 730 456 764 q 613 607 568 696 l 654 750 l 719 750 l 719 -167 l 826 -193 l 826 -250 l 450 -250 l 450 -193 l 585 -167 l 585 93 m 585 376 q 536 618 585 542 q 482 673 514 654 q 397 692 450 692 q 257 626 303 692 q 221 530 232 592 q 210 386 210 468 q 258 146 210 224 q 314 91 282 110 q 399 72 346 72 q 482 88 447 72 q 536 136 517 104 q 572 233 560 174 q 585 376 585 293 z "},"r":{"ha":636,"x_min":50,"x_max":618,"o":"m 468 669 q 440 678 456 678 q 385 645 414 678 q 333 563 356 613 q 303 459 314 515 q 292 343 292 403 l 292 83 l 442 57 l 442 0 l 50 0 l 50 57 l 157 83 l 157 667 l 50 693 l 50 750 l 250 750 l 281 567 l 286 567 q 372 713 318 661 q 492 764 425 764 q 582 730 546 764 q 618 639 618 696 q 597 573 618 597 q 539 549 575 549 q 482 572 503 549 q 461 632 461 594 q 463 647 461 640 q 468 669 464 654 z "},"s":{"ha":699,"x_min":61,"x_max":636,"o":"m 339 50 q 467 81 418 50 q 515 171 515 113 q 497 229 515 206 q 451 269 479 253 q 387 298 422 286 q 318 319 351 310 q 234 349 275 332 q 160 391 193 365 q 108 453 128 417 q 89 543 89 490 q 162 703 89 643 q 365 764 235 764 q 541 717 476 764 q 606 590 606 671 q 586 521 606 546 q 531 496 567 496 q 478 515 499 496 q 457 565 457 535 q 471 613 457 592 q 507 644 485 635 q 453 687 486 674 q 369 700 421 700 q 203 582 203 700 q 214 529 203 550 q 247 493 225 508 q 302 466 269 478 q 378 440 335 454 q 471 408 425 425 q 553 367 517 392 q 613 304 590 342 q 636 211 636 267 q 614 115 636 157 q 551 45 592 74 q 456 1 511 17 q 333 -14 400 -14 q 135 35 210 -14 q 61 171 61 85 q 81 241 61 215 q 139 267 101 267 q 195 247 172 267 q 218 196 218 228 q 203 146 218 169 q 168 111 189 122 q 233 67 186 83 q 339 50 279 50 z "},"b":{"ha":835,"x_min":8,"x_max":771,"o":"m 771 382 q 744 210 771 290 q 671 76 718 131 q 447 -14 593 -14 q 321 19 376 -14 q 222 140 265 51 l 181 0 l 115 0 l 115 1000 l 8 1026 l 8 1083 l 250 1083 l 250 669 q 343 743 292 722 q 458 764 394 764 q 587 743 529 764 q 681 676 644 722 q 747 547 724 624 q 771 382 771 471 m 250 381 q 299 132 250 210 q 353 77 321 96 q 438 58 385 58 q 578 124 532 58 q 614 224 603 160 q 625 371 625 288 q 576 618 625 538 q 521 673 553 654 q 436 692 489 692 q 353 676 388 692 q 299 628 318 660 q 263 527 275 589 q 250 381 250 465 z "},"t":{"ha":474,"x_min":13,"x_max":460,"o":"m 13 731 l 147 750 l 165 925 l 282 942 l 282 750 l 460 750 l 460 681 l 282 681 l 282 185 q 283 120 282 138 q 289 92 285 103 q 304 78 293 81 q 340 75 315 75 l 438 75 l 438 35 q 320 -2 371 10 q 239 -14 269 -14 q 158 38 176 -14 q 149 80 151 54 q 147 158 147 106 l 147 681 l 13 681 l 13 731 z "},"u":{"ha":879,"x_min":40,"x_max":844,"o":"m 268 357 q 269 279 268 313 q 273 222 271 246 q 279 182 275 199 q 290 153 283 165 q 407 85 322 85 q 479 99 444 85 q 540 136 514 113 q 585 201 571 164 q 603 296 600 238 l 603 667 l 482 693 l 482 750 l 738 750 l 738 83 l 844 57 l 844 0 l 629 -14 l 614 139 l 608 139 q 499 27 568 68 q 350 -14 429 -14 q 253 6 297 -14 q 185 61 210 25 q 145 170 157 100 q 133 360 133 240 l 133 667 l 40 693 l 40 750 l 268 750 l 268 357 z "},"v":{"ha":824,"x_min":15,"x_max":810,"o":"m 340 -14 l 93 667 l 15 693 l 15 750 l 326 750 l 326 693 l 235 667 l 431 85 l 436 85 l 632 667 l 546 693 l 546 750 l 810 750 l 810 693 l 729 667 l 483 -14 l 340 -14 z "},"w":{"ha":1218,"x_min":18,"x_max":1199,"o":"m 376 167 l 393 85 l 400 85 l 417 167 l 579 764 l 679 764 l 847 167 l 864 85 l 869 85 l 886 167 l 1025 667 l 935 693 l 935 750 l 1199 750 l 1199 693 l 1124 667 l 917 -14 l 774 -14 l 608 528 l 447 -14 l 304 -14 l 92 667 l 18 693 l 18 750 l 329 750 l 329 693 l 233 667 l 376 167 z "},"x":{"ha":796,"x_min":25,"x_max":779,"o":"m 421 446 l 583 667 l 500 693 l 500 750 l 761 750 l 761 693 l 682 667 l 457 399 l 703 82 l 779 57 l 779 0 l 475 0 l 475 57 l 554 83 l 375 314 l 203 83 l 286 57 l 286 0 l 25 0 l 25 57 l 103 83 l 339 361 l 103 667 l 25 693 l 25 750 l 313 750 l 313 693 l 251 667 l 421 446 z "},"y":{"ha":819,"x_min":4,"x_max":799,"o":"m 483 33 q 430 -104 454 -47 q 379 -197 406 -161 q 320 -248 353 -232 q 242 -264 288 -264 q 180 -255 208 -264 q 130 -229 151 -246 q 96 -190 108 -212 q 83 -142 83 -168 q 106 -77 83 -103 q 164 -51 128 -51 q 215 -69 196 -51 q 233 -117 233 -86 q 226 -154 233 -136 q 206 -186 218 -172 q 222 -206 208 -201 q 246 -210 235 -210 q 273 -206 260 -210 q 299 -185 286 -201 q 327 -140 313 -169 q 358 -61 342 -111 l 375 -10 l 88 667 l 4 693 l 4 750 l 315 750 l 326 693 l 228 667 l 435 122 l 440 122 l 615 667 l 535 693 l 535 750 l 799 750 l 799 693 l 714 667 l 483 33 z "},"z":{"ha":747,"x_min":61,"x_max":676,"o":"m 597 267 l 676 267 l 676 0 l 61 0 l 61 78 l 517 672 l 192 672 l 158 490 l 79 490 l 79 750 l 671 750 l 671 672 l 215 78 l 569 78 l 597 267 z "},"g":{"ha":778,"x_min":42,"x_max":768,"o":"m 704 -14 q 681 -111 704 -67 q 615 -187 658 -156 q 508 -237 571 -219 q 365 -256 444 -256 q 124 -210 206 -256 q 42 -82 42 -165 q 81 18 42 -17 q 188 64 119 53 l 188 69 q 96 178 96 96 q 127 258 96 221 q 225 318 158 294 q 119 396 156 343 q 82 525 82 449 q 102 624 82 581 q 159 699 122 668 q 248 747 196 731 q 365 764 300 764 q 569 700 494 764 l 617 717 l 744 778 l 768 778 l 768 656 l 744 656 l 647 667 l 600 667 q 640 533 640 611 q 565 360 640 424 q 356 297 490 297 q 327 298 340 297 q 300 300 314 299 q 190 218 190 283 q 215 174 190 186 q 313 163 240 163 l 474 163 q 646 120 588 163 q 704 -14 704 78 m 322 56 q 188 24 229 56 q 146 -60 146 -8 q 363 -186 146 -186 q 542 -151 481 -186 q 604 -44 604 -115 q 562 33 604 11 q 413 56 519 56 l 322 56 m 204 531 q 242 404 204 447 q 361 361 279 361 q 481 404 443 361 q 518 531 518 447 q 481 657 518 614 q 361 700 443 700 q 242 657 279 700 q 204 531 204 614 z "},"I":{"ha":519,"x_min":60,"x_max":460,"o":"m 329 89 l 460 60 l 460 0 l 60 0 l 60 60 l 190 89 l 190 911 l 60 940 l 60 1000 l 460 1000 l 460 940 l 329 911 l 329 89 z "},"H":{"ha":1115,"x_min":67,"x_max":1049,"o":"m 932 89 l 1049 60 l 1049 0 l 676 0 l 676 60 l 793 89 l 793 474 l 322 474 l 322 89 l 439 60 l 439 0 l 67 0 l 67 60 l 183 89 l 183 911 l 67 940 l 67 1000 l 439 1000 l 439 940 l 322 911 l 322 554 l 793 554 l 793 911 l 676 940 l 676 1000 l 1049 1000 l 1049 940 l 932 911 l 932 89 z "},"O":{"ha":1061,"x_min":74,"x_max":988,"o":"m 988 511 q 951 283 988 389 q 849 107 915 178 q 528 -14 736 -14 q 207 103 315 -14 q 108 270 143 169 q 74 489 74 371 q 110 717 74 611 q 213 893 146 822 q 348 985 271 956 q 531 1014 425 1014 q 853 897 740 1014 q 953 730 918 831 q 988 511 988 629 m 233 517 q 253 311 233 400 q 308 165 272 222 q 535 63 378 63 q 751 154 682 63 q 828 492 828 258 q 808 694 828 607 q 751 836 789 782 q 526 939 679 939 q 310 847 381 939 q 233 517 233 746 z "},"D":{"ha":1064,"x_min":67,"x_max":990,"o":"m 538 83 q 754 175 685 83 q 831 492 831 272 q 754 814 831 708 q 524 917 682 917 l 322 917 l 322 83 l 538 83 m 533 1000 q 856 883 740 1000 q 956 719 921 817 q 990 511 990 622 q 954 292 990 393 q 851 121 918 190 q 713 29 793 58 q 521 0 632 0 l 67 0 l 67 60 l 183 89 l 183 911 l 67 940 l 67 1000 l 533 1000 z "},"E":{"ha":951,"x_min":60,"x_max":872,"o":"m 585 331 l 560 472 l 329 472 l 329 83 l 749 83 l 792 310 l 872 310 l 872 0 l 60 0 l 60 60 l 190 89 l 190 911 l 60 940 l 60 1000 l 842 1000 l 842 706 l 769 706 l 725 919 l 329 919 l 329 556 l 560 556 l 585 697 l 656 697 l 656 331 l 585 331 z "},"P":{"ha":876,"x_min":67,"x_max":840,"o":"m 494 474 q 567 485 533 474 q 621 517 601 497 q 668 593 649 546 q 688 694 688 640 q 669 791 688 747 q 621 869 650 835 q 563 906 597 893 q 489 919 529 919 l 322 919 l 322 474 l 494 474 m 322 393 l 322 89 l 454 60 l 454 0 l 67 0 l 67 60 l 183 89 l 183 911 l 67 940 l 67 1000 l 526 1000 q 645 983 592 1000 q 735 933 699 965 q 812 829 783 889 q 840 703 840 769 q 810 569 840 633 q 732 461 781 504 q 642 411 696 429 q 525 393 588 393 l 322 393 z "},"T":{"ha":914,"x_min":43,"x_max":871,"o":"m 871 1000 l 871 708 l 799 708 l 754 917 l 526 917 l 526 93 l 674 60 l 674 0 l 240 0 l 240 60 l 388 93 l 388 917 l 158 917 l 115 708 l 43 708 l 43 1000 l 871 1000 z "},"R":{"ha":981,"x_min":67,"x_max":978,"o":"m 754 531 q 696 497 729 511 q 614 474 663 483 q 669 399 639 449 l 854 86 l 978 60 l 978 0 l 692 0 l 692 60 l 492 449 l 322 449 l 322 89 l 454 60 l 454 0 l 67 0 l 67 60 l 183 89 l 183 911 l 67 940 l 67 1000 l 544 1000 q 661 988 611 1000 q 751 947 711 975 q 831 856 803 914 q 860 739 860 797 q 831 624 860 681 q 754 531 803 568 m 521 529 q 647 572 597 529 q 691 640 675 597 q 707 731 707 682 q 691 819 707 779 q 646 883 675 858 q 591 911 622 903 q 515 919 560 919 l 322 919 l 322 529 l 521 529 z "},"F":{"ha":883,"x_min":60,"x_max":842,"o":"m 585 315 l 561 457 l 329 457 l 329 93 l 492 67 l 492 0 l 60 0 l 60 60 l 190 93 l 190 911 l 60 940 l 60 1000 l 842 1000 l 842 703 l 767 703 l 722 919 l 329 919 l 329 540 l 561 540 l 585 682 l 656 682 l 656 315 l 585 315 z "},"L":{"ha":874,"x_min":60,"x_max":831,"o":"m 329 83 l 707 83 l 754 324 l 831 324 l 831 0 l 60 0 l 60 60 l 190 89 l 190 911 l 60 940 l 60 1000 l 474 1000 l 474 940 l 329 911 l 329 83 z "},"Q":{"ha":1061,"x_min":74,"x_max":988,"o":"m 988 511 q 951 283 988 389 q 849 107 915 178 q 729 23 797 51 q 574 -12 661 -6 l 574 -18 l 750 -131 q 863 -164 803 -164 q 901 -158 885 -164 q 938 -137 917 -153 l 960 -175 q 889 -238 932 -219 q 783 -257 846 -257 q 647 -231 706 -257 q 557 -151 589 -204 l 474 -11 q 207 103 304 1 q 108 270 143 169 q 74 489 74 371 q 110 717 74 611 q 213 893 146 822 q 347 985 271 956 q 531 1014 424 1014 q 853 897 740 1014 q 953 730 918 831 q 988 511 988 629 m 233 519 q 253 310 233 401 q 308 165 272 219 q 533 63 376 63 q 751 154 682 63 q 828 492 828 258 q 808 694 828 607 q 751 836 789 782 q 526 939 679 939 q 310 847 381 939 q 233 519 233 749 z "},"C":{"ha":950,"x_min":74,"x_max":900,"o":"m 515 939 q 318 853 383 939 q 253 710 276 799 q 229 517 229 622 q 250 331 229 417 q 308 188 271 246 q 399 102 346 129 q 533 75 453 75 q 731 134 657 75 q 824 310 804 193 l 900 310 q 775 66 868 146 q 519 -14 682 -14 q 214 97 328 -14 q 110 265 146 164 q 74 490 74 365 q 119 744 74 631 q 249 926 165 857 q 528 1014 354 1014 q 605 1009 571 1014 q 668 992 639 1004 q 723 961 697 981 q 775 913 749 942 l 803 1000 l 879 1000 l 879 693 l 794 693 q 515 939 754 939 z "},"G":{"ha":1046,"x_min":74,"x_max":1013,"o":"m 521 76 q 757 310 757 76 l 757 407 l 640 436 l 640 499 l 1013 499 l 1013 436 l 896 407 l 896 0 l 824 0 l 789 110 q 664 15 728 43 q 513 -14 600 -14 q 208 103 322 -14 q 108 268 143 169 q 74 489 74 367 q 110 718 74 613 q 214 894 147 824 q 518 1014 326 1014 q 660 988 601 1014 q 772 904 719 963 l 803 1000 l 879 1000 l 879 693 l 794 693 q 513 939 754 939 q 394 916 442 939 q 313 844 347 893 q 250 697 272 786 q 228 508 228 608 q 252 317 228 404 q 321 169 276 231 q 403 99 357 121 q 521 76 450 76 z "},"B":{"ha":950,"x_min":67,"x_max":882,"o":"m 835 760 q 821 683 835 719 q 782 619 807 647 q 723 572 757 590 q 649 547 689 553 l 649 542 q 819 449 757 518 q 882 279 882 381 q 841 135 882 200 q 738 38 800 69 q 695 21 718 28 q 642 9 672 14 q 572 2 611 4 q 482 0 533 0 l 67 0 l 67 60 l 183 89 l 183 911 l 67 940 l 67 1000 l 533 1000 q 758 929 679 1000 q 815 851 794 896 q 835 760 835 807 m 322 482 l 322 83 l 475 83 q 578 90 539 83 q 643 113 617 97 q 704 179 681 135 q 728 286 728 224 q 710 378 728 339 q 664 442 692 418 q 600 472 639 463 q 500 482 561 482 l 322 482 m 322 563 l 496 563 q 639 611 593 563 q 675 667 660 633 q 690 746 690 701 q 675 823 690 789 q 639 878 660 857 q 501 919 597 919 l 322 919 l 322 563 z "},"Z":{"ha":899,"x_min":51,"x_max":833,"o":"m 754 310 l 833 310 l 833 0 l 51 0 l 51 85 l 643 917 l 211 917 l 167 706 l 94 706 l 94 1000 l 801 1000 l 801 915 l 210 83 l 710 83 l 754 310 z "},"J":{"ha":810,"x_min":25,"x_max":756,"o":"m 507 911 l 369 940 l 369 1000 l 756 1000 l 756 940 l 646 911 l 646 303 q 622 172 646 231 q 556 72 599 114 q 452 8 513 31 q 318 -15 392 -15 q 199 3 253 -15 q 106 56 144 22 q 47 138 68 90 q 25 243 25 186 q 117 360 25 360 q 181 338 157 360 q 204 279 204 315 q 186 215 204 247 q 144 171 168 182 q 192 96 144 126 q 317 65 240 65 q 461 120 415 65 q 507 288 507 175 l 507 911 z "},"U":{"ha":1072,"x_min":44,"x_max":1026,"o":"m 822 911 l 706 940 l 706 1000 l 1026 1000 l 1026 940 l 910 911 l 910 338 q 817 74 910 164 q 544 -15 725 -15 q 260 76 358 -15 q 161 339 161 168 l 161 911 l 44 940 l 44 1000 l 417 1000 l 417 940 l 300 911 l 300 363 q 575 61 300 61 q 764 131 706 61 q 822 360 822 201 l 822 911 z "},"N":{"ha":1113,"x_min":67,"x_max":1058,"o":"m 183 911 l 67 940 l 67 1000 l 332 1000 l 851 232 l 851 911 l 735 940 l 735 1000 l 1058 1000 l 1058 940 l 942 911 l 942 0 l 843 0 l 274 832 l 274 89 l 390 60 l 390 0 l 67 0 l 67 60 l 183 89 l 183 911 z "},"A":{"ha":1001,"x_min":-10,"x_max":1007,"o":"m 657 336 l 285 336 l 200 89 l 315 60 l 315 0 l -10 0 l -10 60 l 104 89 l 438 1014 l 567 1014 l 896 89 l 1007 60 l 1007 0 l 625 0 l 625 60 l 739 89 l 657 336 m 313 417 l 631 417 l 481 890 l 475 890 l 313 417 z "},"V":{"ha":994,"x_min":-12,"x_max":997,"o":"m 524 115 l 529 115 l 788 911 l 672 940 l 672 1000 l 997 1000 l 997 940 l 883 911 l 572 0 l 436 0 l 99 911 l -12 940 l -12 1000 l 363 1000 l 363 940 l 249 911 l 524 115 z "},"W":{"ha":1446,"x_min":-7,"x_max":1447,"o":"m 1239 913 l 1129 940 l 1129 1000 l 1447 1000 l 1447 940 l 1332 911 l 1068 0 l 924 0 l 719 668 l 535 0 l 390 0 l 101 911 l -7 940 l -7 1000 l 388 1000 l 388 940 l 254 911 l 483 131 l 489 131 l 678 828 l 660 911 l 551 940 l 551 1000 l 918 1000 l 918 940 l 790 911 l 1018 131 l 1024 131 l 1239 913 z "},"K":{"ha":1029,"x_min":60,"x_max":1042,"o":"m 329 508 l 718 911 l 592 940 l 592 1000 l 957 1000 l 957 940 l 835 911 l 510 589 l 925 86 l 1042 60 l 1042 0 l 654 0 l 654 60 l 746 88 l 417 494 l 329 411 l 329 89 l 446 60 l 446 0 l 60 0 l 60 60 l 190 89 l 190 911 l 60 940 l 60 1000 l 446 1000 l 446 940 l 329 911 l 329 508 z "},"Y":{"ha":942,"x_min":-7,"x_max":943,"o":"m 740 911 l 628 940 l 628 1000 l 943 1000 l 943 940 l 829 911 l 546 392 l 546 89 l 676 60 l 676 0 l 276 0 l 276 60 l 407 89 l 407 369 l 108 911 l -7 940 l -7 1000 l 376 1000 l 376 940 l 260 911 l 499 467 l 740 911 z "},"S":{"ha":832,"x_min":92,"x_max":758,"o":"m 446 -15 q 296 10 363 -15 q 185 81 229 35 l 169 0 l 92 0 l 92 315 l 176 315 q 242 122 185 182 q 419 61 300 61 q 618 213 618 61 q 601 290 618 257 q 551 351 583 324 q 473 401 519 378 q 368 447 426 424 q 251 499 301 474 q 166 558 200 525 q 114 633 132 590 q 96 736 96 675 q 178 942 96 868 q 400 1015 261 1015 q 624 938 538 1015 l 635 1000 l 713 1000 l 713 685 l 633 685 q 584 880 633 819 q 426 940 535 940 q 236 767 236 940 q 244 708 236 732 q 276 663 253 683 q 338 622 299 642 q 438 576 376 603 q 585 505 524 539 q 684 433 646 471 q 740 353 722 396 q 758 256 758 310 q 735 141 758 192 q 672 56 713 90 q 573 3 631 21 q 446 -15 515 -15 z "},"X":{"ha":1028,"x_min":15,"x_max":1019,"o":"m 329 911 l 525 600 l 758 911 l 632 940 l 632 1000 l 997 1000 l 997 940 l 861 911 l 575 536 l 872 89 l 1019 60 l 1019 0 l 565 0 l 563 60 l 706 89 l 488 438 l 242 89 l 393 60 l 393 0 l 15 0 l 15 60 l 144 89 l 438 497 l 167 911 l 19 940 l 19 1000 l 460 1000 l 460 940 l 329 911 z "},"M":{"ha":1335,"x_min":67,"x_max":1268,"o":"m 943 1000 l 1268 1000 l 1268 940 l 1151 911 l 1151 89 l 1268 60 l 1268 0 l 911 0 l 911 60 l 1013 89 l 1013 910 l 726 0 l 563 0 l 274 910 l 274 89 l 375 60 l 375 0 l 67 0 l 67 60 l 183 89 l 183 911 l 67 940 l 67 1000 l 397 1000 l 669 126 l 675 126 l 943 1000 z "},"§":{"ha":736,"x_min":67,"x_max":669,"o":"m 669 347 q 635 220 669 275 q 538 133 600 165 q 596 57 578 97 q 614 -35 614 17 q 542 -203 614 -143 q 342 -264 469 -264 q 163 -217 228 -264 q 97 -90 97 -171 q 117 -21 97 -46 q 172 4 136 4 q 225 -15 204 4 q 246 -65 246 -35 q 232 -113 246 -92 q 196 -144 218 -135 q 249 -187 217 -174 q 336 -200 282 -200 q 460 -169 421 -200 q 500 -71 500 -137 q 490 -10 500 -35 q 457 35 479 15 q 402 74 435 56 q 325 114 369 92 q 231 164 276 138 q 148 224 185 190 q 89 301 111 258 q 67 403 67 344 q 101 530 67 475 q 197 617 136 585 q 140 692 157 651 q 122 783 122 732 q 194 953 122 893 q 394 1014 265 1014 q 574 967 508 1014 q 639 840 639 921 q 619 771 639 796 q 564 746 600 746 q 511 765 532 746 q 490 815 490 785 q 504 862 490 840 q 540 894 518 883 q 485 937 518 924 q 399 950 453 950 q 276 919 315 950 q 236 822 236 889 q 248 759 236 785 q 283 713 260 733 q 338 674 306 692 q 411 636 369 657 q 506 586 460 613 q 589 526 553 560 q 647 449 625 492 q 669 347 669 406 m 351 524 q 310 544 336 531 q 249 579 283 558 q 204 523 221 563 q 188 442 188 483 q 235 325 188 374 q 385 225 282 276 q 424 206 399 218 q 493 168 449 193 q 535 228 521 189 q 549 307 549 267 q 538 370 549 342 q 502 424 526 399 q 440 474 478 450 q 351 524 403 497 z "},"¢":{"ha":765,"x_min":71,"x_max":704,"o":"m 369 -12 q 220 33 283 -6 q 121 142 157 71 q 84 244 97 186 q 71 367 71 301 q 91 515 71 447 q 150 635 111 583 q 244 718 189 686 q 369 760 300 750 l 369 906 l 435 906 l 435 764 q 544 748 494 764 q 630 703 594 732 q 685 635 665 675 q 704 546 704 594 q 618 440 704 440 q 556 463 578 440 q 533 522 533 485 q 552 582 533 557 q 603 617 571 607 q 435 693 558 693 l 435 79 q 557 107 499 79 q 657 186 615 135 l 699 153 q 583 34 647 74 q 435 -12 519 -6 l 435 -150 l 369 -150 l 369 -12 m 253 186 q 369 88 289 111 l 369 685 q 253 593 289 665 q 217 388 217 521 q 253 186 217 256 z "},"ə":{"ha":756,"x_min":61,"x_max":690,"o":"m 550 383 q 522 551 550 485 q 444 644 494 617 q 332 671 393 671 q 212 644 265 671 q 115 569 158 617 l 71 603 q 124 665 96 636 q 189 717 153 694 q 269 751 225 739 q 368 764 314 764 q 538 723 464 764 q 650 603 611 682 q 681 508 671 560 q 690 394 690 456 q 601 92 690 199 q 357 -14 513 -14 q 138 74 214 -14 q 61 318 61 163 q 62 344 61 332 q 65 383 63 356 l 550 383 m 365 61 q 549 315 532 61 l 201 315 l 201 269 q 244 115 201 169 q 365 61 286 61 z "},"µ":{"ha":928,"x_min":64,"x_max":868,"o":"m 157 667 l 64 693 l 64 750 l 292 750 l 292 357 q 293 279 292 313 q 297 222 294 246 q 303 182 299 199 q 314 153 307 165 q 431 85 346 85 q 501 99 467 85 q 564 136 536 113 q 608 201 593 164 q 626 296 622 238 l 626 667 l 506 693 l 506 750 l 761 750 l 761 83 l 868 57 l 868 0 l 653 -14 l 638 139 l 632 139 q 528 26 588 65 q 406 -14 469 -14 q 283 82 306 -14 l 278 82 l 292 -249 l 157 -249 l 157 667 z "},"μ":{"ha":888,"x_min":44,"x_max":849,"o":"m 138 667 l 44 693 l 44 750 l 272 750 l 272 357 q 274 279 272 313 q 277 222 275 246 q 283 182 279 199 q 294 153 288 165 q 411 85 326 85 q 482 99 447 85 q 544 136 517 113 q 588 201 574 164 q 607 296 603 238 l 607 667 l 486 693 l 486 750 l 742 750 l 742 83 l 849 57 l 849 0 l 633 -14 l 618 139 l 613 139 q 509 26 568 65 q 386 -14 450 -14 q 264 82 286 -14 l 258 82 l 272 -249 l 138 -249 l 138 667 z "},"ĸ":{"ha":843,"x_min":50,"x_max":833,"o":"m 611 83 l 397 372 l 292 283 l 292 83 l 399 57 l 399 0 l 50 0 l 50 57 l 157 83 l 157 667 l 50 693 l 50 750 l 292 750 l 292 349 l 588 667 l 496 693 l 496 750 l 794 750 l 794 693 l 693 667 l 483 451 l 760 81 l 833 57 l 833 0 l 529 0 l 529 57 l 611 83 z "},"ŋ":{"ha":874,"x_min":50,"x_max":772,"o":"m 638 393 q 633 527 638 482 q 615 597 628 572 q 493 665 581 665 q 418 651 454 665 q 354 614 382 638 q 309 549 324 586 q 292 454 294 513 l 292 83 l 385 57 l 385 0 l 50 0 l 50 57 l 157 83 l 157 667 l 50 693 l 50 750 l 250 750 l 281 611 l 286 611 q 398 723 328 682 q 550 764 468 764 q 650 744 606 764 q 721 689 694 725 q 760 580 749 650 q 772 390 772 510 l 772 118 q 765 -44 772 15 q 742 -140 758 -103 q 665 -232 715 -200 q 549 -264 615 -264 q 426 -227 474 -264 q 378 -132 378 -190 q 398 -74 378 -96 q 451 -53 418 -53 q 519 -129 519 -53 q 497 -192 519 -169 q 515 -207 500 -201 q 551 -212 529 -212 q 619 -174 600 -212 q 638 -33 638 -135 l 638 393 z "},"þ":{"ha":833,"x_min":8,"x_max":769,"o":"m 769 382 q 743 221 769 299 q 671 90 717 143 q 447 0 593 0 q 333 25 381 0 q 250 104 286 50 l 250 -167 l 385 -193 l 385 -250 l 8 -250 l 8 -193 l 115 -167 l 115 1000 l 8 1026 l 8 1083 l 250 1083 l 250 669 q 338 741 289 718 q 458 764 388 764 q 681 676 610 764 q 747 547 724 624 q 769 382 769 471 m 250 381 q 262 242 250 299 q 299 146 274 186 q 438 72 343 72 q 519 89 483 72 q 578 138 556 106 q 612 230 600 169 q 624 371 624 290 q 613 516 624 454 q 576 618 601 578 q 519 674 553 657 q 436 692 485 692 q 299 628 335 692 q 250 381 250 546 z "},"Æ":{"ha":1468,"x_min":-12,"x_max":1389,"o":"m 1101 331 l 1076 472 l 846 472 l 846 83 l 1265 83 l 1308 310 l 1389 310 l 1389 0 l 576 0 l 576 60 l 707 89 l 707 336 l 357 336 l 221 89 l 331 60 l 331 0 l -12 0 l -12 60 l 118 89 l 586 925 l 469 940 l 469 1000 l 1358 1000 l 1358 706 l 1286 706 l 1242 919 l 846 919 l 846 556 l 1076 556 l 1101 697 l 1172 697 l 1172 331 l 1101 331 m 675 915 l 401 417 l 707 417 l 707 911 l 675 915 z "},"ﬀ":{"ha":940,"x_min":25,"x_max":1033,"o":"m 25 731 l 160 750 l 160 764 q 234 981 160 906 q 444 1056 308 1056 q 567 1039 511 1056 q 654 994 622 1022 q 853 1097 722 1097 q 985 1058 936 1097 q 1033 957 1033 1018 q 1014 898 1033 918 q 961 878 994 878 q 910 896 929 878 q 890 947 890 914 q 913 1019 890 983 q 849 1044 889 1044 q 793 1031 817 1044 q 757 994 769 1017 q 738 943 744 971 q 731 883 732 915 q 731 819 731 851 l 731 750 l 908 750 l 908 681 l 731 681 l 731 83 l 881 57 l 881 0 l 517 0 l 517 57 l 596 83 l 596 681 l 294 681 l 294 83 l 389 57 l 389 0 l 53 0 l 53 57 l 160 83 l 160 681 l 25 681 l 25 731 m 596 782 q 563 951 596 900 q 450 1003 529 1003 q 333 956 371 1003 q 294 819 294 910 l 294 750 l 596 750 l 596 782 z "},"ﬁ":{"ha":872,"x_min":25,"x_max":838,"o":"m 25 731 l 160 750 l 160 764 q 183 902 160 840 q 250 1008 207 964 q 355 1074 293 1051 q 494 1097 417 1097 q 667 1055 603 1097 q 732 942 732 1013 q 658 864 732 864 q 589 933 589 864 q 611 1006 589 967 q 489 1044 564 1044 q 399 1031 438 1044 q 317 963 340 1011 q 294 819 294 915 l 294 750 l 731 750 l 731 83 l 838 57 l 838 0 l 503 0 l 503 57 l 596 83 l 596 681 l 294 681 l 294 83 l 403 57 l 403 0 l 53 0 l 53 57 l 160 83 l 160 681 l 25 681 l 25 731 z "},"ﬂ":{"ha":878,"x_min":25,"x_max":838,"o":"m 475 1097 q 586 1080 538 1097 q 664 1028 635 1063 l 689 1083 l 731 1083 l 731 83 l 838 57 l 838 0 l 503 0 l 503 57 l 596 83 l 596 681 l 294 681 l 294 83 l 403 57 l 403 0 l 53 0 l 53 57 l 160 83 l 160 681 l 25 681 l 25 731 l 160 750 l 160 764 q 181 902 160 840 q 244 1008 203 964 q 343 1074 285 1051 q 475 1097 401 1097 m 294 750 l 596 750 l 596 896 q 558 1006 596 967 q 453 1044 521 1044 q 294 819 294 1044 l 294 750 z "},"ﬃ":{"ha":1307,"x_min":25,"x_max":1272,"o":"m 25 731 l 160 750 l 160 764 q 234 979 160 903 q 443 1056 308 1056 q 567 1036 514 1056 q 658 969 619 1017 q 763 1065 701 1033 q 924 1097 824 1097 q 1101 1055 1036 1097 q 1167 942 1167 1013 q 1092 864 1167 864 q 1024 933 1024 864 q 1046 1006 1024 967 q 992 1035 1024 1025 q 924 1044 960 1044 q 874 1040 899 1044 q 828 1028 849 1035 q 753 960 775 1008 q 731 819 731 911 l 731 750 l 1165 750 l 1165 83 l 1272 57 l 1272 0 l 938 0 l 938 57 l 1031 83 l 1031 681 l 731 681 l 731 83 l 839 57 l 839 0 l 503 0 l 503 57 l 596 83 l 596 681 l 294 681 l 294 83 l 403 57 l 403 0 l 53 0 l 53 57 l 160 83 l 160 681 l 25 681 l 25 731 m 596 782 q 563 952 596 901 q 451 1003 529 1003 q 294 819 294 1003 l 294 750 l 596 750 l 596 782 z "},"ﬄ":{"ha":1313,"x_min":25,"x_max":1272,"o":"m 913 1097 q 1099 1028 1038 1097 l 1124 1083 l 1165 1083 l 1165 83 l 1272 57 l 1272 0 l 938 0 l 938 57 l 1031 83 l 1031 681 l 731 681 l 731 83 l 839 57 l 839 0 l 503 0 l 503 57 l 596 83 l 596 681 l 294 681 l 294 83 l 403 57 l 403 0 l 53 0 l 53 57 l 160 83 l 160 681 l 25 681 l 25 731 l 160 750 l 160 764 q 235 980 160 904 q 450 1056 311 1056 q 569 1035 519 1056 q 658 969 619 1014 q 913 1097 738 1097 m 731 750 l 1031 750 l 1031 896 q 994 1006 1031 967 q 890 1044 957 1044 q 731 819 731 1044 l 731 750 m 294 750 l 596 750 l 596 782 q 563 951 596 900 q 451 1003 529 1003 q 334 956 374 1003 q 294 819 294 910 l 294 750 z "},"ĳ":{"ha":828,"x_min":50,"x_max":732,"o":"m 50 693 l 50 750 l 292 750 l 292 83 l 399 57 l 399 0 l 50 0 l 50 57 l 157 83 l 157 667 l 50 693 m 138 974 q 160 1038 138 1014 q 224 1061 183 1061 q 288 1038 264 1061 q 311 974 311 1014 q 288 910 311 933 q 224 888 264 888 q 160 910 183 888 q 138 974 138 933 m 713 118 q 706 -44 713 15 q 682 -140 699 -103 q 606 -232 656 -200 q 489 -264 556 -264 q 366 -227 414 -264 q 318 -132 318 -190 q 338 -74 318 -96 q 392 -53 358 -53 q 460 -129 460 -53 q 438 -192 460 -169 q 455 -207 440 -201 q 492 -212 469 -212 q 559 -174 540 -212 q 578 -33 578 -135 l 578 667 l 471 693 l 471 750 l 713 750 l 713 118 m 558 974 q 581 1038 558 1014 q 644 1061 604 1061 q 708 1038 685 1061 q 732 974 732 1014 q 708 910 732 933 q 644 888 685 888 q 581 910 604 888 q 558 974 558 933 z "},"ǳ":{"ha":1608,"x_min":64,"x_max":1538,"o":"m 64 368 q 88 540 64 460 q 158 674 111 621 q 253 741 199 718 q 382 764 308 764 q 494 740 444 764 q 585 656 544 717 l 585 1000 l 478 1026 l 478 1083 l 719 1083 l 719 83 l 826 57 l 826 0 l 611 -14 l 600 100 q 503 10 557 35 q 382 -14 449 -14 q 254 7 311 -14 q 160 74 197 28 q 90 203 115 128 q 64 368 64 279 m 585 369 q 536 618 585 540 q 482 673 514 654 q 397 692 450 692 q 257 626 303 692 q 221 526 232 590 q 210 379 210 463 q 258 132 210 213 q 314 77 282 96 q 399 58 346 58 q 482 74 447 58 q 536 122 517 90 q 572 223 560 161 q 585 369 585 285 m 1458 267 l 1538 267 l 1538 0 l 922 0 l 922 78 l 1378 672 l 1053 672 l 1019 490 l 940 490 l 940 750 l 1532 750 l 1532 672 l 1076 78 l 1431 78 l 1458 267 z "},"ǌ":{"ha":1304,"x_min":50,"x_max":1208,"o":"m 157 667 l 50 693 l 50 750 l 250 750 l 281 611 l 286 611 q 398 723 328 682 q 550 764 468 764 q 650 744 606 764 q 721 689 694 725 q 760 580 749 650 q 772 390 772 510 l 772 83 l 879 57 l 879 0 l 544 0 l 544 57 l 638 83 l 638 393 q 633 527 638 482 q 615 597 628 572 q 493 665 581 665 q 418 651 454 665 q 354 614 382 638 q 309 549 324 586 q 292 454 294 513 l 292 83 l 385 57 l 385 0 l 50 0 l 50 57 l 157 83 l 157 667 m 1189 118 q 1182 -44 1189 15 q 1158 -140 1175 -103 q 1082 -232 1132 -200 q 965 -264 1032 -264 q 842 -227 890 -264 q 794 -132 794 -190 q 815 -74 794 -96 q 868 -53 835 -53 q 936 -129 936 -53 q 914 -192 936 -169 q 931 -207 917 -201 q 968 -212 946 -212 q 1035 -174 1017 -212 q 1054 -33 1054 -135 l 1054 667 l 947 693 l 947 750 l 1189 750 l 1189 118 m 1035 974 q 1058 1038 1035 1014 q 1121 1061 1081 1061 q 1185 1038 1161 1061 q 1208 974 1208 1014 q 1185 910 1208 933 q 1121 888 1161 888 q 1058 910 1081 888 q 1035 974 1035 933 z "},"ǉ":{"ha":822,"x_min":39,"x_max":726,"o":"m 146 1000 l 39 1026 l 39 1083 l 281 1083 l 281 83 l 388 57 l 388 0 l 39 0 l 39 57 l 146 83 l 146 1000 m 707 118 q 700 -44 707 15 q 676 -140 693 -103 q 600 -232 650 -200 q 483 -264 550 -264 q 360 -227 408 -264 q 313 -132 313 -190 q 333 -74 313 -96 q 386 -53 353 -53 q 454 -129 454 -53 q 432 -192 454 -169 q 449 -207 435 -201 q 486 -212 464 -212 q 553 -174 535 -212 q 572 -33 572 -135 l 572 667 l 465 693 l 465 750 l 707 750 l 707 118 m 553 974 q 576 1038 553 1014 q 639 1061 599 1061 q 703 1038 679 1061 q 726 974 726 1014 q 703 910 726 933 q 639 888 679 888 q 576 910 599 888 q 553 974 553 933 z "},"ǈ":{"ha":1260,"x_min":60,"x_max":1164,"o":"m 329 83 l 707 83 l 754 324 l 831 324 l 831 0 l 60 0 l 60 60 l 190 89 l 190 911 l 60 940 l 60 1000 l 474 1000 l 474 940 l 329 911 l 329 83 m 1144 118 q 1138 -44 1144 15 q 1114 -140 1131 -103 q 1038 -232 1088 -200 q 921 -264 988 -264 q 798 -227 846 -264 q 750 -132 750 -190 q 770 -74 750 -96 q 824 -53 790 -53 q 892 -129 892 -53 q 869 -192 892 -169 q 887 -207 872 -201 q 924 -212 901 -212 q 991 -174 972 -212 q 1010 -33 1010 -135 l 1010 667 l 903 693 l 903 750 l 1144 750 l 1144 118 m 990 974 q 1013 1038 990 1014 q 1076 1061 1036 1061 q 1140 1038 1117 1061 q 1164 974 1164 1014 q 1140 910 1164 933 q 1076 888 1117 888 q 1013 910 1036 888 q 990 974 990 933 z "},"ǋ":{"ha":1492,"x_min":67,"x_max":1396,"o":"m 183 911 l 67 940 l 67 1000 l 332 1000 l 851 232 l 851 911 l 735 940 l 735 1000 l 1058 1000 l 1058 940 l 942 911 l 942 0 l 843 0 l 274 832 l 274 89 l 390 60 l 390 0 l 67 0 l 67 60 l 183 89 l 183 911 m 1376 118 q 1369 -44 1376 15 q 1346 -140 1363 -103 q 1269 -232 1319 -200 q 1153 -264 1219 -264 q 1030 -227 1078 -264 q 982 -132 982 -190 q 1002 -74 982 -96 q 1056 -53 1022 -53 q 1124 -129 1124 -53 q 1101 -192 1124 -169 q 1119 -207 1104 -201 q 1156 -212 1133 -212 q 1223 -174 1204 -212 q 1242 -33 1242 -135 l 1242 667 l 1135 693 l 1135 750 l 1376 750 l 1376 118 m 1222 974 q 1245 1038 1222 1014 q 1308 1061 1268 1061 q 1372 1038 1349 1061 q 1396 974 1396 1014 q 1372 910 1396 933 q 1308 888 1349 888 q 1245 910 1268 888 q 1222 974 1222 933 z "},"Ǳ":{"ha":1954,"x_min":67,"x_max":1889,"o":"m 538 83 q 754 175 685 83 q 831 492 831 272 q 754 814 831 708 q 524 917 682 917 l 322 917 l 322 83 l 538 83 m 533 1000 q 856 883 740 1000 q 956 719 921 817 q 990 511 990 622 q 954 292 990 393 q 851 121 918 190 q 713 29 793 58 q 521 0 632 0 l 67 0 l 67 60 l 183 89 l 183 911 l 67 940 l 67 1000 l 533 1000 m 1810 310 l 1889 310 l 1889 0 l 1107 0 l 1107 85 l 1699 917 l 1267 917 l 1222 706 l 1150 706 l 1150 1000 l 1857 1000 l 1857 915 l 1265 83 l 1765 83 l 1810 310 z "},"ǲ":{"ha":1811,"x_min":67,"x_max":1740,"o":"m 538 83 q 754 175 685 83 q 831 492 831 272 q 754 814 831 708 q 524 917 682 917 l 322 917 l 322 83 l 538 83 m 533 1000 q 856 883 740 1000 q 956 719 921 817 q 990 511 990 622 q 954 292 990 393 q 851 121 918 190 q 713 29 793 58 q 521 0 632 0 l 67 0 l 67 60 l 183 89 l 183 911 l 67 940 l 67 1000 l 533 1000 m 1661 267 l 1740 267 l 1740 0 l 1125 0 l 1125 78 l 1581 672 l 1256 672 l 1222 490 l 1143 490 l 1143 750 l 1735 750 l 1735 672 l 1279 78 l 1633 78 l 1661 267 z "},"Ĳ":{"ha":1329,"x_min":60,"x_max":1275,"o":"m 329 89 l 460 60 l 460 0 l 60 0 l 60 60 l 190 89 l 190 911 l 60 940 l 60 1000 l 460 1000 l 460 940 l 329 911 l 329 89 m 1026 911 l 889 940 l 889 1000 l 1275 1000 l 1275 940 l 1165 911 l 1165 303 q 1142 172 1165 231 q 1075 72 1118 114 q 972 8 1032 31 q 838 -15 911 -15 q 718 3 772 -15 q 626 56 664 22 q 566 138 588 90 q 544 243 544 186 q 636 360 544 360 q 700 338 676 360 q 724 279 724 315 q 706 215 724 247 q 664 171 688 182 q 712 96 664 126 q 836 65 760 65 q 981 120 935 65 q 1026 288 1026 175 l 1026 911 z "},"Ǉ":{"ha":1683,"x_min":60,"x_max":1629,"o":"m 329 83 l 707 83 l 754 324 l 831 324 l 831 0 l 60 0 l 60 60 l 190 89 l 190 911 l 60 940 l 60 1000 l 474 1000 l 474 940 l 329 911 l 329 83 m 1381 911 l 1243 940 l 1243 1000 l 1629 1000 l 1629 940 l 1519 911 l 1519 303 q 1496 172 1519 231 q 1429 72 1472 114 q 1326 8 1386 31 q 1192 -15 1265 -15 q 1072 3 1126 -15 q 980 56 1018 22 q 920 138 942 90 q 899 243 899 186 q 990 360 899 360 q 1054 338 1031 360 q 1078 279 1078 315 q 1060 215 1078 247 q 1018 171 1042 182 q 1066 96 1018 126 q 1190 65 1114 65 q 1335 120 1289 65 q 1381 288 1381 175 l 1381 911 z "},"Ǌ":{"ha":1911,"x_min":67,"x_max":1857,"o":"m 183 911 l 67 940 l 67 1000 l 332 1000 l 851 232 l 851 911 l 735 940 l 735 1000 l 1058 1000 l 1058 940 l 942 911 l 942 0 l 843 0 l 274 832 l 274 89 l 390 60 l 390 0 l 67 0 l 67 60 l 183 89 l 183 911 m 1608 911 l 1471 940 l 1471 1000 l 1857 1000 l 1857 940 l 1747 911 l 1747 303 q 1724 172 1747 231 q 1657 72 1700 114 q 1553 8 1614 31 q 1419 -15 1493 -15 q 1300 3 1354 -15 q 1208 56 1246 22 q 1148 138 1169 90 q 1126 243 1126 186 q 1218 360 1126 360 q 1282 338 1258 360 q 1306 279 1306 315 q 1288 215 1306 247 q 1246 171 1269 182 q 1294 96 1246 126 q 1418 65 1342 65 q 1563 120 1517 65 q 1608 288 1608 175 l 1608 911 z "},"Ŋ":{"ha":1113,"x_min":67,"x_max":1058,"o":"m 183 911 l 67 940 l 67 1000 l 332 1000 l 850 232 l 850 911 l 735 940 l 735 1000 l 1058 1000 l 1058 940 l 942 911 l 942 118 q 935 -44 942 15 q 911 -140 928 -103 q 844 -232 885 -200 q 736 -264 803 -264 q 665 -254 699 -264 q 605 -226 631 -244 q 563 -185 579 -208 q 547 -132 547 -161 q 567 -74 547 -96 q 621 -53 588 -53 q 689 -129 689 -53 q 667 -192 689 -169 q 688 -207 669 -201 q 736 -212 707 -212 q 819 -169 788 -212 q 850 -33 850 -125 l 850 -10 l 274 832 l 274 89 l 390 60 l 390 0 l 67 0 l 67 60 l 183 89 l 183 911 z "},"Þ":{"ha":893,"x_min":56,"x_max":844,"o":"m 326 206 l 326 89 l 458 60 l 458 0 l 71 0 l 71 60 l 188 89 l 188 911 l 56 940 l 56 1000 l 443 1000 l 443 940 l 326 911 l 326 799 l 538 799 q 671 775 614 799 q 767 711 728 751 q 825 618 806 671 q 844 508 844 565 q 824 392 844 447 q 765 296 804 338 q 668 230 725 254 q 536 206 611 206 l 326 206 m 506 286 q 589 302 554 286 q 647 347 624 318 q 681 414 669 375 q 692 500 692 453 q 679 583 692 543 q 643 653 667 622 q 583 701 619 683 q 500 718 547 718 l 326 718 l 326 286 l 506 286 z "},"ß":{"ha":875,"x_min":35,"x_max":840,"o":"m 490 589 q 496 560 490 572 q 516 533 501 547 q 556 504 531 519 q 624 468 582 489 q 731 408 689 435 q 798 353 774 381 q 831 297 822 326 q 840 232 840 268 q 822 133 840 178 q 769 55 803 88 q 688 4 735 22 q 583 -14 640 -14 q 494 -1 535 -14 q 425 35 454 13 q 379 91 396 58 q 363 161 363 124 q 383 228 363 204 q 440 253 404 253 q 497 233 475 253 q 519 182 519 213 q 505 133 519 157 q 469 97 490 108 q 514 63 482 76 q 586 50 546 50 q 684 83 649 50 q 719 179 719 117 q 714 221 719 203 q 692 257 708 239 q 644 296 675 275 q 564 347 614 317 q 470 406 507 381 q 413 456 433 432 q 384 503 392 479 q 376 557 376 526 q 381 601 376 582 q 401 640 386 621 q 440 681 415 660 q 504 732 464 703 q 569 802 550 767 q 589 888 589 838 q 550 1002 589 963 q 440 1042 511 1042 q 276 819 276 1042 l 276 0 l 35 0 l 35 57 l 142 83 l 142 764 q 163 903 142 842 q 225 1008 185 965 q 323 1074 265 1051 q 454 1097 381 1097 q 640 1040 572 1097 q 707 886 707 983 q 683 792 707 831 q 600 718 658 754 q 515 649 539 678 q 490 589 490 621 z "},"=":{"ha":800,"x_min":103,"x_max":697,"o":"m 103 668 l 697 668 l 697 588 l 103 588 l 103 668 m 103 408 l 697 408 l 697 326 l 103 326 l 103 408 z "},"¥":{"ha":1033,"x_min":42,"x_max":992,"o":"m 218 474 l 397 474 l 157 911 l 42 940 l 42 1000 l 425 1000 l 425 940 l 308 911 l 543 474 l 550 474 l 789 911 l 676 940 l 676 1000 l 992 1000 l 992 940 l 878 911 l 639 474 l 813 474 l 813 393 l 594 393 l 594 283 l 813 283 l 813 201 l 594 201 l 594 89 l 725 60 l 725 0 l 325 0 l 325 60 l 456 89 l 456 201 l 218 201 l 218 283 l 456 283 l 456 369 l 442 393 l 218 393 l 218 474 z "},"$":{"ha":789,"x_min":57,"x_max":738,"o":"m 365 -14 q 235 13 293 -8 q 138 68 178 35 q 78 142 99 101 q 57 225 57 182 q 80 297 57 269 q 146 324 103 324 q 205 302 183 324 q 226 249 226 281 q 208 194 226 217 q 168 160 190 171 q 245 92 197 119 q 365 61 293 65 l 365 432 q 353 437 358 435 q 343 442 349 439 q 244 487 293 463 q 158 544 196 511 q 97 625 121 578 q 74 739 74 672 q 94 850 74 800 q 153 936 115 900 q 245 992 192 972 q 365 1015 299 1013 l 365 1182 l 431 1182 l 431 1013 q 543 984 493 1006 q 628 931 593 963 q 683 861 664 900 q 701 783 701 822 q 679 712 701 739 q 618 685 657 685 q 561 706 583 685 q 539 761 539 726 q 553 810 539 789 q 589 842 567 831 q 431 938 538 928 l 431 569 q 565 506 507 535 q 660 443 622 476 q 718 369 699 410 q 738 268 738 328 q 654 65 738 138 q 431 -14 571 -7 l 431 -181 l 365 -181 l 365 -14 m 588 215 q 576 278 588 250 q 542 329 564 307 q 492 369 521 351 q 431 403 464 388 l 431 63 q 547 111 506 72 q 588 215 588 150 m 214 774 q 223 715 214 739 q 251 670 232 690 q 298 633 269 650 q 365 599 326 617 l 365 938 q 251 888 288 931 q 214 774 214 846 z "},"Œ":{"ha":1489,"x_min":74,"x_max":1410,"o":"m 1122 331 l 1097 472 l 867 472 l 867 83 l 1286 83 l 1329 310 l 1410 310 l 1410 0 l 543 0 q 351 29 432 0 q 213 121 271 58 q 110 292 146 190 q 74 511 74 393 q 108 719 74 622 q 208 883 143 817 q 531 1000 324 1000 l 1379 1000 l 1379 706 l 1307 706 l 1263 919 l 867 919 l 867 556 l 1097 556 l 1122 697 l 1193 697 l 1193 331 l 1122 331 m 728 917 l 540 917 q 310 814 382 917 q 233 492 233 708 q 310 175 233 272 q 526 83 379 83 l 728 83 l 728 917 z "},".":{"ha":333,"x_min":79,"x_max":256,"o":"m 79 74 q 103 140 79 115 q 167 164 126 164 q 231 139 207 164 q 256 74 256 114 q 231 10 256 33 q 167 -14 207 -14 q 102 9 125 -14 q 79 74 79 32 z "},",":{"ha":343,"x_min":61,"x_max":264,"o":"m 168 164 q 238 133 213 164 q 264 49 264 101 q 222 -88 264 -26 q 92 -207 181 -150 l 61 -172 q 154 -81 121 -124 q 190 -4 188 -37 l 185 0 q 172 -9 182 -6 q 150 -12 161 -12 q 98 12 118 -12 q 78 74 78 36 q 103 139 78 114 q 168 164 128 164 z "},":":{"ha":368,"x_min":96,"x_max":272,"o":"m 96 74 q 119 140 96 115 q 183 164 143 164 q 248 139 224 164 q 272 74 272 114 q 248 10 272 33 q 183 -14 224 -14 q 119 9 142 -14 q 96 74 96 32 m 96 561 q 119 627 96 603 q 183 651 143 651 q 248 626 224 651 q 272 561 272 601 q 248 497 272 521 q 183 474 224 474 q 119 497 142 474 q 96 561 96 519 z "},";":{"ha":399,"x_min":93,"x_max":296,"o":"m 200 164 q 270 133 244 164 q 296 49 296 101 q 254 -88 296 -26 q 124 -207 213 -150 l 93 -172 q 186 -81 153 -124 q 222 -4 219 -37 l 217 0 q 203 -9 214 -6 q 182 -12 193 -12 q 130 12 150 -12 q 110 74 110 36 q 135 139 110 114 q 200 164 160 164 m 113 561 q 136 627 113 603 q 200 651 160 651 q 265 626 240 651 q 289 561 289 601 q 265 497 289 521 q 200 474 240 474 q 135 497 158 474 q 113 561 113 519 z "},"!":{"ha":396,"x_min":111,"x_max":283,"o":"m 158 285 q 156 400 158 339 q 149 518 153 461 q 142 622 146 575 q 136 694 138 669 q 125 795 132 746 q 118 903 118 844 q 138 983 118 951 q 200 1014 158 1014 q 260 981 243 1014 q 276 904 276 949 q 269 796 276 846 q 258 694 263 746 q 252 622 256 669 q 245 518 249 575 q 239 400 242 461 q 236 285 236 339 l 158 285 m 283 72 q 261 8 283 31 q 199 -14 239 -14 q 135 9 158 -14 q 111 72 111 32 q 134 136 111 113 q 197 160 157 160 q 260 136 238 160 q 283 72 283 113 z "},"¡":{"ha":368,"x_min":97,"x_max":269,"o":"m 222 465 q 225 350 222 411 q 231 232 228 289 q 238 128 235 175 q 244 56 242 81 q 256 -46 249 4 q 263 -154 263 -96 q 246 -231 263 -199 q 186 -264 229 -264 q 124 -233 144 -264 q 104 -153 104 -201 q 111 -45 104 -94 q 122 56 118 4 q 128 128 124 81 q 135 232 132 175 q 142 350 139 289 q 144 465 144 411 l 222 465 m 269 678 q 247 614 269 638 q 183 590 224 590 q 120 614 143 590 q 97 678 97 638 q 121 741 97 718 q 185 764 144 764 q 247 742 225 764 q 269 678 269 719 z "},"?":{"ha":668,"x_min":47,"x_max":626,"o":"m 253 285 q 260 361 253 326 q 283 429 267 396 q 326 497 299 463 q 396 572 354 531 q 465 665 444 621 q 486 765 486 710 q 444 894 486 849 q 324 939 403 939 q 269 933 296 939 q 224 918 243 928 q 192 897 204 908 q 181 871 181 885 q 224 828 208 856 q 240 771 240 801 q 215 707 240 732 q 149 682 189 682 q 76 716 104 682 q 47 803 47 750 q 69 886 47 847 q 131 953 92 925 q 222 999 169 982 q 336 1015 275 1015 q 453 997 400 1015 q 545 947 507 979 q 605 871 583 915 q 626 774 626 826 q 597 657 626 711 q 494 538 567 603 q 414 459 446 493 q 363 397 382 425 q 338 342 344 368 q 331 285 331 315 l 253 285 m 378 72 q 356 9 378 32 q 293 -14 333 -14 q 229 9 253 -14 q 206 72 206 32 q 228 136 206 113 q 292 160 251 160 q 355 136 332 160 q 378 72 378 113 z "},"¿":{"ha":661,"x_min":39,"x_max":618,"o":"m 413 467 q 406 390 413 425 q 383 322 399 356 q 339 255 367 289 q 269 179 311 221 q 200 86 221 131 q 179 -14 179 42 q 221 -142 179 -97 q 342 -187 263 -187 q 395 -182 369 -187 q 441 -167 421 -176 q 473 -146 461 -158 q 485 -119 485 -133 q 441 -77 457 -104 q 425 -19 425 -50 q 451 44 425 19 q 517 69 476 69 q 590 35 561 69 q 618 -51 618 1 q 596 -135 618 -96 q 535 -202 574 -174 q 443 -247 496 -231 q 329 -264 390 -264 q 212 -246 265 -264 q 120 -196 158 -228 q 60 -119 82 -164 q 39 -22 39 -75 q 69 94 39 40 q 171 214 99 149 q 251 292 219 258 q 302 355 283 326 q 328 410 321 383 q 335 467 335 436 l 413 467 m 288 679 q 310 742 288 719 q 372 765 332 765 q 436 742 413 765 q 460 679 460 719 q 437 615 460 639 q 374 592 414 592 q 310 615 333 592 q 288 679 288 639 z "},"-":{"ha":540,"x_min":96,"x_max":444,"o":"m 96 432 l 444 432 l 444 339 l 96 339 l 96 432 z "},"–":{"ha":858,"x_min":86,"x_max":772,"o":"m 86 426 l 772 426 l 772 346 l 86 346 l 86 426 z "},"—":{"ha":1288,"x_min":88,"x_max":1200,"o":"m 88 426 l 1200 426 l 1200 346 l 88 346 l 88 426 z "},"_":{"ha":878,"x_min":96,"x_max":782,"o":"m 96 0 l 782 0 l 782 -81 l 96 -81 l 96 0 z "},"|":{"ha":340,"x_min":131,"x_max":210,"o":"m 131 1069 l 210 1069 l 210 -236 l 131 -236 l 131 1069 z "},"˙":{"ha":257,"x_min":42,"x_max":215,"o":"m 42 974 q 65 1038 42 1014 q 128 1061 88 1061 q 192 1038 168 1061 q 215 974 215 1014 q 192 910 215 933 q 128 888 168 888 q 65 910 88 888 q 42 974 42 933 z "},"¨":{"ha":565,"x_min":42,"x_max":524,"o":"m 42 979 q 63 1040 42 1018 q 122 1061 85 1061 q 182 1039 160 1061 q 204 979 204 1017 q 183 920 204 942 q 122 899 161 899 q 63 920 85 899 q 42 979 42 942 m 361 979 q 383 1040 361 1018 q 442 1061 404 1061 q 501 1039 479 1061 q 524 979 524 1017 q 502 920 524 942 q 442 899 481 899 q 383 920 404 899 q 361 979 361 942 z "},"(":{"ha":515,"x_min":61,"x_max":500,"o":"m 61 490 q 90 747 61 628 q 174 960 119 867 q 303 1115 228 1053 q 471 1201 379 1178 l 500 1133 q 378 1064 433 1118 q 283 925 322 1010 q 223 728 244 840 q 201 488 201 617 q 222 246 201 356 q 281 53 243 136 q 374 -80 319 -29 q 493 -144 428 -131 l 457 -221 q 297 -144 369 -203 q 172 8 225 -85 q 90 223 119 100 q 61 490 61 346 z "},")":{"ha":515,"x_min":15,"x_max":454,"o":"m 454 490 q 425 223 454 346 q 343 8 396 100 q 218 -144 290 -85 q 58 -221 146 -203 l 22 -144 q 142 -80 88 -131 q 234 53 196 -29 q 293 246 272 136 q 314 488 314 356 q 292 728 314 617 q 232 925 271 840 q 138 1064 193 1010 q 15 1133 82 1118 l 44 1201 q 212 1115 136 1178 q 342 960 288 1053 q 425 747 396 867 q 454 490 454 628 z "},"[":{"ha":511,"x_min":129,"x_max":478,"o":"m 129 1188 l 478 1188 l 478 1104 l 253 1104 l 253 -124 l 478 -124 l 478 -207 l 129 -207 l 129 1188 z "},"]":{"ha":511,"x_min":33,"x_max":382,"o":"m 382 -207 l 33 -207 l 33 -124 l 258 -124 l 258 1104 l 33 1104 l 33 1188 l 382 1188 l 382 -207 z "},"¦":{"ha":346,"x_min":133,"x_max":213,"o":"m 133 344 l 213 344 l 213 -236 l 133 -236 l 133 344 m 133 1069 l 213 1069 l 213 511 l 133 511 l 133 1069 z "},"¬":{"ha":800,"x_min":103,"x_max":692,"o":"m 103 553 l 692 553 l 692 263 l 608 263 l 608 456 l 103 456 l 103 553 z "},"Ə":{"ha":969,"x_min":64,"x_max":896,"o":"m 736 511 q 723 658 736 588 q 686 783 710 729 q 590 901 650 864 q 435 939 529 939 q 270 902 340 939 q 147 788 200 865 l 101 828 q 249 970 169 926 q 446 1014 329 1014 q 678 960 581 1014 q 831 801 775 907 q 879 664 863 739 q 896 503 896 589 q 865 289 896 385 q 776 126 833 193 q 636 22 718 58 q 453 -14 554 -14 q 289 16 361 -14 q 167 102 217 46 q 90 240 117 158 q 64 425 64 322 q 65 462 64 444 q 69 511 67 479 l 736 511 m 465 61 q 653 153 583 61 q 735 421 722 244 l 222 421 l 222 361 q 288 142 222 222 q 465 61 353 61 z "},"€":{"ha":1010,"x_min":60,"x_max":939,"o":"m 60 643 l 208 643 q 336 919 238 825 q 599 1014 435 1014 q 733 997 671 1014 q 840 948 794 979 q 913 875 886 917 q 939 785 939 833 q 917 712 939 739 q 856 685 894 685 q 798 706 819 685 q 776 761 776 728 q 790 809 776 788 q 826 842 803 831 q 740 912 799 886 q 613 938 682 938 q 357 643 394 938 l 626 643 l 626 560 l 350 560 q 349 528 349 544 q 349 496 349 513 q 349 460 349 478 q 350 428 349 443 l 626 428 l 626 343 l 358 343 q 440 144 378 207 q 610 81 501 81 q 778 134 714 81 q 857 285 843 188 l 933 285 q 822 59 906 132 q 590 -14 738 -14 q 207 343 260 -14 l 60 343 l 60 428 l 199 428 q 197 458 197 443 q 197 488 197 472 q 197 524 197 507 q 199 560 197 542 l 60 560 l 60 643 z "},"{":{"ha":561,"x_min":8,"x_max":528,"o":"m 8 536 l 56 536 q 167 573 132 536 q 201 692 201 610 q 200 743 201 711 q 197 809 199 775 q 193 875 194 843 q 192 926 192 907 q 272 1116 192 1053 q 528 1188 353 1179 l 528 1104 q 369 1060 415 1097 q 322 943 322 1024 q 323 903 322 931 q 325 844 324 875 q 327 782 326 813 q 328 735 328 751 q 292 585 328 639 q 176 503 257 531 l 176 496 q 292 422 257 476 q 328 257 328 367 q 327 206 328 238 q 325 140 326 174 q 323 78 324 107 q 322 36 322 49 q 369 -83 322 -46 q 528 -125 417 -119 l 528 -208 q 272 -137 353 -200 q 192 54 192 -75 q 193 107 192 74 q 197 176 194 140 q 200 244 199 211 q 201 297 201 278 q 167 417 201 381 q 56 454 133 454 l 8 454 l 8 536 z "},"}":{"ha":561,"x_min":33,"x_max":553,"o":"m 553 454 l 506 454 q 394 417 428 454 q 360 297 360 381 q 361 244 360 278 q 365 176 363 211 q 368 107 367 140 q 369 54 369 74 q 289 -137 369 -75 q 33 -208 208 -200 l 33 -125 q 192 -83 144 -119 q 239 36 239 -46 q 238 78 239 49 q 236 140 238 107 q 234 206 235 174 q 233 257 233 238 q 242 353 233 313 q 268 422 250 393 q 315 469 286 451 q 385 496 344 486 l 385 503 q 269 585 304 531 q 233 735 233 639 q 234 782 233 751 q 236 844 235 813 q 238 903 238 875 q 239 943 239 931 q 192 1060 239 1024 q 33 1104 146 1097 l 33 1188 q 289 1116 208 1179 q 369 926 369 1053 q 368 875 369 907 q 365 809 367 843 q 361 743 363 775 q 360 692 360 711 q 394 573 360 610 q 506 536 429 536 l 553 536 l 553 454 z "},"ı":{"ha":433,"x_min":50,"x_max":399,"o":"m 50 693 l 50 750 l 292 750 l 292 83 l 399 57 l 399 0 l 50 0 l 50 57 l 157 83 l 157 667 l 50 693 z "},"ȷ":{"ha":394,"x_min":-115,"x_max":279,"o":"m 279 118 q 272 -44 279 15 q 249 -140 265 -103 q 172 -232 222 -200 q 56 -264 122 -264 q -67 -227 -19 -264 q -115 -132 -115 -190 q -95 -74 -115 -96 q -42 -53 -75 -53 q 26 -129 26 -53 q 4 -192 26 -169 q 22 -207 7 -201 q 58 -212 36 -212 q 126 -174 107 -212 q 144 -33 144 -135 l 144 667 l 38 693 l 38 750 l 279 750 l 279 118 z "},"·":{"ha":361,"x_min":93,"x_max":269,"o":"m 93 414 q 117 480 93 456 q 181 504 140 504 q 245 479 221 504 q 269 414 269 454 q 245 350 269 374 q 181 326 221 326 q 116 349 139 326 q 93 414 93 372 z "},"∙":{"ha":361,"x_min":93,"x_max":269,"o":"m 93 414 q 117 480 93 456 q 181 504 140 504 q 245 479 221 504 q 269 414 269 454 q 245 350 269 374 q 181 326 221 326 q 116 349 139 326 q 93 414 93 372 z "},"‚":{"ha":343,"x_min":61,"x_max":264,"o":"m 168 164 q 238 133 213 164 q 264 49 264 101 q 222 -88 264 -26 q 92 -207 181 -150 l 61 -172 q 154 -81 121 -124 q 190 -4 188 -37 l 185 0 q 172 -9 182 -6 q 150 -12 161 -12 q 98 12 118 -12 q 78 74 78 36 q 103 139 78 114 q 168 164 128 164 z "},"„":{"ha":621,"x_min":61,"x_max":542,"o":"m 168 164 q 238 133 213 164 q 264 49 264 101 q 222 -88 264 -26 q 92 -207 181 -150 l 61 -172 q 154 -81 121 -124 q 190 -4 188 -37 l 185 0 q 172 -9 182 -6 q 150 -12 161 -12 q 98 12 118 -12 q 78 74 78 36 q 103 139 78 114 q 168 164 128 164 m 446 164 q 516 133 490 164 q 542 49 542 101 q 500 -88 542 -26 q 369 -207 458 -150 l 339 -172 q 432 -81 399 -124 q 468 -4 465 -37 l 463 0 q 449 -9 460 -6 q 428 -12 439 -12 q 376 12 396 -12 q 356 74 356 36 q 381 139 356 114 q 446 164 406 164 z "},"”":{"ha":611,"x_min":72,"x_max":553,"o":"m 179 1056 q 249 1024 224 1056 q 275 940 275 993 q 233 803 275 865 q 103 685 192 742 l 72 719 q 165 811 132 768 q 201 888 199 854 l 196 892 q 183 883 193 886 q 161 879 172 879 q 109 903 129 879 q 89 965 89 928 q 114 1031 89 1006 q 179 1056 139 1056 m 457 1056 q 527 1024 501 1056 q 553 940 553 993 q 511 803 553 865 q 381 685 469 742 l 350 719 q 443 811 410 768 q 479 888 476 854 l 474 892 q 460 883 471 886 q 439 879 450 879 q 387 903 407 879 q 367 965 367 928 q 392 1031 367 1006 q 457 1056 417 1056 z "},"“":{"ha":614,"x_min":67,"x_max":547,"o":"m 440 685 q 370 716 396 685 q 344 800 344 747 q 386 937 344 875 q 517 1056 428 999 l 547 1021 q 454 929 488 972 q 418 853 421 886 l 424 849 q 437 858 426 854 q 458 861 447 861 q 510 837 490 861 q 531 775 531 813 q 506 710 531 735 q 440 685 481 685 m 163 685 q 92 716 118 685 q 67 800 67 747 q 108 937 67 875 q 239 1056 150 999 l 269 1021 q 176 929 210 972 q 140 853 143 886 l 146 849 q 159 858 149 854 q 181 861 169 861 q 233 837 213 861 q 253 775 253 813 q 228 710 253 735 q 163 685 203 685 z "},"‘":{"ha":336,"x_min":67,"x_max":269,"o":"m 163 685 q 92 716 118 685 q 67 800 67 747 q 108 937 67 875 q 239 1056 150 999 l 269 1021 q 176 929 210 972 q 140 853 143 886 l 146 849 q 159 858 149 854 q 181 861 169 861 q 233 837 213 861 q 253 775 253 813 q 228 710 253 735 q 163 685 203 685 z "},"’":{"ha":333,"x_min":72,"x_max":275,"o":"m 179 1056 q 249 1024 224 1056 q 275 940 275 993 q 233 803 275 865 q 103 685 192 742 l 72 719 q 165 811 132 768 q 201 888 199 854 l 196 892 q 183 883 193 886 q 161 879 172 879 q 109 903 129 879 q 89 965 89 928 q 114 1031 89 1006 q 179 1056 139 1056 z "},"−":{"ha":758,"x_min":103,"x_max":656,"o":"m 103 550 l 656 550 l 656 456 l 103 456 l 103 550 z "},"+":{"ha":678,"x_min":63,"x_max":615,"o":"m 63 550 l 292 550 l 292 779 l 386 779 l 386 550 l 615 550 l 615 456 l 386 456 l 386 226 l 292 226 l 292 456 l 63 456 l 63 550 z "},"±":{"ha":725,"x_min":100,"x_max":625,"o":"m 100 590 l 322 590 l 322 806 l 403 806 l 403 590 l 625 590 l 625 510 l 403 510 l 403 294 l 322 294 l 322 510 l 100 510 l 100 590 m 100 174 l 625 174 l 625 93 l 100 93 l 100 174 z "},"÷":{"ha":771,"x_min":82,"x_max":690,"o":"m 82 526 l 690 526 l 690 451 l 82 451 l 82 526 m 308 242 q 330 304 308 282 q 390 326 351 326 q 451 303 429 326 q 474 242 474 281 q 451 181 474 203 q 390 160 429 160 q 308 242 308 160 m 308 733 q 330 796 308 774 q 390 818 351 818 q 451 795 429 818 q 474 733 474 772 q 451 673 474 694 q 390 651 429 651 q 308 733 308 651 z "},"×":{"ha":703,"x_min":83,"x_max":619,"o":"m 150 757 l 351 556 l 553 757 l 619 690 l 418 489 l 619 288 l 553 221 l 351 422 l 150 221 l 83 288 l 285 489 l 83 690 l 150 757 z "},"¶":{"ha":942,"x_min":43,"x_max":886,"o":"m 672 842 l 575 842 l 575 -133 l 478 -133 l 478 282 l 386 282 q 130 363 217 282 q 43 600 43 443 q 131 845 43 760 q 385 931 219 931 l 886 931 l 886 871 l 769 842 l 769 -133 l 672 -133 l 672 842 z "}," ":{"ha":353,"x_min":0,"x_max":0,"o":""},"a":{"ha":746,"x_min":53,"x_max":740,"o":"m 53 163 q 77 258 53 217 q 154 333 101 300 q 290 389 207 365 q 490 431 374 413 q 474 558 483 513 q 450 632 465 604 q 396 685 431 668 q 321 703 361 703 q 251 689 282 703 q 208 651 219 675 q 237 615 228 636 q 246 574 246 593 q 223 519 246 539 q 167 499 200 499 q 112 521 133 499 q 90 583 90 543 q 114 660 90 626 q 176 717 138 694 q 262 752 214 740 q 357 764 310 764 q 543 696 475 764 q 629 390 629 610 l 629 189 q 638 94 629 119 q 678 68 647 68 l 740 68 l 740 26 q 585 -14 640 -14 q 550 -7 564 -14 q 528 17 536 0 q 516 64 519 35 q 513 138 513 93 l 507 138 q 393 26 464 67 q 240 -14 322 -14 q 103 33 153 -14 q 53 163 53 79 m 299 67 q 380 87 338 67 q 451 143 422 107 q 494 299 494 196 q 493 345 494 322 q 489 389 492 368 q 348 354 404 372 q 258 313 292 336 q 210 260 224 290 q 196 192 196 231 q 223 99 196 132 q 299 67 250 67 z "},"æ":{"ha":1161,"x_min":53,"x_max":1100,"o":"m 53 163 q 77 258 53 217 q 154 333 101 300 q 290 389 207 365 q 490 431 374 413 q 474 558 483 513 q 450 632 465 604 q 396 685 431 668 q 321 703 361 703 q 251 689 282 703 q 208 651 219 675 q 237 615 228 636 q 246 574 246 593 q 223 519 246 539 q 167 499 200 499 q 112 521 133 499 q 90 583 90 543 q 114 660 90 626 q 176 717 138 694 q 262 752 214 740 q 357 764 310 764 q 424 755 392 764 q 484 728 457 746 q 532 684 511 711 q 563 621 553 657 l 569 621 q 661 728 597 692 q 804 764 725 764 q 1024 676 947 764 q 1100 432 1100 588 q 1099 406 1100 418 q 1096 367 1099 394 l 611 367 q 639 199 611 265 q 717 106 667 133 q 829 79 768 79 q 949 106 896 79 q 1046 181 1003 133 l 1090 147 q 1037 85 1065 114 q 972 33 1008 56 q 892 -1 936 11 q 793 -14 847 -14 q 628 24 700 -14 q 517 138 557 63 l 507 138 q 393 26 464 67 q 240 -14 322 -14 q 103 33 153 -14 q 53 163 53 79 m 796 689 q 613 435 629 689 l 960 435 l 960 481 q 917 635 960 581 q 796 689 875 689 m 299 67 q 380 87 338 67 q 451 143 422 107 q 494 299 494 196 q 493 345 494 322 q 489 389 492 368 q 348 354 404 372 q 258 313 292 336 q 210 260 224 290 q 196 192 196 231 q 223 99 196 132 q 299 67 250 67 z "},"‹":{"ha":450,"x_min":57,"x_max":381,"o":"m 381 75 l 333 29 l 57 328 l 57 375 l 333 674 l 379 636 l 196 354 l 381 75 z "},"›":{"ha":450,"x_min":69,"x_max":393,"o":"m 254 354 l 71 636 l 117 674 l 393 375 l 393 328 l 117 29 l 69 75 l 254 354 z "},"«":{"ha":743,"x_min":57,"x_max":674,"o":"m 381 75 l 333 29 l 57 328 l 57 375 l 333 674 l 379 636 l 196 354 l 381 75 m 674 75 l 626 29 l 350 328 l 350 375 l 626 674 l 672 636 l 489 354 l 674 75 z "},"»":{"ha":743,"x_min":69,"x_max":686,"o":"m 547 354 l 364 636 l 410 674 l 686 375 l 686 328 l 410 29 l 363 75 l 547 354 m 254 354 l 71 636 l 117 674 l 393 375 l 393 328 l 117 29 l 69 75 l 254 354 z "},"#":{"ha":1022,"x_min":49,"x_max":974,"o":"m 611 281 l 329 281 l 271 -14 l 192 -14 l 250 281 l 49 281 l 49 354 l 264 354 l 321 640 l 117 640 l 117 714 l 335 714 l 394 1014 l 474 1014 l 414 714 l 696 714 l 756 1014 l 835 1014 l 775 714 l 974 714 l 974 640 l 761 640 l 704 354 l 906 354 l 906 281 l 690 281 l 632 -14 l 553 -14 l 611 281 m 343 354 l 625 354 l 682 640 l 400 640 l 343 354 z "},"*":{"ha":653,"x_min":71,"x_max":582,"o":"m 381 1032 q 369 953 381 999 q 350 867 357 907 q 399 894 374 879 q 447 922 424 908 q 490 943 469 935 q 528 951 511 951 q 564 939 546 951 q 582 894 582 926 q 561 853 582 865 q 508 836 540 840 q 437 831 475 832 q 364 825 399 831 q 411 781 386 803 q 458 738 436 758 q 493 696 479 717 q 507 657 507 675 q 490 622 507 639 q 451 606 474 606 q 411 624 428 606 q 381 672 394 643 q 354 734 367 700 q 326 797 342 768 q 299 731 311 765 q 272 669 286 697 q 242 623 258 642 q 203 604 226 604 q 165 620 182 604 q 147 656 147 636 q 160 692 147 672 q 194 735 174 713 q 240 779 215 757 q 288 825 264 801 q 215 831 253 831 q 144 836 176 832 q 92 852 113 840 q 71 892 71 864 q 88 937 71 924 q 124 950 104 950 q 158 942 138 950 q 203 921 179 933 q 252 894 228 908 q 300 868 276 879 q 281 955 293 911 q 269 1032 269 999 q 283 1079 269 1061 q 325 1097 297 1097 q 367 1080 353 1097 q 381 1032 381 1063 z "},"•":{"ha":556,"x_min":114,"x_max":443,"o":"m 114 476 q 158 600 114 556 q 278 644 201 644 q 399 599 354 644 q 443 476 443 553 q 399 357 443 400 q 278 314 354 314 q 156 356 199 314 q 114 476 114 397 z "},"†":{"ha":606,"x_min":43,"x_max":563,"o":"m 271 729 q 235 726 256 729 q 191 717 214 722 q 147 709 168 713 q 108 706 125 706 q 60 718 78 706 q 43 754 43 731 q 61 791 43 779 q 108 803 79 803 q 147 799 125 803 q 191 791 168 796 q 235 783 214 786 q 271 779 256 779 l 278 786 q 273 842 278 807 q 263 914 268 878 q 252 983 257 950 q 247 1032 247 1015 q 261 1079 247 1061 q 303 1097 275 1097 q 344 1080 331 1097 q 358 1032 358 1063 q 353 983 358 1015 q 343 914 349 950 q 333 842 338 878 q 328 786 328 807 l 335 779 q 369 783 349 779 q 413 791 390 786 q 458 799 436 796 q 497 803 481 803 q 544 791 526 803 q 563 754 563 779 q 545 718 563 731 q 497 706 528 706 q 458 709 481 706 q 413 717 436 713 q 369 726 390 722 q 335 729 349 729 l 328 722 l 328 393 q 333 235 328 304 q 343 113 338 165 q 353 26 349 61 q 358 -32 358 -10 q 344 -80 358 -62 q 303 -97 331 -97 q 261 -79 275 -97 q 247 -32 247 -61 q 252 26 247 -10 q 263 113 257 61 q 273 235 268 165 q 278 393 278 304 l 278 722 l 271 729 z "},"‡":{"ha":639,"x_min":60,"x_max":579,"o":"m 344 515 q 346 397 344 456 q 351 278 347 338 l 358 271 q 392 274 372 271 q 434 283 413 278 q 476 291 456 288 q 514 294 497 294 q 562 282 544 294 q 579 246 579 269 q 561 209 579 221 q 514 197 543 197 q 475 201 497 197 q 430 209 453 204 q 386 217 407 214 q 351 221 365 221 l 344 214 q 349 158 344 193 q 360 86 354 122 q 370 17 365 50 q 375 -32 375 -15 q 361 -80 375 -62 q 319 -97 347 -97 q 278 -79 292 -97 q 264 -32 264 -61 q 269 17 264 -15 q 279 86 274 50 q 290 158 285 122 q 294 214 294 193 l 288 221 q 251 217 272 221 q 208 209 231 214 q 163 201 185 204 q 125 197 142 197 q 78 209 96 197 q 60 246 60 221 q 77 282 60 269 q 125 294 94 294 q 162 291 142 294 q 203 283 182 288 q 245 274 225 278 q 281 271 265 271 l 288 278 q 293 397 292 338 q 294 515 294 456 q 293 619 294 568 q 288 722 292 669 l 281 729 q 245 726 265 729 q 203 717 225 722 q 162 709 182 713 q 125 706 142 706 q 77 718 94 706 q 60 754 60 731 q 78 791 60 779 q 125 803 96 803 q 163 799 142 803 q 208 791 185 796 q 251 783 231 786 q 288 779 272 779 l 294 786 q 290 842 294 807 q 279 914 285 878 q 269 983 274 950 q 264 1032 264 1015 q 278 1079 264 1061 q 319 1097 292 1097 q 361 1080 347 1097 q 375 1032 375 1063 q 370 983 375 1015 q 360 914 365 950 q 349 842 354 878 q 344 786 344 807 l 351 779 q 386 783 365 779 q 430 791 407 786 q 475 799 453 796 q 514 803 497 803 q 561 791 543 803 q 579 754 579 779 q 562 718 579 731 q 514 706 544 706 q 476 709 497 706 q 434 717 456 713 q 392 726 413 722 q 358 729 372 729 l 351 722 q 346 619 347 669 q 344 515 344 568 z "},"´":{"ha":360,"x_min":56,"x_max":304,"o":"m 124 993 q 188 1080 164 1056 q 242 1104 213 1104 q 288 1092 271 1104 q 304 1056 304 1081 q 276 1005 304 1035 q 182 926 249 975 l 129 888 l 56 888 l 124 993 z "},"`":{"ha":360,"x_min":56,"x_max":304,"o":"m 304 888 l 231 888 l 178 926 q 83 1005 111 975 q 56 1056 56 1035 q 72 1092 56 1081 q 118 1104 89 1104 q 172 1080 147 1104 q 236 993 196 1056 l 304 888 z "},"˝":{"ha":590,"x_min":56,"x_max":535,"o":"m 124 993 q 188 1080 164 1056 q 242 1104 213 1104 q 288 1092 271 1104 q 304 1056 304 1081 q 276 1005 304 1035 q 182 926 249 975 l 129 888 l 56 888 l 124 993 m 354 993 q 419 1080 394 1056 q 472 1104 443 1104 q 518 1092 501 1104 q 535 1056 535 1081 q 507 1005 535 1035 q 413 926 479 975 l 360 888 l 286 888 l 354 993 z "},"˜":{"ha":553,"x_min":21,"x_max":532,"o":"m 21 888 q 176 1047 43 1047 q 238 1035 211 1047 q 286 1009 264 1024 q 330 983 308 994 q 379 971 351 971 q 442 989 421 971 q 469 1040 463 1007 l 532 1040 q 376 872 507 872 q 316 884 342 872 q 267 910 290 896 q 222 938 244 925 q 174 950 200 950 q 111 933 132 950 q 83 888 90 917 l 21 888 z "},"~":{"ha":674,"x_min":106,"x_max":575,"o":"m 106 422 q 240 582 126 582 q 301 570 275 582 q 349 544 328 558 q 392 517 371 529 q 438 506 413 506 q 513 575 497 506 l 575 575 q 440 407 553 407 q 380 419 406 407 q 332 445 354 431 q 289 472 310 460 q 243 485 268 485 q 194 468 214 485 q 168 422 175 451 l 106 422 z "},"ċ":{"ha":744,"x_min":64,"x_max":692,"o":"m 419 764 q 612 705 540 764 q 683 547 683 646 q 597 440 683 440 q 535 463 557 440 q 513 522 513 485 q 531 582 513 557 q 582 617 550 607 q 428 693 542 693 q 262 619 314 693 q 210 388 210 546 q 246 186 210 256 q 428 79 301 79 q 550 107 492 79 q 650 186 608 135 l 692 153 q 564 26 636 67 q 394 -14 492 -14 q 226 26 297 -14 q 114 142 154 65 q 77 244 90 186 q 64 367 64 301 q 89 530 64 457 q 160 655 114 603 q 273 735 207 707 q 419 764 339 764 m 333 974 q 356 1038 333 1014 q 419 1061 379 1061 q 483 1038 460 1061 q 507 974 507 1014 q 483 910 507 933 q 419 888 460 888 q 356 910 379 888 q 333 974 333 933 z "},"ė":{"ha":756,"x_min":65,"x_max":694,"o":"m 206 367 q 233 199 206 265 q 312 106 261 133 q 424 79 363 79 q 544 106 490 79 q 640 181 597 133 l 685 147 q 631 85 660 114 q 567 33 603 56 q 486 -1 531 11 q 388 -14 442 -14 q 218 27 292 -14 q 106 147 144 68 q 75 242 85 190 q 65 356 65 294 q 154 658 65 551 q 399 764 243 764 q 618 676 542 764 q 694 432 694 588 q 694 406 694 418 q 690 367 693 394 l 206 367 m 390 689 q 207 435 224 689 l 554 435 l 554 481 q 512 635 554 581 q 390 689 469 689 m 310 974 q 333 1038 310 1014 q 396 1061 356 1061 q 460 1038 436 1061 q 483 974 483 1014 q 460 910 483 933 q 396 888 436 888 q 333 910 356 888 q 310 974 310 933 z "},"ṅ":{"ha":910,"x_min":50,"x_max":879,"o":"m 157 667 l 50 693 l 50 750 l 250 750 l 281 611 l 286 611 q 398 723 328 682 q 550 764 468 764 q 650 744 606 764 q 721 689 694 725 q 760 580 749 650 q 772 390 772 510 l 772 83 l 879 57 l 879 0 l 544 0 l 544 57 l 638 83 l 638 393 q 633 527 638 482 q 615 597 628 572 q 493 665 581 665 q 418 651 454 665 q 354 614 382 638 q 309 549 324 586 q 292 454 294 513 l 292 83 l 385 57 l 385 0 l 50 0 l 50 57 l 157 83 l 157 667 m 371 974 q 394 1038 371 1014 q 457 1061 417 1061 q 521 1038 497 1061 q 544 974 544 1014 q 521 910 544 933 q 457 888 497 888 q 394 910 417 888 q 371 974 371 933 z "},"ż":{"ha":747,"x_min":61,"x_max":676,"o":"m 597 267 l 676 267 l 676 0 l 61 0 l 61 78 l 517 672 l 192 672 l 158 490 l 79 490 l 79 750 l 671 750 l 671 672 l 215 78 l 569 78 l 597 267 m 289 974 q 312 1038 289 1014 q 375 1061 335 1061 q 439 1038 415 1061 q 463 974 463 1014 q 439 910 463 933 q 375 888 415 888 q 312 910 335 888 q 289 974 289 933 z "},"ġ":{"ha":778,"x_min":42,"x_max":768,"o":"m 704 -14 q 681 -111 704 -67 q 615 -187 658 -156 q 508 -237 571 -219 q 365 -256 444 -256 q 124 -210 206 -256 q 42 -82 42 -165 q 81 18 42 -17 q 188 64 119 53 l 188 69 q 96 178 96 96 q 127 258 96 221 q 225 318 158 294 q 119 396 156 343 q 82 525 82 449 q 102 624 82 581 q 159 699 122 668 q 248 747 196 731 q 365 764 300 764 q 569 700 494 764 l 617 717 l 744 778 l 768 778 l 768 656 l 744 656 l 647 667 l 600 667 q 640 533 640 611 q 565 360 640 424 q 356 297 490 297 q 327 298 340 297 q 300 300 314 299 q 190 218 190 283 q 215 174 190 186 q 313 163 240 163 l 474 163 q 646 120 588 163 q 704 -14 704 78 m 322 56 q 188 24 229 56 q 146 -60 146 -8 q 363 -186 146 -186 q 542 -151 481 -186 q 604 -44 604 -115 q 562 33 604 11 q 413 56 519 56 l 322 56 m 204 531 q 242 404 204 447 q 361 361 279 361 q 481 404 443 361 q 518 531 518 447 q 481 657 518 614 q 361 700 443 700 q 242 657 279 700 q 204 531 204 614 m 276 974 q 299 1038 276 1014 q 363 1061 322 1061 q 426 1038 403 1061 q 450 974 450 1014 q 426 910 450 933 q 363 888 403 888 q 299 910 322 888 q 276 974 276 933 z "},"ä":{"ha":746,"x_min":53,"x_max":740,"o":"m 53 163 q 77 258 53 217 q 154 333 101 300 q 290 389 207 365 q 490 431 374 413 q 474 558 483 513 q 450 632 465 604 q 396 685 431 668 q 321 703 361 703 q 251 689 282 703 q 208 651 219 675 q 237 615 228 636 q 246 574 246 593 q 223 519 246 539 q 167 499 200 499 q 112 521 133 499 q 90 583 90 543 q 114 660 90 626 q 176 717 138 694 q 262 752 214 740 q 357 764 310 764 q 543 696 475 764 q 629 390 629 610 l 629 189 q 638 94 629 119 q 678 68 647 68 l 740 68 l 740 26 q 585 -14 640 -14 q 550 -7 564 -14 q 528 17 536 0 q 516 64 519 35 q 513 138 513 93 l 507 138 q 393 26 464 67 q 240 -14 322 -14 q 103 33 153 -14 q 53 163 53 79 m 299 67 q 380 87 338 67 q 451 143 422 107 q 494 299 494 196 q 493 345 494 322 q 489 389 492 368 q 348 354 404 372 q 258 313 292 336 q 210 260 224 290 q 196 192 196 231 q 223 99 196 132 q 299 67 250 67 m 126 979 q 148 1040 126 1018 q 207 1061 169 1061 q 267 1039 244 1061 q 289 979 289 1017 q 267 920 289 942 q 207 899 246 899 q 148 920 169 899 q 126 979 126 942 m 446 979 q 467 1040 446 1018 q 526 1061 489 1061 q 586 1039 564 1061 q 608 979 608 1017 q 587 920 608 942 q 526 899 565 899 q 467 920 489 899 q 446 979 446 942 z "},"ë":{"ha":756,"x_min":65,"x_max":694,"o":"m 206 367 q 233 199 206 265 q 312 106 261 133 q 424 79 363 79 q 544 106 490 79 q 640 181 597 133 l 685 147 q 631 85 660 114 q 567 33 603 56 q 486 -1 531 11 q 388 -14 442 -14 q 218 27 292 -14 q 106 147 144 68 q 75 242 85 190 q 65 356 65 294 q 154 658 65 551 q 399 764 243 764 q 618 676 542 764 q 694 432 694 588 q 694 406 694 418 q 690 367 693 394 l 206 367 m 390 689 q 207 435 224 689 l 554 435 l 554 481 q 512 635 554 581 q 390 689 469 689 m 158 979 q 180 1040 158 1018 q 239 1061 201 1061 q 299 1039 276 1061 q 321 979 321 1017 q 299 920 321 942 q 239 899 278 899 q 180 920 201 899 q 158 979 158 942 m 478 979 q 499 1040 478 1018 q 558 1061 521 1061 q 618 1039 596 1061 q 640 979 640 1017 q 619 920 640 942 q 558 899 597 899 q 499 920 521 899 q 478 979 478 942 z "},"ö":{"ha":808,"x_min":64,"x_max":744,"o":"m 744 382 q 717 210 744 290 q 642 76 690 129 q 400 -14 560 -14 q 163 74 244 -14 q 90 201 115 125 q 64 365 64 276 q 90 539 64 457 q 167 674 117 621 q 269 742 211 721 q 406 764 328 764 q 543 742 482 764 q 646 676 604 721 q 719 548 694 625 q 744 382 744 471 m 213 381 q 263 132 213 214 q 319 77 286 96 q 404 58 351 58 q 547 124 500 58 q 584 224 572 160 q 596 371 596 288 q 546 618 596 536 q 489 673 522 654 q 403 692 456 692 q 263 628 306 692 q 213 381 213 550 m 164 979 q 185 1040 164 1018 q 244 1061 207 1061 q 304 1039 282 1061 q 326 979 326 1017 q 305 920 326 942 q 244 899 283 899 q 185 920 207 899 q 164 979 164 942 m 483 979 q 505 1040 483 1018 q 564 1061 526 1061 q 624 1039 601 1061 q 646 979 646 1017 q 624 920 646 942 q 564 899 603 899 q 505 920 526 899 q 483 979 483 942 z "},"ü":{"ha":879,"x_min":40,"x_max":844,"o":"m 268 357 q 269 279 268 313 q 273 222 271 246 q 279 182 275 199 q 290 153 283 165 q 407 85 322 85 q 479 99 444 85 q 540 136 514 113 q 585 201 571 164 q 603 296 600 238 l 603 667 l 482 693 l 482 750 l 738 750 l 738 83 l 844 57 l 844 0 l 629 -14 l 614 139 l 608 139 q 499 27 568 68 q 350 -14 429 -14 q 253 6 297 -14 q 185 61 210 25 q 145 170 157 100 q 133 360 133 240 l 133 667 l 40 693 l 40 750 l 268 750 l 268 357 m 192 979 q 213 1040 192 1018 q 272 1061 235 1061 q 332 1039 310 1061 q 354 979 354 1017 q 333 920 354 942 q 272 899 311 899 q 213 920 235 899 q 192 979 192 942 m 511 979 q 533 1040 511 1018 q 592 1061 554 1061 q 651 1039 629 1061 q 674 979 674 1017 q 652 920 674 942 q 592 899 631 899 q 533 920 554 899 q 511 979 511 942 z "},"ẅ":{"ha":1218,"x_min":18,"x_max":1199,"o":"m 376 167 l 393 85 l 400 85 l 417 167 l 579 764 l 679 764 l 847 167 l 864 85 l 869 85 l 886 167 l 1025 667 l 935 693 l 935 750 l 1199 750 l 1199 693 l 1124 667 l 917 -14 l 774 -14 l 608 528 l 447 -14 l 304 -14 l 92 667 l 18 693 l 18 750 l 329 750 l 329 693 l 233 667 l 376 167 m 389 979 q 410 1040 389 1018 q 469 1061 432 1061 q 529 1039 507 1061 q 551 979 551 1017 q 530 920 551 942 q 469 899 508 899 q 410 920 432 899 q 389 979 389 942 m 708 979 q 730 1040 708 1018 q 789 1061 751 1061 q 849 1039 826 1061 q 871 979 871 1017 q 849 920 871 942 q 789 899 828 899 q 730 920 751 899 q 708 979 708 942 z "},"ÿ":{"ha":819,"x_min":4,"x_max":799,"o":"m 483 33 q 430 -104 454 -47 q 379 -197 406 -161 q 320 -248 353 -232 q 242 -264 288 -264 q 180 -255 208 -264 q 130 -229 151 -246 q 96 -190 108 -212 q 83 -142 83 -168 q 106 -77 83 -103 q 164 -51 128 -51 q 215 -69 196 -51 q 233 -117 233 -86 q 226 -154 233 -136 q 206 -186 218 -172 q 222 -206 208 -201 q 246 -210 235 -210 q 273 -206 260 -210 q 299 -185 286 -201 q 327 -140 313 -169 q 358 -61 342 -111 l 375 -10 l 88 667 l 4 693 l 4 750 l 315 750 l 326 693 l 228 667 l 435 122 l 440 122 l 615 667 l 535 693 l 535 750 l 799 750 l 799 693 l 714 667 l 483 33 m 194 979 q 216 1040 194 1018 q 275 1061 238 1061 q 335 1039 313 1061 q 357 979 357 1017 q 335 920 357 942 q 275 899 314 899 q 216 920 238 899 q 194 979 194 942 m 514 979 q 535 1040 514 1018 q 594 1061 557 1061 q 654 1039 632 1061 q 676 979 676 1017 q 655 920 676 942 q 594 899 633 899 q 535 920 557 899 q 514 979 514 942 z "},"ï":{"ha":433,"x_min":-17,"x_max":465,"o":"m 50 693 l 50 750 l 292 750 l 292 83 l 399 57 l 399 0 l 50 0 l 50 57 l 157 83 l 157 667 l 50 693 m -17 979 q 5 1040 -17 1018 q 64 1061 26 1061 q 124 1039 101 1061 q 146 979 146 1017 q 124 920 146 942 q 64 899 103 899 q 5 920 26 899 q -17 979 -17 942 m 303 979 q 324 1040 303 1018 q 383 1061 346 1061 q 443 1039 421 1061 q 465 979 465 1017 q 444 920 465 942 q 383 899 422 899 q 324 920 346 899 q 303 979 303 942 z "},"á":{"ha":746,"x_min":53,"x_max":740,"o":"m 53 163 q 77 258 53 217 q 154 333 101 300 q 290 389 207 365 q 490 431 374 413 q 474 558 483 513 q 450 632 465 604 q 396 685 431 668 q 321 703 361 703 q 251 689 282 703 q 208 651 219 675 q 237 615 228 636 q 246 574 246 593 q 223 519 246 539 q 167 499 200 499 q 112 521 133 499 q 90 583 90 543 q 114 660 90 626 q 176 717 138 694 q 262 752 214 740 q 357 764 310 764 q 543 696 475 764 q 629 390 629 610 l 629 189 q 638 94 629 119 q 678 68 647 68 l 740 68 l 740 26 q 585 -14 640 -14 q 550 -7 564 -14 q 528 17 536 0 q 516 64 519 35 q 513 138 513 93 l 507 138 q 393 26 464 67 q 240 -14 322 -14 q 103 33 153 -14 q 53 163 53 79 m 299 67 q 380 87 338 67 q 451 143 422 107 q 494 299 494 196 q 493 345 494 322 q 489 389 492 368 q 348 354 404 372 q 258 313 292 336 q 210 260 224 290 q 196 192 196 231 q 223 99 196 132 q 299 67 250 67 m 369 993 q 434 1080 410 1056 q 488 1104 458 1104 q 533 1092 517 1104 q 550 1056 550 1081 q 522 1005 550 1035 q 428 926 494 975 l 375 888 l 301 888 l 369 993 z "},"ć":{"ha":744,"x_min":64,"x_max":692,"o":"m 419 764 q 612 705 540 764 q 683 547 683 646 q 597 440 683 440 q 535 463 557 440 q 513 522 513 485 q 531 582 513 557 q 582 617 550 607 q 428 693 542 693 q 262 619 314 693 q 210 388 210 546 q 246 186 210 256 q 428 79 301 79 q 550 107 492 79 q 650 186 608 135 l 692 153 q 564 26 636 67 q 394 -14 492 -14 q 226 26 297 -14 q 114 142 154 65 q 77 244 90 186 q 64 367 64 301 q 89 530 64 457 q 160 655 114 603 q 273 735 207 707 q 419 764 339 764 m 450 993 q 515 1080 490 1056 q 568 1104 539 1104 q 614 1092 597 1104 q 631 1056 631 1081 q 603 1005 631 1035 q 508 926 575 975 l 456 888 l 382 888 l 450 993 z "},"é":{"ha":756,"x_min":65,"x_max":694,"o":"m 206 367 q 233 199 206 265 q 312 106 261 133 q 424 79 363 79 q 544 106 490 79 q 640 181 597 133 l 685 147 q 631 85 660 114 q 567 33 603 56 q 486 -1 531 11 q 388 -14 442 -14 q 218 27 292 -14 q 106 147 144 68 q 75 242 85 190 q 65 356 65 294 q 154 658 65 551 q 399 764 243 764 q 618 676 542 764 q 694 432 694 588 q 694 406 694 418 q 690 367 693 394 l 206 367 m 390 689 q 207 435 224 689 l 554 435 l 554 481 q 512 635 554 581 q 390 689 469 689 m 426 993 q 491 1080 467 1056 q 544 1104 515 1104 q 590 1092 574 1104 q 607 1056 607 1081 q 579 1005 607 1035 q 485 926 551 975 l 432 888 l 358 888 l 426 993 z "},"ń":{"ha":910,"x_min":50,"x_max":879,"o":"m 157 667 l 50 693 l 50 750 l 250 750 l 281 611 l 286 611 q 398 723 328 682 q 550 764 468 764 q 650 744 606 764 q 721 689 694 725 q 760 580 749 650 q 772 390 772 510 l 772 83 l 879 57 l 879 0 l 544 0 l 544 57 l 638 83 l 638 393 q 633 527 638 482 q 615 597 628 572 q 493 665 581 665 q 418 651 454 665 q 354 614 382 638 q 309 549 324 586 q 292 454 294 513 l 292 83 l 385 57 l 385 0 l 50 0 l 50 57 l 157 83 l 157 667 m 478 993 q 542 1080 518 1056 q 596 1104 567 1104 q 642 1092 625 1104 q 658 1056 658 1081 q 631 1005 658 1035 q 536 926 603 975 l 483 888 l 410 888 l 478 993 z "},"ó":{"ha":808,"x_min":64,"x_max":744,"o":"m 744 382 q 717 210 744 290 q 642 76 690 129 q 400 -14 560 -14 q 163 74 244 -14 q 90 201 115 125 q 64 365 64 276 q 90 539 64 457 q 167 674 117 621 q 269 742 211 721 q 406 764 328 764 q 543 742 482 764 q 646 676 604 721 q 719 548 694 625 q 744 382 744 471 m 213 381 q 263 132 213 214 q 319 77 286 96 q 404 58 351 58 q 547 124 500 58 q 584 224 572 160 q 596 371 596 288 q 546 618 596 536 q 489 673 522 654 q 403 692 456 692 q 263 628 306 692 q 213 381 213 550 m 435 993 q 499 1080 475 1056 q 553 1104 524 1104 q 599 1092 582 1104 q 615 1056 615 1081 q 588 1005 615 1035 q 493 926 560 975 l 440 888 l 367 888 l 435 993 z "},"ŕ":{"ha":636,"x_min":50,"x_max":618,"o":"m 468 669 q 440 678 456 678 q 385 645 414 678 q 333 563 356 613 q 303 459 314 515 q 292 343 292 403 l 292 83 l 442 57 l 442 0 l 50 0 l 50 57 l 157 83 l 157 667 l 50 693 l 50 750 l 250 750 l 281 567 l 286 567 q 372 713 318 661 q 492 764 425 764 q 582 730 546 764 q 618 639 618 696 q 597 573 618 597 q 539 549 575 549 q 482 572 503 549 q 461 632 461 594 q 463 647 461 640 q 468 669 464 654 m 369 993 q 434 1080 410 1056 q 488 1104 458 1104 q 533 1092 517 1104 q 550 1056 550 1081 q 522 1005 550 1035 q 428 926 494 975 l 375 888 l 301 888 l 369 993 z "},"ś":{"ha":699,"x_min":61,"x_max":636,"o":"m 339 50 q 467 81 418 50 q 515 171 515 113 q 497 229 515 206 q 451 269 479 253 q 387 298 422 286 q 318 319 351 310 q 234 349 275 332 q 160 391 193 365 q 108 453 128 417 q 89 543 89 490 q 162 703 89 643 q 365 764 235 764 q 541 717 476 764 q 606 590 606 671 q 586 521 606 546 q 531 496 567 496 q 478 515 499 496 q 457 565 457 535 q 471 613 457 592 q 507 644 485 635 q 453 687 486 674 q 369 700 421 700 q 203 582 203 700 q 214 529 203 550 q 247 493 225 508 q 302 466 269 478 q 378 440 335 454 q 471 408 425 425 q 553 367 517 392 q 613 304 590 342 q 636 211 636 267 q 614 115 636 157 q 551 45 592 74 q 456 1 511 17 q 333 -14 400 -14 q 135 35 210 -14 q 61 171 61 85 q 81 241 61 215 q 139 267 101 267 q 195 247 172 267 q 218 196 218 228 q 203 146 218 169 q 168 111 189 122 q 233 67 186 83 q 339 50 279 50 m 394 993 q 459 1080 435 1056 q 513 1104 483 1104 q 558 1092 542 1104 q 575 1056 575 1081 q 547 1005 575 1035 q 453 926 519 975 l 400 888 l 326 888 l 394 993 z "},"ú":{"ha":879,"x_min":40,"x_max":844,"o":"m 268 357 q 269 279 268 313 q 273 222 271 246 q 279 182 275 199 q 290 153 283 165 q 407 85 322 85 q 479 99 444 85 q 540 136 514 113 q 585 201 571 164 q 603 296 600 238 l 603 667 l 482 693 l 482 750 l 738 750 l 738 83 l 844 57 l 844 0 l 629 -14 l 614 139 l 608 139 q 499 27 568 68 q 350 -14 429 -14 q 253 6 297 -14 q 185 61 210 25 q 145 170 157 100 q 133 360 133 240 l 133 667 l 40 693 l 40 750 l 268 750 l 268 357 m 463 993 q 527 1080 503 1056 q 581 1104 551 1104 q 626 1092 610 1104 q 643 1056 643 1081 q 615 1005 643 1035 q 521 926 588 975 l 468 888 l 394 888 l 463 993 z "},"ẃ":{"ha":1218,"x_min":18,"x_max":1199,"o":"m 376 167 l 393 85 l 400 85 l 417 167 l 579 764 l 679 764 l 847 167 l 864 85 l 869 85 l 886 167 l 1025 667 l 935 693 l 935 750 l 1199 750 l 1199 693 l 1124 667 l 917 -14 l 774 -14 l 608 528 l 447 -14 l 304 -14 l 92 667 l 18 693 l 18 750 l 329 750 l 329 693 l 233 667 l 376 167 m 660 993 q 724 1080 700 1056 q 778 1104 749 1104 q 824 1092 807 1104 q 840 1056 840 1081 q 813 1005 840 1035 q 718 926 785 975 l 665 888 l 592 888 l 660 993 z "},"ý":{"ha":819,"x_min":4,"x_max":799,"o":"m 483 33 q 430 -104 454 -47 q 379 -197 406 -161 q 320 -248 353 -232 q 242 -264 288 -264 q 180 -255 208 -264 q 130 -229 151 -246 q 96 -190 108 -212 q 83 -142 83 -168 q 106 -77 83 -103 q 164 -51 128 -51 q 215 -69 196 -51 q 233 -117 233 -86 q 226 -154 233 -136 q 206 -186 218 -172 q 222 -206 208 -201 q 246 -210 235 -210 q 273 -206 260 -210 q 299 -185 286 -201 q 327 -140 313 -169 q 358 -61 342 -111 l 375 -10 l 88 667 l 4 693 l 4 750 l 315 750 l 326 693 l 228 667 l 435 122 l 440 122 l 615 667 l 535 693 l 535 750 l 799 750 l 799 693 l 714 667 l 483 33 m 426 993 q 491 1080 467 1056 q 544 1104 515 1104 q 590 1092 574 1104 q 607 1056 607 1081 q 579 1005 607 1035 q 485 926 551 975 l 432 888 l 358 888 l 426 993 z "},"ź":{"ha":747,"x_min":61,"x_max":676,"o":"m 597 267 l 676 267 l 676 0 l 61 0 l 61 78 l 517 672 l 192 672 l 158 490 l 79 490 l 79 750 l 671 750 l 671 672 l 215 78 l 569 78 l 597 267 m 406 993 q 470 1080 446 1056 q 524 1104 494 1104 q 569 1092 553 1104 q 586 1056 586 1081 q 558 1005 586 1035 q 464 926 531 975 l 411 888 l 338 888 l 406 993 z "},"í":{"ha":433,"x_min":50,"x_max":435,"o":"m 50 693 l 50 750 l 292 750 l 292 83 l 399 57 l 399 0 l 50 0 l 50 57 l 157 83 l 157 667 l 50 693 m 254 993 q 319 1080 294 1056 q 372 1104 343 1104 q 418 1092 401 1104 q 435 1056 435 1081 q 407 1005 435 1035 q 313 926 379 975 l 260 888 l 186 888 l 254 993 z "},"à":{"ha":746,"x_min":53,"x_max":740,"o":"m 53 163 q 77 258 53 217 q 154 333 101 300 q 290 389 207 365 q 490 431 374 413 q 474 558 483 513 q 450 632 465 604 q 396 685 431 668 q 321 703 361 703 q 251 689 282 703 q 208 651 219 675 q 237 615 228 636 q 246 574 246 593 q 223 519 246 539 q 167 499 200 499 q 112 521 133 499 q 90 583 90 543 q 114 660 90 626 q 176 717 138 694 q 262 752 214 740 q 357 764 310 764 q 543 696 475 764 q 629 390 629 610 l 629 189 q 638 94 629 119 q 678 68 647 68 l 740 68 l 740 26 q 585 -14 640 -14 q 550 -7 564 -14 q 528 17 536 0 q 516 64 519 35 q 513 138 513 93 l 507 138 q 393 26 464 67 q 240 -14 322 -14 q 103 33 153 -14 q 53 163 53 79 m 299 67 q 380 87 338 67 q 451 143 422 107 q 494 299 494 196 q 493 345 494 322 q 489 389 492 368 q 348 354 404 372 q 258 313 292 336 q 210 260 224 290 q 196 192 196 231 q 223 99 196 132 q 299 67 250 67 m 422 888 l 349 888 l 296 926 q 201 1005 229 975 q 174 1056 174 1035 q 190 1092 174 1081 q 236 1104 207 1104 q 290 1080 265 1104 q 354 993 314 1056 l 422 888 z "},"è":{"ha":756,"x_min":65,"x_max":694,"o":"m 206 367 q 233 199 206 265 q 312 106 261 133 q 424 79 363 79 q 544 106 490 79 q 640 181 597 133 l 685 147 q 631 85 660 114 q 567 33 603 56 q 486 -1 531 11 q 388 -14 442 -14 q 218 27 292 -14 q 106 147 144 68 q 75 242 85 190 q 65 356 65 294 q 154 658 65 551 q 399 764 243 764 q 618 676 542 764 q 694 432 694 588 q 694 406 694 418 q 690 367 693 394 l 206 367 m 390 689 q 207 435 224 689 l 554 435 l 554 481 q 512 635 554 581 q 390 689 469 689 m 472 888 l 399 888 l 346 926 q 251 1005 279 975 q 224 1056 224 1035 q 240 1092 224 1081 q 286 1104 257 1104 q 340 1080 315 1104 q 404 993 364 1056 l 472 888 z "},"ò":{"ha":808,"x_min":64,"x_max":744,"o":"m 744 382 q 717 210 744 290 q 642 76 690 129 q 400 -14 560 -14 q 163 74 244 -14 q 90 201 115 125 q 64 365 64 276 q 90 539 64 457 q 167 674 117 621 q 269 742 211 721 q 406 764 328 764 q 543 742 482 764 q 646 676 604 721 q 719 548 694 625 q 744 382 744 471 m 213 381 q 263 132 213 214 q 319 77 286 96 q 404 58 351 58 q 547 124 500 58 q 584 224 572 160 q 596 371 596 288 q 546 618 596 536 q 489 673 522 654 q 403 692 456 692 q 263 628 306 692 q 213 381 213 550 m 443 888 l 369 888 l 317 926 q 222 1005 250 975 q 194 1056 194 1035 q 211 1092 194 1081 q 257 1104 228 1104 q 310 1080 286 1104 q 375 993 335 1056 l 443 888 z "},"ù":{"ha":879,"x_min":40,"x_max":844,"o":"m 268 357 q 269 279 268 313 q 273 222 271 246 q 279 182 275 199 q 290 153 283 165 q 407 85 322 85 q 479 99 444 85 q 540 136 514 113 q 585 201 571 164 q 603 296 600 238 l 603 667 l 482 693 l 482 750 l 738 750 l 738 83 l 844 57 l 844 0 l 629 -14 l 614 139 l 608 139 q 499 27 568 68 q 350 -14 429 -14 q 253 6 297 -14 q 185 61 210 25 q 145 170 157 100 q 133 360 133 240 l 133 667 l 40 693 l 40 750 l 268 750 l 268 357 m 471 888 l 397 888 l 344 926 q 250 1005 278 975 q 222 1056 222 1035 q 239 1092 222 1081 q 285 1104 256 1104 q 338 1080 314 1104 q 403 993 363 1056 l 471 888 z "},"ẁ":{"ha":1218,"x_min":18,"x_max":1199,"o":"m 376 167 l 393 85 l 400 85 l 417 167 l 579 764 l 679 764 l 847 167 l 864 85 l 869 85 l 886 167 l 1025 667 l 935 693 l 935 750 l 1199 750 l 1199 693 l 1124 667 l 917 -14 l 774 -14 l 608 528 l 447 -14 l 304 -14 l 92 667 l 18 693 l 18 750 l 329 750 l 329 693 l 233 667 l 376 167 m 690 888 l 617 888 l 564 926 q 469 1005 497 975 q 442 1056 442 1035 q 458 1092 442 1081 q 504 1104 475 1104 q 558 1080 533 1104 q 622 993 582 1056 l 690 888 z "},"ỳ":{"ha":819,"x_min":4,"x_max":799,"o":"m 483 33 q 430 -104 454 -47 q 379 -197 406 -161 q 320 -248 353 -232 q 242 -264 288 -264 q 180 -255 208 -264 q 130 -229 151 -246 q 96 -190 108 -212 q 83 -142 83 -168 q 106 -77 83 -103 q 164 -51 128 -51 q 215 -69 196 -51 q 233 -117 233 -86 q 226 -154 233 -136 q 206 -186 218 -172 q 222 -206 208 -201 q 246 -210 235 -210 q 273 -206 260 -210 q 299 -185 286 -201 q 327 -140 313 -169 q 358 -61 342 -111 l 375 -10 l 88 667 l 4 693 l 4 750 l 315 750 l 326 693 l 228 667 l 435 122 l 440 122 l 615 667 l 535 693 l 535 750 l 799 750 l 799 693 l 714 667 l 483 33 m 504 888 l 431 888 l 378 926 q 283 1005 311 975 q 256 1056 256 1035 q 272 1092 256 1081 q 318 1104 289 1104 q 372 1080 347 1104 q 436 993 396 1056 l 504 888 z "},"ì":{"ha":433,"x_min":14,"x_max":399,"o":"m 50 693 l 50 750 l 292 750 l 292 83 l 399 57 l 399 0 l 50 0 l 50 57 l 157 83 l 157 667 l 50 693 m 263 888 l 189 888 l 136 926 q 42 1005 69 975 q 14 1056 14 1035 q 31 1092 14 1081 q 76 1104 47 1104 q 130 1080 106 1104 q 194 993 154 1056 l 263 888 z "},"ő":{"ha":808,"x_min":64,"x_max":744,"o":"m 744 382 q 717 210 744 290 q 642 76 690 129 q 400 -14 560 -14 q 163 74 244 -14 q 90 201 115 125 q 64 365 64 276 q 90 539 64 457 q 167 674 117 621 q 269 742 211 721 q 406 764 328 764 q 543 742 482 764 q 646 676 604 721 q 719 548 694 625 q 744 382 744 471 m 213 381 q 263 132 213 214 q 319 77 286 96 q 404 58 351 58 q 547 124 500 58 q 584 224 572 160 q 596 371 596 288 q 546 618 596 536 q 489 673 522 654 q 403 692 456 692 q 263 628 306 692 q 213 381 213 550 m 314 993 q 378 1080 354 1056 q 432 1104 403 1104 q 478 1092 461 1104 q 494 1056 494 1081 q 467 1005 494 1035 q 372 926 439 975 l 319 888 l 246 888 l 314 993 m 544 993 q 609 1080 585 1056 q 663 1104 633 1104 q 708 1092 692 1104 q 725 1056 725 1081 q 697 1005 725 1035 q 603 926 669 975 l 550 888 l 476 888 l 544 993 z "},"ű":{"ha":879,"x_min":40,"x_max":844,"o":"m 268 357 q 269 279 268 313 q 273 222 271 246 q 279 182 275 199 q 290 153 283 165 q 407 85 322 85 q 479 99 444 85 q 540 136 514 113 q 585 201 571 164 q 603 296 600 238 l 603 667 l 482 693 l 482 750 l 738 750 l 738 83 l 844 57 l 844 0 l 629 -14 l 614 139 l 608 139 q 499 27 568 68 q 350 -14 429 -14 q 253 6 297 -14 q 185 61 210 25 q 145 170 157 100 q 133 360 133 240 l 133 667 l 40 693 l 40 750 l 268 750 l 268 357 m 342 993 q 406 1080 382 1056 q 460 1104 431 1104 q 506 1092 489 1104 q 522 1056 522 1081 q 494 1005 522 1035 q 400 926 467 975 l 347 888 l 274 888 l 342 993 m 572 993 q 637 1080 613 1056 q 690 1104 661 1104 q 736 1092 719 1104 q 753 1056 753 1081 q 725 1005 753 1035 q 631 926 697 975 l 578 888 l 504 888 l 572 993 z "},"ã":{"ha":746,"x_min":53,"x_max":740,"o":"m 53 163 q 77 258 53 217 q 154 333 101 300 q 290 389 207 365 q 490 431 374 413 q 474 558 483 513 q 450 632 465 604 q 396 685 431 668 q 321 703 361 703 q 251 689 282 703 q 208 651 219 675 q 237 615 228 636 q 246 574 246 593 q 223 519 246 539 q 167 499 200 499 q 112 521 133 499 q 90 583 90 543 q 114 660 90 626 q 176 717 138 694 q 262 752 214 740 q 357 764 310 764 q 543 696 475 764 q 629 390 629 610 l 629 189 q 638 94 629 119 q 678 68 647 68 l 740 68 l 740 26 q 585 -14 640 -14 q 550 -7 564 -14 q 528 17 536 0 q 516 64 519 35 q 513 138 513 93 l 507 138 q 393 26 464 67 q 240 -14 322 -14 q 103 33 153 -14 q 53 163 53 79 m 299 67 q 380 87 338 67 q 451 143 422 107 q 494 299 494 196 q 493 345 494 322 q 489 389 492 368 q 348 354 404 372 q 258 313 292 336 q 210 260 224 290 q 196 192 196 231 q 223 99 196 132 q 299 67 250 67 m 83 888 q 239 1047 106 1047 q 300 1035 274 1047 q 349 1009 326 1024 q 392 983 371 994 q 442 971 414 971 q 504 989 483 971 q 532 1040 525 1007 l 594 1040 q 439 872 569 872 q 378 884 404 872 q 330 910 353 896 q 285 938 307 925 q 236 950 263 950 q 174 933 194 950 q 146 888 153 917 l 83 888 z "},"ẽ":{"ha":756,"x_min":65,"x_max":694,"o":"m 206 367 q 233 199 206 265 q 312 106 261 133 q 424 79 363 79 q 544 106 490 79 q 640 181 597 133 l 685 147 q 631 85 660 114 q 567 33 603 56 q 486 -1 531 11 q 388 -14 442 -14 q 218 27 292 -14 q 106 147 144 68 q 75 242 85 190 q 65 356 65 294 q 154 658 65 551 q 399 764 243 764 q 618 676 542 764 q 694 432 694 588 q 694 406 694 418 q 690 367 693 394 l 206 367 m 390 689 q 207 435 224 689 l 554 435 l 554 481 q 512 635 554 581 q 390 689 469 689 m 140 888 q 296 1047 163 1047 q 357 1035 331 1047 q 406 1009 383 1024 q 449 983 428 994 q 499 971 471 971 q 561 989 540 971 q 589 1040 582 1007 l 651 1040 q 496 872 626 872 q 435 884 461 872 q 387 910 410 896 q 342 938 364 925 q 293 950 319 950 q 231 933 251 950 q 203 888 210 917 l 140 888 z "},"ñ":{"ha":910,"x_min":50,"x_max":879,"o":"m 157 667 l 50 693 l 50 750 l 250 750 l 281 611 l 286 611 q 398 723 328 682 q 550 764 468 764 q 650 744 606 764 q 721 689 694 725 q 760 580 749 650 q 772 390 772 510 l 772 83 l 879 57 l 879 0 l 544 0 l 544 57 l 638 83 l 638 393 q 633 527 638 482 q 615 597 628 572 q 493 665 581 665 q 418 651 454 665 q 354 614 382 638 q 309 549 324 586 q 292 454 294 513 l 292 83 l 385 57 l 385 0 l 50 0 l 50 57 l 157 83 l 157 667 m 226 888 q 382 1047 249 1047 q 443 1035 417 1047 q 492 1009 469 1024 q 535 983 514 994 q 585 971 557 971 q 647 989 626 971 q 675 1040 668 1007 l 738 1040 q 582 872 713 872 q 522 884 547 872 q 473 910 496 896 q 428 938 450 925 q 379 950 406 950 q 317 933 338 950 q 289 888 296 917 l 226 888 z "},"õ":{"ha":808,"x_min":64,"x_max":744,"o":"m 744 382 q 717 210 744 290 q 642 76 690 129 q 400 -14 560 -14 q 163 74 244 -14 q 90 201 115 125 q 64 365 64 276 q 90 539 64 457 q 167 674 117 621 q 269 742 211 721 q 406 764 328 764 q 543 742 482 764 q 646 676 604 721 q 719 548 694 625 q 744 382 744 471 m 213 381 q 263 132 213 214 q 319 77 286 96 q 404 58 351 58 q 547 124 500 58 q 584 224 572 160 q 596 371 596 288 q 546 618 596 536 q 489 673 522 654 q 403 692 456 692 q 263 628 306 692 q 213 381 213 550 m 149 888 q 304 1047 171 1047 q 365 1035 339 1047 q 414 1009 392 1024 q 458 983 436 994 q 507 971 479 971 q 569 989 549 971 q 597 1040 590 1007 l 660 1040 q 504 872 635 872 q 444 884 469 872 q 395 910 418 896 q 350 938 372 925 q 301 950 328 950 q 239 933 260 950 q 211 888 218 917 l 149 888 z "},"ũ":{"ha":879,"x_min":40,"x_max":844,"o":"m 268 357 q 269 279 268 313 q 273 222 271 246 q 279 182 275 199 q 290 153 283 165 q 407 85 322 85 q 479 99 444 85 q 540 136 514 113 q 585 201 571 164 q 603 296 600 238 l 603 667 l 482 693 l 482 750 l 738 750 l 738 83 l 844 57 l 844 0 l 629 -14 l 614 139 l 608 139 q 499 27 568 68 q 350 -14 429 -14 q 253 6 297 -14 q 185 61 210 25 q 145 170 157 100 q 133 360 133 240 l 133 667 l 40 693 l 40 750 l 268 750 l 268 357 m 176 888 q 332 1047 199 1047 q 393 1035 367 1047 q 442 1009 419 1024 q 485 983 464 994 q 535 971 507 971 q 597 989 576 971 q 625 1040 618 1007 l 688 1040 q 532 872 663 872 q 472 884 497 872 q 423 910 446 896 q 378 938 400 925 q 329 950 356 950 q 267 933 288 950 q 239 888 246 917 l 176 888 z "},"ỹ":{"ha":819,"x_min":4,"x_max":799,"o":"m 483 33 q 430 -104 454 -47 q 379 -197 406 -161 q 320 -248 353 -232 q 242 -264 288 -264 q 180 -255 208 -264 q 130 -229 151 -246 q 96 -190 108 -212 q 83 -142 83 -168 q 106 -77 83 -103 q 164 -51 128 -51 q 215 -69 196 -51 q 233 -117 233 -86 q 226 -154 233 -136 q 206 -186 218 -172 q 222 -206 208 -201 q 246 -210 235 -210 q 273 -206 260 -210 q 299 -185 286 -201 q 327 -140 313 -169 q 358 -61 342 -111 l 375 -10 l 88 667 l 4 693 l 4 750 l 315 750 l 326 693 l 228 667 l 435 122 l 440 122 l 615 667 l 535 693 l 535 750 l 799 750 l 799 693 l 714 667 l 483 33 m 179 888 q 335 1047 201 1047 q 396 1035 369 1047 q 444 1009 422 1024 q 488 983 467 994 q 538 971 510 971 q 600 989 579 971 q 628 1040 621 1007 l 690 1040 q 535 872 665 872 q 474 884 500 872 q 426 910 449 896 q 381 938 403 925 q 332 950 358 950 q 269 933 290 950 q 242 888 249 917 l 179 888 z "},"ĩ":{"ha":433,"x_min":-32,"x_max":479,"o":"m 50 693 l 50 750 l 292 750 l 292 83 l 399 57 l 399 0 l 50 0 l 50 57 l 157 83 l 157 667 l 50 693 m -32 888 q 124 1047 -10 1047 q 185 1035 158 1047 q 233 1009 211 1024 q 277 983 256 994 q 326 971 299 971 q 389 989 368 971 q 417 1040 410 1007 l 479 1040 q 324 872 454 872 q 263 884 289 872 q 215 910 238 896 q 169 938 192 925 q 121 950 147 950 q 58 933 79 950 q 31 888 38 917 l -32 888 z "},"ˆ":{"ha":489,"x_min":56,"x_max":433,"o":"m 433 888 l 360 888 l 244 1014 l 129 888 l 56 888 l 178 1097 l 310 1097 l 433 888 z "},"ˇ":{"ha":489,"x_min":56,"x_max":433,"o":"m 318 888 l 171 888 l 56 1083 l 133 1083 l 244 957 l 360 1083 l 433 1083 l 318 888 z "},"â":{"ha":746,"x_min":53,"x_max":740,"o":"m 53 163 q 77 258 53 217 q 154 333 101 300 q 290 389 207 365 q 490 431 374 413 q 474 558 483 513 q 450 632 465 604 q 396 685 431 668 q 321 703 361 703 q 251 689 282 703 q 208 651 219 675 q 237 615 228 636 q 246 574 246 593 q 223 519 246 539 q 167 499 200 499 q 112 521 133 499 q 90 583 90 543 q 114 660 90 626 q 176 717 138 694 q 262 752 214 740 q 357 764 310 764 q 543 696 475 764 q 629 390 629 610 l 629 189 q 638 94 629 119 q 678 68 647 68 l 740 68 l 740 26 q 585 -14 640 -14 q 550 -7 564 -14 q 528 17 536 0 q 516 64 519 35 q 513 138 513 93 l 507 138 q 393 26 464 67 q 240 -14 322 -14 q 103 33 153 -14 q 53 163 53 79 m 299 67 q 380 87 338 67 q 451 143 422 107 q 494 299 494 196 q 493 345 494 322 q 489 389 492 368 q 348 354 404 372 q 258 313 292 336 q 210 260 224 290 q 196 192 196 231 q 223 99 196 132 q 299 67 250 67 m 542 888 l 468 888 l 353 1014 l 238 888 l 164 888 l 286 1097 l 418 1097 l 542 888 z "},"ĉ":{"ha":744,"x_min":64,"x_max":692,"o":"m 419 764 q 612 705 540 764 q 683 547 683 646 q 597 440 683 440 q 535 463 557 440 q 513 522 513 485 q 531 582 513 557 q 582 617 550 607 q 428 693 542 693 q 262 619 314 693 q 210 388 210 546 q 246 186 210 256 q 428 79 301 79 q 550 107 492 79 q 650 186 608 135 l 692 153 q 564 26 636 67 q 394 -14 492 -14 q 226 26 297 -14 q 114 142 154 65 q 77 244 90 186 q 64 367 64 301 q 89 530 64 457 q 160 655 114 603 q 273 735 207 707 q 419 764 339 764 m 608 888 l 535 888 l 419 1014 l 304 888 l 231 888 l 353 1097 l 485 1097 l 608 888 z "},"ê":{"ha":756,"x_min":65,"x_max":694,"o":"m 206 367 q 233 199 206 265 q 312 106 261 133 q 424 79 363 79 q 544 106 490 79 q 640 181 597 133 l 685 147 q 631 85 660 114 q 567 33 603 56 q 486 -1 531 11 q 388 -14 442 -14 q 218 27 292 -14 q 106 147 144 68 q 75 242 85 190 q 65 356 65 294 q 154 658 65 551 q 399 764 243 764 q 618 676 542 764 q 694 432 694 588 q 694 406 694 418 q 690 367 693 394 l 206 367 m 390 689 q 207 435 224 689 l 554 435 l 554 481 q 512 635 554 581 q 390 689 469 689 m 597 888 l 524 888 l 408 1014 l 293 888 l 219 888 l 342 1097 l 474 1097 l 597 888 z "},"ĥ":{"ha":894,"x_min":35,"x_max":864,"o":"m 622 393 q 617 527 622 482 q 600 597 613 572 q 478 665 565 665 q 403 651 439 665 q 339 614 367 638 q 294 550 308 586 q 276 460 279 514 l 276 83 l 369 57 l 369 0 l 35 0 l 35 57 l 142 83 l 142 1000 l 35 1026 l 35 1083 l 276 1083 l 276 619 q 387 725 318 686 q 535 764 456 764 q 635 744 590 764 q 706 689 679 725 q 745 580 733 650 q 757 390 757 510 l 757 83 l 864 57 l 864 0 l 529 0 l 529 57 l 622 83 l 622 393 m 692 888 l 618 888 l 503 1014 l 388 888 l 314 888 l 436 1097 l 568 1097 l 692 888 z "},"ô":{"ha":808,"x_min":64,"x_max":744,"o":"m 744 382 q 717 210 744 290 q 642 76 690 129 q 400 -14 560 -14 q 163 74 244 -14 q 90 201 115 125 q 64 365 64 276 q 90 539 64 457 q 167 674 117 621 q 269 742 211 721 q 406 764 328 764 q 543 742 482 764 q 646 676 604 721 q 719 548 694 625 q 744 382 744 471 m 213 381 q 263 132 213 214 q 319 77 286 96 q 404 58 351 58 q 547 124 500 58 q 584 224 572 160 q 596 371 596 288 q 546 618 596 536 q 489 673 522 654 q 403 692 456 692 q 263 628 306 692 q 213 381 213 550 m 593 888 l 519 888 l 404 1014 l 289 888 l 215 888 l 338 1097 l 469 1097 l 593 888 z "},"ŝ":{"ha":699,"x_min":61,"x_max":636,"o":"m 339 50 q 467 81 418 50 q 515 171 515 113 q 497 229 515 206 q 451 269 479 253 q 387 298 422 286 q 318 319 351 310 q 234 349 275 332 q 160 391 193 365 q 108 453 128 417 q 89 543 89 490 q 162 703 89 643 q 365 764 235 764 q 541 717 476 764 q 606 590 606 671 q 586 521 606 546 q 531 496 567 496 q 478 515 499 496 q 457 565 457 535 q 471 613 457 592 q 507 644 485 635 q 453 687 486 674 q 369 700 421 700 q 203 582 203 700 q 214 529 203 550 q 247 493 225 508 q 302 466 269 478 q 378 440 335 454 q 471 408 425 425 q 553 367 517 392 q 613 304 590 342 q 636 211 636 267 q 614 115 636 157 q 551 45 592 74 q 456 1 511 17 q 333 -14 400 -14 q 135 35 210 -14 q 61 171 61 85 q 81 241 61 215 q 139 267 101 267 q 195 247 172 267 q 218 196 218 228 q 203 146 218 169 q 168 111 189 122 q 233 67 186 83 q 339 50 279 50 m 553 888 l 479 888 l 364 1014 l 249 888 l 175 888 l 297 1097 l 429 1097 l 553 888 z "},"û":{"ha":879,"x_min":40,"x_max":844,"o":"m 268 357 q 269 279 268 313 q 273 222 271 246 q 279 182 275 199 q 290 153 283 165 q 407 85 322 85 q 479 99 444 85 q 540 136 514 113 q 585 201 571 164 q 603 296 600 238 l 603 667 l 482 693 l 482 750 l 738 750 l 738 83 l 844 57 l 844 0 l 629 -14 l 614 139 l 608 139 q 499 27 568 68 q 350 -14 429 -14 q 253 6 297 -14 q 185 61 210 25 q 145 170 157 100 q 133 360 133 240 l 133 667 l 40 693 l 40 750 l 268 750 l 268 357 m 621 888 l 547 888 l 432 1014 l 317 888 l 243 888 l 365 1097 l 497 1097 l 621 888 z "},"ŵ":{"ha":1218,"x_min":18,"x_max":1199,"o":"m 376 167 l 393 85 l 400 85 l 417 167 l 579 764 l 679 764 l 847 167 l 864 85 l 869 85 l 886 167 l 1025 667 l 935 693 l 935 750 l 1199 750 l 1199 693 l 1124 667 l 917 -14 l 774 -14 l 608 528 l 447 -14 l 304 -14 l 92 667 l 18 693 l 18 750 l 329 750 l 329 693 l 233 667 l 376 167 m 818 888 l 744 888 l 629 1014 l 514 888 l 440 888 l 563 1097 l 694 1097 l 818 888 z "},"ŷ":{"ha":819,"x_min":4,"x_max":799,"o":"m 483 33 q 430 -104 454 -47 q 379 -197 406 -161 q 320 -248 353 -232 q 242 -264 288 -264 q 180 -255 208 -264 q 130 -229 151 -246 q 96 -190 108 -212 q 83 -142 83 -168 q 106 -77 83 -103 q 164 -51 128 -51 q 215 -69 196 -51 q 233 -117 233 -86 q 226 -154 233 -136 q 206 -186 218 -172 q 222 -206 208 -201 q 246 -210 235 -210 q 273 -206 260 -210 q 299 -185 286 -201 q 327 -140 313 -169 q 358 -61 342 -111 l 375 -10 l 88 667 l 4 693 l 4 750 l 315 750 l 326 693 l 228 667 l 435 122 l 440 122 l 615 667 l 535 693 l 535 750 l 799 750 l 799 693 l 714 667 l 483 33 m 624 888 l 550 888 l 435 1014 l 319 888 l 246 888 l 368 1097 l 500 1097 l 624 888 z "},"ĝ":{"ha":778,"x_min":42,"x_max":768,"o":"m 704 -14 q 681 -111 704 -67 q 615 -187 658 -156 q 508 -237 571 -219 q 365 -256 444 -256 q 124 -210 206 -256 q 42 -82 42 -165 q 81 18 42 -17 q 188 64 119 53 l 188 69 q 96 178 96 96 q 127 258 96 221 q 225 318 158 294 q 119 396 156 343 q 82 525 82 449 q 102 624 82 581 q 159 699 122 668 q 248 747 196 731 q 365 764 300 764 q 569 700 494 764 l 617 717 l 744 778 l 768 778 l 768 656 l 744 656 l 647 667 l 600 667 q 640 533 640 611 q 565 360 640 424 q 356 297 490 297 q 327 298 340 297 q 300 300 314 299 q 190 218 190 283 q 215 174 190 186 q 313 163 240 163 l 474 163 q 646 120 588 163 q 704 -14 704 78 m 322 56 q 188 24 229 56 q 146 -60 146 -8 q 363 -186 146 -186 q 542 -151 481 -186 q 604 -44 604 -115 q 562 33 604 11 q 413 56 519 56 l 322 56 m 204 531 q 242 404 204 447 q 361 361 279 361 q 481 404 443 361 q 518 531 518 447 q 481 657 518 614 q 361 700 443 700 q 242 657 279 700 q 204 531 204 614 m 551 888 l 478 888 l 363 1014 l 247 888 l 174 888 l 296 1097 l 428 1097 l 551 888 z "},"î":{"ha":433,"x_min":35,"x_max":413,"o":"m 50 693 l 50 750 l 292 750 l 292 83 l 399 57 l 399 0 l 50 0 l 50 57 l 157 83 l 157 667 l 50 693 m 413 888 l 339 888 l 224 1014 l 108 888 l 35 888 l 157 1097 l 289 1097 l 413 888 z "},"ĵ":{"ha":394,"x_min":-115,"x_max":400,"o":"m 279 118 q 272 -44 279 15 q 249 -140 265 -103 q 172 -232 222 -200 q 56 -264 122 -264 q -67 -227 -19 -264 q -115 -132 -115 -190 q -95 -74 -115 -96 q -42 -53 -75 -53 q 26 -129 26 -53 q 4 -192 26 -169 q 22 -207 7 -201 q 58 -212 36 -212 q 126 -174 107 -212 q 144 -33 144 -135 l 144 667 l 38 693 l 38 750 l 279 750 l 279 118 m 400 888 l 326 888 l 211 1014 l 96 888 l 22 888 l 144 1097 l 276 1097 l 400 888 z "},"č":{"ha":744,"x_min":64,"x_max":692,"o":"m 419 764 q 612 705 540 764 q 683 547 683 646 q 597 440 683 440 q 535 463 557 440 q 513 522 513 485 q 531 582 513 557 q 582 617 550 607 q 428 693 542 693 q 262 619 314 693 q 210 388 210 546 q 246 186 210 256 q 428 79 301 79 q 550 107 492 79 q 650 186 608 135 l 692 153 q 564 26 636 67 q 394 -14 492 -14 q 226 26 297 -14 q 114 142 154 65 q 77 244 90 186 q 64 367 64 301 q 89 530 64 457 q 160 655 114 603 q 273 735 207 707 q 419 764 339 764 m 493 888 l 346 888 l 231 1083 l 308 1083 l 419 957 l 535 1083 l 608 1083 l 493 888 z "},"ě":{"ha":756,"x_min":65,"x_max":694,"o":"m 206 367 q 233 199 206 265 q 312 106 261 133 q 424 79 363 79 q 544 106 490 79 q 640 181 597 133 l 685 147 q 631 85 660 114 q 567 33 603 56 q 486 -1 531 11 q 388 -14 442 -14 q 218 27 292 -14 q 106 147 144 68 q 75 242 85 190 q 65 356 65 294 q 154 658 65 551 q 399 764 243 764 q 618 676 542 764 q 694 432 694 588 q 694 406 694 418 q 690 367 693 394 l 206 367 m 390 689 q 207 435 224 689 l 554 435 l 554 481 q 512 635 554 581 q 390 689 469 689 m 469 888 l 322 888 l 207 1083 l 285 1083 l 396 957 l 511 1083 l 585 1083 l 469 888 z "},"ň":{"ha":910,"x_min":50,"x_max":879,"o":"m 157 667 l 50 693 l 50 750 l 250 750 l 281 611 l 286 611 q 398 723 328 682 q 550 764 468 764 q 650 744 606 764 q 721 689 694 725 q 760 580 749 650 q 772 390 772 510 l 772 83 l 879 57 l 879 0 l 544 0 l 544 57 l 638 83 l 638 393 q 633 527 638 482 q 615 597 628 572 q 493 665 581 665 q 418 651 454 665 q 354 614 382 638 q 309 549 324 586 q 292 454 294 513 l 292 83 l 385 57 l 385 0 l 50 0 l 50 57 l 157 83 l 157 667 m 556 888 l 408 888 l 293 1083 l 371 1083 l 482 957 l 597 1083 l 671 1083 l 556 888 z "},"ř":{"ha":636,"x_min":50,"x_max":618,"o":"m 468 669 q 440 678 456 678 q 385 645 414 678 q 333 563 356 613 q 303 459 314 515 q 292 343 292 403 l 292 83 l 442 57 l 442 0 l 50 0 l 50 57 l 157 83 l 157 667 l 50 693 l 50 750 l 250 750 l 281 567 l 286 567 q 372 713 318 661 q 492 764 425 764 q 582 730 546 764 q 618 639 618 696 q 597 573 618 597 q 539 549 575 549 q 482 572 503 549 q 461 632 461 594 q 463 647 461 640 q 468 669 464 654 m 413 888 l 265 888 l 150 1083 l 228 1083 l 339 957 l 454 1083 l 528 1083 l 413 888 z "},"š":{"ha":699,"x_min":61,"x_max":636,"o":"m 339 50 q 467 81 418 50 q 515 171 515 113 q 497 229 515 206 q 451 269 479 253 q 387 298 422 286 q 318 319 351 310 q 234 349 275 332 q 160 391 193 365 q 108 453 128 417 q 89 543 89 490 q 162 703 89 643 q 365 764 235 764 q 541 717 476 764 q 606 590 606 671 q 586 521 606 546 q 531 496 567 496 q 478 515 499 496 q 457 565 457 535 q 471 613 457 592 q 507 644 485 635 q 453 687 486 674 q 369 700 421 700 q 203 582 203 700 q 214 529 203 550 q 247 493 225 508 q 302 466 269 478 q 378 440 335 454 q 471 408 425 425 q 553 367 517 392 q 613 304 590 342 q 636 211 636 267 q 614 115 636 157 q 551 45 592 74 q 456 1 511 17 q 333 -14 400 -14 q 135 35 210 -14 q 61 171 61 85 q 81 241 61 215 q 139 267 101 267 q 195 247 172 267 q 218 196 218 228 q 203 146 218 169 q 168 111 189 122 q 233 67 186 83 q 339 50 279 50 m 438 888 l 290 888 l 175 1083 l 253 1083 l 364 957 l 479 1083 l 553 1083 l 438 888 z "},"ž":{"ha":747,"x_min":61,"x_max":676,"o":"m 597 267 l 676 267 l 676 0 l 61 0 l 61 78 l 517 672 l 192 672 l 158 490 l 79 490 l 79 750 l 671 750 l 671 672 l 215 78 l 569 78 l 597 267 m 449 888 l 301 888 l 186 1083 l 264 1083 l 375 957 l 490 1083 l 564 1083 l 449 888 z "},"ḍ":{"ha":861,"x_min":64,"x_max":826,"o":"m 64 368 q 88 540 64 460 q 158 674 111 621 q 253 741 199 718 q 382 764 308 764 q 494 740 444 764 q 585 656 544 717 l 585 1000 l 478 1026 l 478 1083 l 719 1083 l 719 83 l 826 57 l 826 0 l 611 -14 l 600 100 q 503 10 557 35 q 382 -14 449 -14 q 254 7 311 -14 q 160 74 197 28 q 90 203 115 128 q 64 368 64 279 m 585 369 q 536 618 585 540 q 482 673 514 654 q 397 692 450 692 q 257 626 303 692 q 221 526 232 590 q 210 379 210 463 q 258 132 210 213 q 314 77 282 96 q 399 58 346 58 q 482 74 447 58 q 536 122 517 90 q 572 223 560 161 q 585 369 585 285 m 296 -178 q 319 -114 296 -137 q 382 -90 342 -90 q 446 -114 422 -90 q 469 -178 469 -137 q 446 -241 469 -218 q 382 -264 422 -264 q 319 -241 342 -264 q 296 -178 296 -218 z "},"ẹ":{"ha":756,"x_min":65,"x_max":694,"o":"m 206 367 q 233 199 206 265 q 312 106 261 133 q 424 79 363 79 q 544 106 490 79 q 640 181 597 133 l 685 147 q 631 85 660 114 q 567 33 603 56 q 486 -1 531 11 q 388 -14 442 -14 q 218 27 292 -14 q 106 147 144 68 q 75 242 85 190 q 65 356 65 294 q 154 658 65 551 q 399 764 243 764 q 618 676 542 764 q 694 432 694 588 q 694 406 694 418 q 690 367 693 394 l 206 367 m 390 689 q 207 435 224 689 l 554 435 l 554 481 q 512 635 554 581 q 390 689 469 689 m 306 -178 q 328 -114 306 -137 q 392 -90 351 -90 q 456 -114 432 -90 q 479 -178 479 -137 q 456 -241 479 -218 q 392 -264 432 -264 q 328 -241 351 -264 q 306 -178 306 -218 z "},"ḥ":{"ha":894,"x_min":35,"x_max":864,"o":"m 622 393 q 617 527 622 482 q 600 597 613 572 q 478 665 565 665 q 403 651 439 665 q 339 614 367 638 q 294 550 308 586 q 276 460 279 514 l 276 83 l 369 57 l 369 0 l 35 0 l 35 57 l 142 83 l 142 1000 l 35 1026 l 35 1083 l 276 1083 l 276 619 q 387 725 318 686 q 535 764 456 764 q 635 744 590 764 q 706 689 679 725 q 745 580 733 650 q 757 390 757 510 l 757 83 l 864 57 l 864 0 l 529 0 l 529 57 l 622 83 l 622 393 m 363 -178 q 385 -114 363 -137 q 449 -90 408 -90 q 513 -114 489 -90 q 536 -178 536 -137 q 513 -241 536 -218 q 449 -264 489 -264 q 385 -241 408 -264 q 363 -178 363 -218 z "},"ị":{"ha":433,"x_min":50,"x_max":399,"o":"m 50 693 l 50 750 l 292 750 l 292 83 l 399 57 l 399 0 l 50 0 l 50 57 l 157 83 l 157 667 l 50 693 m 138 974 q 160 1038 138 1014 q 224 1061 183 1061 q 288 1038 264 1061 q 311 974 311 1014 q 288 910 311 933 q 224 888 264 888 q 160 910 183 888 q 138 974 138 933 m 140 -178 q 163 -114 140 -137 q 226 -90 186 -90 q 290 -114 267 -90 q 314 -178 314 -137 q 290 -241 314 -218 q 226 -264 267 -264 q 163 -241 186 -264 q 140 -178 140 -218 z "},"ọ":{"ha":808,"x_min":64,"x_max":744,"o":"m 744 382 q 717 210 744 290 q 642 76 690 129 q 400 -14 560 -14 q 163 74 244 -14 q 90 201 115 125 q 64 365 64 276 q 90 539 64 457 q 167 674 117 621 q 269 742 211 721 q 406 764 328 764 q 543 742 482 764 q 646 676 604 721 q 719 548 694 625 q 744 382 744 471 m 213 381 q 263 132 213 214 q 319 77 286 96 q 404 58 351 58 q 547 124 500 58 q 584 224 572 160 q 596 371 596 288 q 546 618 596 536 q 489 673 522 654 q 403 692 456 692 q 263 628 306 692 q 213 381 213 550 m 315 -178 q 338 -114 315 -137 q 401 -90 361 -90 q 465 -114 442 -90 q 489 -178 489 -137 q 465 -241 489 -218 q 401 -264 442 -264 q 338 -241 361 -264 q 315 -178 315 -218 z "},"ṛ":{"ha":636,"x_min":50,"x_max":618,"o":"m 468 669 q 440 678 456 678 q 385 645 414 678 q 333 563 356 613 q 303 459 314 515 q 292 343 292 403 l 292 83 l 442 57 l 442 0 l 50 0 l 50 57 l 157 83 l 157 667 l 50 693 l 50 750 l 250 750 l 281 567 l 286 567 q 372 713 318 661 q 492 764 425 764 q 582 730 546 764 q 618 639 618 696 q 597 573 618 597 q 539 549 575 549 q 482 572 503 549 q 461 632 461 594 q 463 647 461 640 q 468 669 464 654 m 138 -178 q 160 -114 138 -137 q 224 -90 183 -90 q 288 -114 264 -90 q 311 -178 311 -137 q 288 -241 311 -218 q 224 -264 264 -264 q 160 -241 183 -264 q 138 -178 138 -218 z "},"ṣ":{"ha":699,"x_min":61,"x_max":636,"o":"m 339 50 q 467 81 418 50 q 515 171 515 113 q 497 229 515 206 q 451 269 479 253 q 387 298 422 286 q 318 319 351 310 q 234 349 275 332 q 160 391 193 365 q 108 453 128 417 q 89 543 89 490 q 162 703 89 643 q 365 764 235 764 q 541 717 476 764 q 606 590 606 671 q 586 521 606 546 q 531 496 567 496 q 478 515 499 496 q 457 565 457 535 q 471 613 457 592 q 507 644 485 635 q 453 687 486 674 q 369 700 421 700 q 203 582 203 700 q 214 529 203 550 q 247 493 225 508 q 302 466 269 478 q 378 440 335 454 q 471 408 425 425 q 553 367 517 392 q 613 304 590 342 q 636 211 636 267 q 614 115 636 157 q 551 45 592 74 q 456 1 511 17 q 333 -14 400 -14 q 135 35 210 -14 q 61 171 61 85 q 81 241 61 215 q 139 267 101 267 q 195 247 172 267 q 218 196 218 228 q 203 146 218 169 q 168 111 189 122 q 233 67 186 83 q 339 50 279 50 m 247 -178 q 270 -114 247 -137 q 333 -90 293 -90 q 397 -114 374 -90 q 421 -178 421 -137 q 397 -241 421 -218 q 333 -264 374 -264 q 270 -241 293 -264 q 247 -178 247 -218 z "},"ṭ":{"ha":474,"x_min":13,"x_max":460,"o":"m 13 731 l 147 750 l 165 925 l 282 942 l 282 750 l 460 750 l 460 681 l 282 681 l 282 185 q 283 120 282 138 q 289 92 285 103 q 304 78 293 81 q 340 75 315 75 l 438 75 l 438 35 q 320 -2 371 10 q 239 -14 269 -14 q 158 38 176 -14 q 149 80 151 54 q 147 158 147 106 l 147 681 l 13 681 l 13 731 m 140 -178 q 163 -114 140 -137 q 226 -90 186 -90 q 290 -114 267 -90 q 314 -178 314 -137 q 290 -241 314 -218 q 226 -264 267 -264 q 163 -241 186 -264 q 140 -178 140 -218 z "},"ụ":{"ha":879,"x_min":40,"x_max":844,"o":"m 268 357 q 269 279 268 313 q 273 222 271 246 q 279 182 275 199 q 290 153 283 165 q 407 85 322 85 q 479 99 444 85 q 540 136 514 113 q 585 201 571 164 q 603 296 600 238 l 603 667 l 482 693 l 482 750 l 738 750 l 738 83 l 844 57 l 844 0 l 629 -14 l 614 139 l 608 139 q 499 27 568 68 q 350 -14 429 -14 q 253 6 297 -14 q 185 61 210 25 q 145 170 157 100 q 133 360 133 240 l 133 667 l 40 693 l 40 750 l 268 750 l 268 357 m 319 -178 q 342 -114 319 -137 q 406 -90 365 -90 q 469 -114 446 -90 q 493 -178 493 -137 q 469 -241 493 -218 q 406 -264 446 -264 q 342 -241 365 -264 q 319 -178 319 -218 z "},"ẓ":{"ha":747,"x_min":61,"x_max":676,"o":"m 597 267 l 676 267 l 676 0 l 61 0 l 61 78 l 517 672 l 192 672 l 158 490 l 79 490 l 79 750 l 671 750 l 671 672 l 215 78 l 569 78 l 597 267 m 282 -178 q 305 -114 282 -137 q 368 -90 328 -90 q 432 -114 408 -90 q 456 -178 456 -137 q 432 -241 456 -218 q 368 -264 408 -264 q 305 -241 328 -264 q 282 -178 282 -218 z "},"/":{"ha":431,"x_min":75,"x_max":357,"o":"m 278 1014 l 357 1014 l 154 -14 l 75 -14 l 278 1014 z "},"\\":{"ha":431,"x_min":74,"x_max":356,"o":"m 356 -14 l 276 -14 l 74 1014 l 153 1014 l 356 -14 z "},"⁄":{"ha":56,"x_min":-278,"x_max":333,"o":"m 258 1014 l 333 1014 l -203 -14 l -278 -14 l 258 1014 z "},"∕":{"ha":583,"x_min":-14,"x_max":597,"o":"m 522 1014 l 597 1014 l 61 -14 l -14 -14 l 522 1014 z "},"˘":{"ha":506,"x_min":49,"x_max":457,"o":"m 457 1083 q 439 994 456 1033 q 394 928 422 956 q 328 888 367 901 q 244 874 290 874 q 99 931 150 874 q 49 1083 49 989 l 115 1083 q 154 996 118 1022 q 244 969 190 969 q 352 996 314 969 q 390 1083 390 1022 l 457 1083 z "},"ă":{"ha":746,"x_min":53,"x_max":740,"o":"m 53 163 q 77 258 53 217 q 154 333 101 300 q 290 389 207 365 q 490 431 374 413 q 474 558 483 513 q 450 632 465 604 q 396 685 431 668 q 321 703 361 703 q 251 689 282 703 q 208 651 219 675 q 237 615 228 636 q 246 574 246 593 q 223 519 246 539 q 167 499 200 499 q 112 521 133 499 q 90 583 90 543 q 114 660 90 626 q 176 717 138 694 q 262 752 214 740 q 357 764 310 764 q 543 696 475 764 q 629 390 629 610 l 629 189 q 638 94 629 119 q 678 68 647 68 l 740 68 l 740 26 q 585 -14 640 -14 q 550 -7 564 -14 q 528 17 536 0 q 516 64 519 35 q 513 138 513 93 l 507 138 q 393 26 464 67 q 240 -14 322 -14 q 103 33 153 -14 q 53 163 53 79 m 299 67 q 380 87 338 67 q 451 143 422 107 q 494 299 494 196 q 493 345 494 322 q 489 389 492 368 q 348 354 404 372 q 258 313 292 336 q 210 260 224 290 q 196 192 196 231 q 223 99 196 132 q 299 67 250 67 m 551 1083 q 533 994 550 1033 q 489 928 517 956 q 423 888 461 901 q 339 874 385 874 q 194 931 244 874 q 143 1083 143 989 l 210 1083 q 249 996 213 1022 q 339 969 285 969 q 447 996 408 969 q 485 1083 485 1022 l 551 1083 z "},"ĕ":{"ha":756,"x_min":65,"x_max":694,"o":"m 206 367 q 233 199 206 265 q 312 106 261 133 q 424 79 363 79 q 544 106 490 79 q 640 181 597 133 l 685 147 q 631 85 660 114 q 567 33 603 56 q 486 -1 531 11 q 388 -14 442 -14 q 218 27 292 -14 q 106 147 144 68 q 75 242 85 190 q 65 356 65 294 q 154 658 65 551 q 399 764 243 764 q 618 676 542 764 q 694 432 694 588 q 694 406 694 418 q 690 367 693 394 l 206 367 m 390 689 q 207 435 224 689 l 554 435 l 554 481 q 512 635 554 581 q 390 689 469 689 m 608 1083 q 590 994 607 1033 q 546 928 574 956 q 480 888 518 901 q 396 874 442 874 q 251 931 301 874 q 200 1083 200 989 l 267 1083 q 306 996 269 1022 q 396 969 342 969 q 503 996 465 969 q 542 1083 542 1022 l 608 1083 z "},"ŏ":{"ha":808,"x_min":64,"x_max":744,"o":"m 744 382 q 717 210 744 290 q 642 76 690 129 q 400 -14 560 -14 q 163 74 244 -14 q 90 201 115 125 q 64 365 64 276 q 90 539 64 457 q 167 674 117 621 q 269 742 211 721 q 406 764 328 764 q 543 742 482 764 q 646 676 604 721 q 719 548 694 625 q 744 382 744 471 m 213 381 q 263 132 213 214 q 319 77 286 96 q 404 58 351 58 q 547 124 500 58 q 584 224 572 160 q 596 371 596 288 q 546 618 596 536 q 489 673 522 654 q 403 692 456 692 q 263 628 306 692 q 213 381 213 550 m 617 1083 q 599 994 615 1033 q 554 928 582 956 q 488 888 526 901 q 404 874 450 874 q 259 931 310 874 q 208 1083 208 989 l 275 1083 q 314 996 278 1022 q 404 969 350 969 q 512 996 474 969 q 550 1083 550 1022 l 617 1083 z "},"ŭ":{"ha":879,"x_min":40,"x_max":844,"o":"m 268 357 q 269 279 268 313 q 273 222 271 246 q 279 182 275 199 q 290 153 283 165 q 407 85 322 85 q 479 99 444 85 q 540 136 514 113 q 585 201 571 164 q 603 296 600 238 l 603 667 l 482 693 l 482 750 l 738 750 l 738 83 l 844 57 l 844 0 l 629 -14 l 614 139 l 608 139 q 499 27 568 68 q 350 -14 429 -14 q 253 6 297 -14 q 185 61 210 25 q 145 170 157 100 q 133 360 133 240 l 133 667 l 40 693 l 40 750 l 268 750 l 268 357 m 644 1083 q 626 994 643 1033 q 582 928 610 956 q 516 888 554 901 q 432 874 478 874 q 287 931 338 874 q 236 1083 236 989 l 303 1083 q 342 996 306 1022 q 432 969 378 969 q 540 996 501 969 q 578 1083 578 1022 l 644 1083 z "},"ğ":{"ha":778,"x_min":42,"x_max":768,"o":"m 704 -14 q 681 -111 704 -67 q 615 -187 658 -156 q 508 -237 571 -219 q 365 -256 444 -256 q 124 -210 206 -256 q 42 -82 42 -165 q 81 18 42 -17 q 188 64 119 53 l 188 69 q 96 178 96 96 q 127 258 96 221 q 225 318 158 294 q 119 396 156 343 q 82 525 82 449 q 102 624 82 581 q 159 699 122 668 q 248 747 196 731 q 365 764 300 764 q 569 700 494 764 l 617 717 l 744 778 l 768 778 l 768 656 l 744 656 l 647 667 l 600 667 q 640 533 640 611 q 565 360 640 424 q 356 297 490 297 q 327 298 340 297 q 300 300 314 299 q 190 218 190 283 q 215 174 190 186 q 313 163 240 163 l 474 163 q 646 120 588 163 q 704 -14 704 78 m 322 56 q 188 24 229 56 q 146 -60 146 -8 q 363 -186 146 -186 q 542 -151 481 -186 q 604 -44 604 -115 q 562 33 604 11 q 413 56 519 56 l 322 56 m 204 531 q 242 404 204 447 q 361 361 279 361 q 481 404 443 361 q 518 531 518 447 q 481 657 518 614 q 361 700 443 700 q 242 657 279 700 q 204 531 204 614 m 575 1083 q 557 994 574 1033 q 513 928 540 956 q 447 888 485 901 q 363 874 408 874 q 217 931 268 874 q 167 1083 167 989 l 233 1083 q 272 996 236 1022 q 363 969 308 969 q 470 996 432 969 q 508 1083 508 1022 l 575 1083 z "},"˚":{"ha":333,"x_min":49,"x_max":285,"o":"m 49 990 q 83 1075 49 1040 q 165 1110 117 1110 q 250 1075 215 1110 q 285 990 285 1040 q 250 908 285 942 q 165 874 215 874 q 83 908 117 874 q 49 990 49 942 m 107 990 q 124 949 107 965 q 165 932 140 932 q 209 949 192 932 q 226 990 226 965 q 209 1034 226 1017 q 165 1051 192 1051 q 124 1034 140 1051 q 107 990 107 1017 z "},"å":{"ha":746,"x_min":53,"x_max":740,"o":"m 53 163 q 77 258 53 217 q 154 333 101 300 q 290 389 207 365 q 490 431 374 413 q 474 558 483 513 q 450 632 465 604 q 396 685 431 668 q 321 703 361 703 q 251 689 282 703 q 208 651 219 675 q 237 615 228 636 q 246 574 246 593 q 223 519 246 539 q 167 499 200 499 q 112 521 133 499 q 90 583 90 543 q 114 660 90 626 q 176 717 138 694 q 262 752 214 740 q 357 764 310 764 q 543 696 475 764 q 629 390 629 610 l 629 189 q 638 94 629 119 q 678 68 647 68 l 740 68 l 740 26 q 585 -14 640 -14 q 550 -7 564 -14 q 528 17 536 0 q 516 64 519 35 q 513 138 513 93 l 507 138 q 393 26 464 67 q 240 -14 322 -14 q 103 33 153 -14 q 53 163 53 79 m 299 67 q 380 87 338 67 q 451 143 422 107 q 494 299 494 196 q 493 345 494 322 q 489 389 492 368 q 348 354 404 372 q 258 313 292 336 q 210 260 224 290 q 196 192 196 231 q 223 99 196 132 q 299 67 250 67 m 251 990 q 285 1075 251 1040 q 368 1110 319 1110 q 453 1075 418 1110 q 488 990 488 1040 q 453 908 488 942 q 368 874 418 874 q 285 908 319 874 q 251 990 251 942 m 310 990 q 326 949 310 965 q 368 932 343 932 q 412 949 394 932 q 429 990 429 965 q 412 1034 429 1017 q 368 1051 394 1051 q 326 1034 343 1051 q 310 990 310 1017 z "},"ů":{"ha":879,"x_min":40,"x_max":844,"o":"m 268 357 q 269 279 268 313 q 273 222 271 246 q 279 182 275 199 q 290 153 283 165 q 407 85 322 85 q 479 99 444 85 q 540 136 514 113 q 585 201 571 164 q 603 296 600 238 l 603 667 l 482 693 l 482 750 l 738 750 l 738 83 l 844 57 l 844 0 l 629 -14 l 614 139 l 608 139 q 499 27 568 68 q 350 -14 429 -14 q 253 6 297 -14 q 185 61 210 25 q 145 170 157 100 q 133 360 133 240 l 133 667 l 40 693 l 40 750 l 268 750 l 268 357 m 315 990 q 349 1075 315 1040 q 432 1110 383 1110 q 517 1075 482 1110 q 551 990 551 1040 q 517 908 551 942 q 432 874 482 874 q 349 908 383 874 q 315 990 315 942 m 374 990 q 390 949 374 965 q 432 932 407 932 q 476 949 458 932 q 493 990 493 965 q 476 1034 493 1017 q 432 1051 458 1051 q 390 1034 407 1051 q 374 990 374 1017 z "},"ĭ":{"ha":433,"x_min":28,"x_max":436,"o":"m 50 693 l 50 750 l 292 750 l 292 83 l 399 57 l 399 0 l 50 0 l 50 57 l 157 83 l 157 667 l 50 693 m 436 1083 q 418 994 435 1033 q 374 928 401 956 q 308 888 346 901 q 224 874 269 874 q 78 931 129 874 q 28 1083 28 989 l 94 1083 q 133 996 97 1022 q 224 969 169 969 q 331 996 293 969 q 369 1083 369 1022 l 436 1083 z "},"ǽ":{"ha":1161,"x_min":53,"x_max":1100,"o":"m 53 163 q 77 258 53 217 q 154 333 101 300 q 290 389 207 365 q 490 431 374 413 q 474 558 483 513 q 450 632 465 604 q 396 685 431 668 q 321 703 361 703 q 251 689 282 703 q 208 651 219 675 q 237 615 228 636 q 246 574 246 593 q 223 519 246 539 q 167 499 200 499 q 112 521 133 499 q 90 583 90 543 q 114 660 90 626 q 176 717 138 694 q 262 752 214 740 q 357 764 310 764 q 424 755 392 764 q 484 728 457 746 q 532 684 511 711 q 563 621 553 657 l 569 621 q 661 728 597 692 q 804 764 725 764 q 1024 676 947 764 q 1100 432 1100 588 q 1099 406 1100 418 q 1096 367 1099 394 l 611 367 q 639 199 611 265 q 717 106 667 133 q 829 79 768 79 q 949 106 896 79 q 1046 181 1003 133 l 1090 147 q 1037 85 1065 114 q 972 33 1008 56 q 892 -1 936 11 q 793 -14 847 -14 q 628 24 700 -14 q 517 138 557 63 l 507 138 q 393 26 464 67 q 240 -14 322 -14 q 103 33 153 -14 q 53 163 53 79 m 796 689 q 613 435 629 689 l 960 435 l 960 481 q 917 635 960 581 q 796 689 875 689 m 299 67 q 380 87 338 67 q 451 143 422 107 q 494 299 494 196 q 493 345 494 322 q 489 389 492 368 q 348 354 404 372 q 258 313 292 336 q 210 260 224 290 q 196 192 196 231 q 223 99 196 132 q 299 67 250 67 m 597 993 q 662 1080 638 1056 q 715 1104 686 1104 q 761 1092 744 1104 q 778 1056 778 1081 q 750 1005 778 1035 q 656 926 722 975 l 603 888 l 529 888 l 597 993 z "},"ǻ":{"ha":746,"x_min":53,"x_max":740,"o":"m 53 163 q 77 258 53 217 q 154 333 101 300 q 290 389 207 365 q 490 431 374 413 q 474 558 483 513 q 450 632 465 604 q 396 685 431 668 q 321 703 361 703 q 251 689 282 703 q 208 651 219 675 q 237 615 228 636 q 246 574 246 593 q 223 519 246 539 q 167 499 200 499 q 112 521 133 499 q 90 583 90 543 q 114 660 90 626 q 176 717 138 694 q 262 752 214 740 q 357 764 310 764 q 543 696 475 764 q 629 390 629 610 l 629 189 q 638 94 629 119 q 678 68 647 68 l 740 68 l 740 26 q 585 -14 640 -14 q 550 -7 564 -14 q 528 17 536 0 q 516 64 519 35 q 513 138 513 93 l 507 138 q 393 26 464 67 q 240 -14 322 -14 q 103 33 153 -14 q 53 163 53 79 m 299 67 q 380 87 338 67 q 451 143 422 107 q 494 299 494 196 q 493 345 494 322 q 489 389 492 368 q 348 354 404 372 q 258 313 292 336 q 210 260 224 290 q 196 192 196 231 q 223 99 196 132 q 299 67 250 67 m 243 946 q 277 1031 243 996 q 360 1065 311 1065 q 376 1064 368 1065 q 393 1060 385 1063 q 429 1096 415 1088 q 463 1104 443 1104 q 510 1061 510 1104 q 501 1031 510 1044 q 469 994 493 1018 q 479 946 479 968 q 444 863 479 897 q 360 829 410 829 q 310 840 335 829 l 288 819 l 214 819 l 261 883 q 243 946 243 913 m 301 946 q 318 904 301 921 q 360 888 335 888 q 403 904 386 888 q 421 946 421 921 q 403 990 421 972 q 360 1007 386 1007 q 318 990 335 1007 q 301 946 301 972 z "},"¯":{"ha":457,"x_min":35,"x_max":422,"o":"m 35 1014 l 422 1014 l 422 924 l 35 924 l 35 1014 z "},"^":{"ha":531,"x_min":76,"x_max":454,"o":"m 454 888 l 381 888 l 265 1014 l 150 888 l 76 888 l 199 1097 l 331 1097 l 454 888 z "},"ā":{"ha":746,"x_min":53,"x_max":740,"o":"m 53 163 q 77 258 53 217 q 154 333 101 300 q 290 389 207 365 q 490 431 374 413 q 474 558 483 513 q 450 632 465 604 q 396 685 431 668 q 321 703 361 703 q 251 689 282 703 q 208 651 219 675 q 237 615 228 636 q 246 574 246 593 q 223 519 246 539 q 167 499 200 499 q 112 521 133 499 q 90 583 90 543 q 114 660 90 626 q 176 717 138 694 q 262 752 214 740 q 357 764 310 764 q 543 696 475 764 q 629 390 629 610 l 629 189 q 638 94 629 119 q 678 68 647 68 l 740 68 l 740 26 q 585 -14 640 -14 q 550 -7 564 -14 q 528 17 536 0 q 516 64 519 35 q 513 138 513 93 l 507 138 q 393 26 464 67 q 240 -14 322 -14 q 103 33 153 -14 q 53 163 53 79 m 299 67 q 380 87 338 67 q 451 143 422 107 q 494 299 494 196 q 493 345 494 322 q 489 389 492 368 q 348 354 404 372 q 258 313 292 336 q 210 260 224 290 q 196 192 196 231 q 223 99 196 132 q 299 67 250 67 m 171 1014 l 558 1014 l 558 924 l 171 924 l 171 1014 z "},"ē":{"ha":756,"x_min":65,"x_max":694,"o":"m 206 367 q 233 199 206 265 q 312 106 261 133 q 424 79 363 79 q 544 106 490 79 q 640 181 597 133 l 685 147 q 631 85 660 114 q 567 33 603 56 q 486 -1 531 11 q 388 -14 442 -14 q 218 27 292 -14 q 106 147 144 68 q 75 242 85 190 q 65 356 65 294 q 154 658 65 551 q 399 764 243 764 q 618 676 542 764 q 694 432 694 588 q 694 406 694 418 q 690 367 693 394 l 206 367 m 390 689 q 207 435 224 689 l 554 435 l 554 481 q 512 635 554 581 q 390 689 469 689 m 201 1014 l 589 1014 l 589 924 l 201 924 l 201 1014 z "},"ō":{"ha":808,"x_min":64,"x_max":744,"o":"m 744 382 q 717 210 744 290 q 642 76 690 129 q 400 -14 560 -14 q 163 74 244 -14 q 90 201 115 125 q 64 365 64 276 q 90 539 64 457 q 167 674 117 621 q 269 742 211 721 q 406 764 328 764 q 543 742 482 764 q 646 676 604 721 q 719 548 694 625 q 744 382 744 471 m 213 381 q 263 132 213 214 q 319 77 286 96 q 404 58 351 58 q 547 124 500 58 q 584 224 572 160 q 596 371 596 288 q 546 618 596 536 q 489 673 522 654 q 403 692 456 692 q 263 628 306 692 q 213 381 213 550 m 210 1014 l 597 1014 l 597 924 l 210 924 l 210 1014 z "},"ū":{"ha":879,"x_min":40,"x_max":844,"o":"m 268 357 q 269 279 268 313 q 273 222 271 246 q 279 182 275 199 q 290 153 283 165 q 407 85 322 85 q 479 99 444 85 q 540 136 514 113 q 585 201 571 164 q 603 296 600 238 l 603 667 l 482 693 l 482 750 l 738 750 l 738 83 l 844 57 l 844 0 l 629 -14 l 614 139 l 608 139 q 499 27 568 68 q 350 -14 429 -14 q 253 6 297 -14 q 185 61 210 25 q 145 170 157 100 q 133 360 133 240 l 133 667 l 40 693 l 40 750 l 268 750 l 268 357 m 238 1014 l 625 1014 l 625 924 l 238 924 l 238 1014 z "},"ī":{"ha":433,"x_min":29,"x_max":417,"o":"m 50 693 l 50 750 l 292 750 l 292 83 l 399 57 l 399 0 l 50 0 l 50 57 l 157 83 l 157 667 l 50 693 m 29 1014 l 417 1014 l 417 924 l 29 924 l 29 1014 z "},"\"":{"ha":524,"x_min":76,"x_max":447,"o":"m 113 674 q 107 765 113 719 q 94 852 101 811 q 82 926 88 893 q 76 978 76 958 q 91 1034 76 1013 q 146 1056 106 1056 q 199 1035 185 1056 q 214 978 214 1014 q 208 926 214 958 q 196 852 203 893 q 183 765 189 811 q 178 674 178 719 l 113 674 m 346 674 q 340 765 346 719 q 328 852 335 811 q 315 926 321 893 q 310 978 310 958 q 324 1034 310 1013 q 379 1056 339 1056 q 433 1035 418 1056 q 447 978 447 1014 q 442 926 447 958 q 429 852 436 893 q 417 765 422 811 q 411 674 411 719 l 346 674 z "},"'":{"ha":290,"x_min":76,"x_max":214,"o":"m 113 674 q 107 765 113 719 q 94 852 101 811 q 82 926 88 893 q 76 978 76 958 q 91 1034 76 1013 q 146 1056 106 1056 q 199 1035 185 1056 q 214 978 214 1014 q 208 926 214 958 q 196 852 203 893 q 183 765 189 811 q 178 674 178 719 l 113 674 z "},"ď":{"ha":861,"x_min":64,"x_max":935,"o":"m 64 368 q 88 540 64 460 q 158 674 111 621 q 253 741 199 718 q 382 764 308 764 q 494 740 444 764 q 585 656 544 717 l 585 1000 l 478 1026 l 478 1083 l 719 1083 l 719 83 l 826 57 l 826 0 l 611 -14 l 600 100 q 503 10 557 35 q 382 -14 449 -14 q 254 7 311 -14 q 160 74 197 28 q 90 203 115 128 q 64 368 64 279 m 585 369 q 536 618 585 540 q 482 673 514 654 q 397 692 450 692 q 257 626 303 692 q 221 526 232 590 q 210 379 210 463 q 258 132 210 213 q 314 77 282 96 q 399 58 346 58 q 482 74 447 58 q 536 122 517 90 q 572 223 560 161 q 585 369 585 285 m 851 840 q 847 901 851 875 q 838 951 843 928 q 829 994 833 974 q 825 1038 825 1015 q 835 1077 825 1057 q 881 1097 846 1097 q 924 1077 913 1097 q 935 1038 935 1057 q 931 994 935 1015 q 921 951 926 974 q 911 901 915 928 q 907 840 907 875 l 851 840 z "},"ľ":{"ha":428,"x_min":39,"x_max":472,"o":"m 146 1000 l 39 1026 l 39 1083 l 281 1083 l 281 83 l 388 57 l 388 0 l 39 0 l 39 57 l 146 83 l 146 1000 m 389 840 q 385 901 389 875 q 376 951 381 928 q 367 994 371 974 q 363 1038 363 1015 q 373 1077 363 1057 q 418 1097 383 1097 q 461 1077 450 1097 q 472 1038 472 1057 q 468 994 472 1015 q 458 951 464 974 q 449 901 453 928 q 444 840 444 875 l 389 840 z "},"ť":{"ha":474,"x_min":13,"x_max":479,"o":"m 13 731 l 147 750 l 165 925 l 282 942 l 282 750 l 460 750 l 460 681 l 282 681 l 282 185 q 283 120 282 138 q 289 92 285 103 q 304 78 293 81 q 340 75 315 75 l 438 75 l 438 35 q 320 -2 371 10 q 239 -14 269 -14 q 158 38 176 -14 q 149 80 151 54 q 147 158 147 106 l 147 681 l 13 681 l 13 731 m 396 840 q 392 901 396 875 q 383 951 388 928 q 374 994 378 974 q 369 1038 369 1015 q 380 1077 369 1057 q 425 1097 390 1097 q 468 1077 457 1097 q 479 1038 479 1057 q 475 994 479 1015 q 465 951 471 974 q 456 901 460 928 q 451 840 451 875 l 396 840 z "},"ŧ":{"ha":485,"x_min":18,"x_max":465,"o":"m 18 731 l 153 750 l 171 925 l 288 942 l 288 750 l 465 750 l 465 681 l 288 681 l 288 543 l 464 543 l 464 460 l 288 460 l 288 185 q 289 120 288 138 q 294 92 290 103 q 310 78 299 81 q 346 75 321 75 l 443 75 l 443 35 q 326 -2 376 10 q 244 -14 275 -14 q 164 38 182 -14 q 155 80 157 54 q 153 158 153 106 l 153 460 l 18 460 l 18 543 l 153 543 l 153 681 l 18 681 l 18 731 z "},"ŀ":{"ha":482,"x_min":39,"x_max":556,"o":"m 146 1000 l 39 1026 l 39 1083 l 281 1083 l 281 83 l 388 57 l 388 0 l 39 0 l 39 57 l 146 83 l 146 1000 m 379 497 q 403 563 379 539 q 467 588 426 588 q 531 563 507 588 q 556 497 556 538 q 531 433 556 457 q 467 410 507 410 q 402 433 425 410 q 379 497 379 456 z "},"đ":{"ha":861,"x_min":64,"x_max":826,"o":"m 436 933 l 585 933 l 585 1000 l 478 1026 l 478 1083 l 719 1083 l 719 933 l 826 933 l 826 847 l 719 847 l 719 83 l 826 57 l 826 0 l 611 -14 l 600 100 q 503 10 557 35 q 382 -14 449 -14 q 254 7 311 -14 q 160 74 197 28 q 90 203 115 128 q 64 368 64 279 q 88 540 64 460 q 158 674 111 621 q 253 741 199 718 q 382 764 308 764 q 494 740 444 764 q 585 656 544 717 l 585 847 l 436 847 l 436 933 m 585 369 q 536 618 585 540 q 482 673 514 654 q 397 692 450 692 q 257 626 303 692 q 221 526 232 590 q 210 379 210 463 q 258 132 210 213 q 314 77 282 96 q 399 58 346 58 q 482 74 447 58 q 536 122 517 90 q 572 223 560 161 q 585 369 585 285 z "},"ħ":{"ha":894,"x_min":33,"x_max":864,"o":"m 33 933 l 142 933 l 142 1000 l 35 1026 l 35 1083 l 276 1083 l 276 933 l 424 933 l 424 847 l 276 847 l 276 619 q 387 725 318 686 q 535 764 456 764 q 635 744 590 764 q 706 689 679 725 q 745 580 733 650 q 757 390 757 510 l 757 83 l 864 57 l 864 0 l 529 0 l 529 57 l 622 83 l 622 393 q 617 527 622 482 q 600 597 613 572 q 478 665 565 665 q 403 651 439 665 q 339 614 367 638 q 294 550 308 586 q 276 460 279 514 l 276 83 l 369 57 l 369 0 l 35 0 l 35 57 l 142 83 l 142 847 l 33 847 l 33 933 z "},"ʼ":{"ha":243,"x_min":42,"x_max":201,"o":"m 126 1097 q 182 1074 163 1097 q 201 1007 201 1050 q 72 818 201 896 l 42 856 q 108 919 86 892 q 132 971 129 947 l 128 974 q 117 968 125 971 q 103 965 110 965 q 64 983 79 965 q 49 1028 49 1001 q 71 1077 49 1057 q 126 1097 93 1097 z "},"ŉ":{"ha":1043,"x_min":26,"x_max":1013,"o":"m 290 667 l 183 693 l 183 750 l 383 750 l 414 611 l 419 611 q 531 723 461 682 q 683 764 601 764 q 783 744 739 764 q 854 689 828 725 q 894 580 882 650 q 906 390 906 510 l 906 83 l 1013 57 l 1013 0 l 678 0 l 678 57 l 771 83 l 771 393 q 766 527 771 482 q 749 597 761 572 q 626 665 714 665 q 551 651 588 665 q 488 614 515 638 q 442 549 457 586 q 425 454 428 513 l 425 83 l 518 57 l 518 0 l 183 0 l 183 57 l 290 83 l 290 667 m 111 1097 q 167 1074 147 1097 q 186 1007 186 1050 q 57 818 186 896 l 26 856 q 92 919 71 892 q 117 971 114 947 l 113 974 q 102 968 110 971 q 88 965 94 965 q 49 983 64 965 q 33 1028 33 1001 q 56 1077 33 1057 q 111 1097 78 1097 z "},"":{"ha":250,"x_min":49,"x_max":201,"o":"m 126 -61 q 182 -85 163 -61 q 201 -151 201 -108 q 174 -248 201 -206 q 89 -326 147 -290 l 58 -289 q 114 -234 99 -257 q 132 -187 129 -211 l 128 -185 q 117 -190 125 -187 q 103 -193 110 -193 q 64 -175 79 -193 q 49 -131 49 -157 q 71 -81 49 -101 q 126 -61 93 -61 z "},"ķ":{"ha":828,"x_min":35,"x_max":818,"o":"m 596 83 l 382 372 l 276 283 l 276 83 l 383 57 l 383 0 l 35 0 l 35 57 l 142 83 l 142 1000 l 35 1026 l 35 1083 l 276 1083 l 276 349 l 572 667 l 481 693 l 481 750 l 779 750 l 779 693 l 678 667 l 468 451 l 744 81 l 818 57 l 818 0 l 514 0 l 514 57 l 596 83 m 439 -61 q 494 -85 475 -61 q 514 -151 514 -108 q 487 -248 514 -206 q 401 -326 460 -290 l 371 -289 q 426 -234 411 -257 q 444 -187 442 -211 l 440 -185 q 430 -190 438 -187 q 415 -193 422 -193 q 376 -175 392 -193 q 361 -131 361 -157 q 383 -81 361 -101 q 439 -61 406 -61 z "},"ļ":{"ha":428,"x_min":39,"x_max":388,"o":"m 146 1000 l 39 1026 l 39 1083 l 281 1083 l 281 83 l 388 57 l 388 0 l 39 0 l 39 57 l 146 83 l 146 1000 m 213 -61 q 268 -85 249 -61 q 288 -151 288 -108 q 260 -248 288 -206 q 175 -326 233 -290 l 144 -289 q 200 -234 185 -257 q 218 -187 215 -211 l 214 -185 q 203 -190 211 -187 q 189 -193 196 -193 q 150 -175 165 -193 q 135 -131 135 -157 q 157 -81 135 -101 q 213 -61 179 -61 z "},"ņ":{"ha":910,"x_min":50,"x_max":879,"o":"m 157 667 l 50 693 l 50 750 l 250 750 l 281 611 l 286 611 q 398 723 328 682 q 550 764 468 764 q 650 744 606 764 q 721 689 694 725 q 760 580 749 650 q 772 390 772 510 l 772 83 l 879 57 l 879 0 l 544 0 l 544 57 l 638 83 l 638 393 q 633 527 638 482 q 615 597 628 572 q 493 665 581 665 q 418 651 454 665 q 354 614 382 638 q 309 549 324 586 q 292 454 294 513 l 292 83 l 385 57 l 385 0 l 50 0 l 50 57 l 157 83 l 157 667 m 465 -61 q 521 -85 501 -61 q 540 -151 540 -108 q 513 -248 540 -206 q 428 -326 486 -290 l 397 -289 q 453 -234 438 -257 q 471 -187 468 -211 l 467 -185 q 456 -190 464 -187 q 442 -193 449 -193 q 403 -175 418 -193 q 388 -131 388 -157 q 410 -81 388 -101 q 465 -61 432 -61 z "},"ŗ":{"ha":636,"x_min":50,"x_max":618,"o":"m 468 669 q 440 678 456 678 q 385 645 414 678 q 333 563 356 613 q 303 459 314 515 q 292 343 292 403 l 292 83 l 442 57 l 442 0 l 50 0 l 50 57 l 157 83 l 157 667 l 50 693 l 50 750 l 250 750 l 281 567 l 286 567 q 372 713 318 661 q 492 764 425 764 q 582 730 546 764 q 618 639 618 696 q 597 573 618 597 q 539 549 575 549 q 482 572 503 549 q 461 632 461 594 q 463 647 461 640 q 468 669 464 654 m 225 -61 q 281 -85 261 -61 q 300 -151 300 -108 q 273 -248 300 -206 q 188 -326 246 -290 l 157 -289 q 213 -234 197 -257 q 231 -187 228 -211 l 226 -185 q 216 -190 224 -187 q 201 -193 208 -193 q 163 -175 178 -193 q 147 -131 147 -157 q 169 -81 147 -101 q 225 -61 192 -61 z "},"ș":{"ha":699,"x_min":61,"x_max":636,"o":"m 339 50 q 467 81 418 50 q 515 171 515 113 q 497 229 515 206 q 451 269 479 253 q 387 298 422 286 q 318 319 351 310 q 234 349 275 332 q 160 391 193 365 q 108 453 128 417 q 89 543 89 490 q 162 703 89 643 q 365 764 235 764 q 541 717 476 764 q 606 590 606 671 q 586 521 606 546 q 531 496 567 496 q 478 515 499 496 q 457 565 457 535 q 471 613 457 592 q 507 644 485 635 q 453 687 486 674 q 369 700 421 700 q 203 582 203 700 q 214 529 203 550 q 247 493 225 508 q 302 466 269 478 q 378 440 335 454 q 471 408 425 425 q 553 367 517 392 q 613 304 590 342 q 636 211 636 267 q 614 115 636 157 q 551 45 592 74 q 456 1 511 17 q 333 -14 400 -14 q 135 35 210 -14 q 61 171 61 85 q 81 241 61 215 q 139 267 101 267 q 195 247 172 267 q 218 196 218 228 q 203 146 218 169 q 168 111 189 122 q 233 67 186 83 q 339 50 279 50 m 346 -61 q 401 -85 382 -61 q 421 -151 421 -108 q 394 -248 421 -206 q 308 -326 367 -290 l 278 -289 q 333 -234 318 -257 q 351 -187 349 -211 l 347 -185 q 337 -190 344 -187 q 322 -193 329 -193 q 283 -175 299 -193 q 268 -131 268 -157 q 290 -81 268 -101 q 346 -61 313 -61 z "},"ț":{"ha":474,"x_min":13,"x_max":460,"o":"m 13 731 l 147 750 l 165 925 l 282 942 l 282 750 l 460 750 l 460 681 l 282 681 l 282 185 q 283 120 282 138 q 289 92 285 103 q 304 78 293 81 q 340 75 315 75 l 438 75 l 438 35 q 320 -2 371 10 q 239 -14 269 -14 q 158 38 176 -14 q 149 80 151 54 q 147 158 147 106 l 147 681 l 13 681 l 13 731 m 242 -61 q 297 -85 278 -61 q 317 -151 317 -108 q 290 -248 317 -206 q 204 -326 263 -290 l 174 -289 q 229 -234 214 -257 q 247 -187 244 -211 l 243 -185 q 233 -190 240 -187 q 218 -193 225 -193 q 179 -175 194 -193 q 164 -131 164 -157 q 186 -81 164 -101 q 242 -61 208 -61 z "},"ø":{"ha":808,"x_min":64,"x_max":744,"o":"m 744 382 q 717 210 744 290 q 642 76 690 129 q 400 -14 560 -14 q 268 6 329 -14 l 222 -83 l 133 -83 l 199 42 q 163 74 178 56 q 90 201 115 125 q 64 365 64 276 q 90 539 64 457 q 167 674 117 621 q 269 742 211 721 q 406 764 328 764 q 560 735 493 764 l 597 808 l 686 808 l 626 694 l 646 676 q 719 548 694 625 q 744 382 744 471 m 213 381 q 224 245 213 303 q 254 147 235 188 l 517 653 q 468 682 496 672 q 403 692 440 692 q 263 628 306 692 q 213 381 213 550 m 596 371 q 565 576 596 496 l 308 82 q 404 58 344 58 q 547 124 500 58 q 584 224 572 160 q 596 371 596 288 z "},"ǿ":{"ha":808,"x_min":64,"x_max":744,"o":"m 744 382 q 717 210 744 290 q 642 76 690 129 q 400 -14 560 -14 q 268 6 329 -14 l 222 -83 l 133 -83 l 199 42 q 163 74 178 56 q 90 201 115 125 q 64 365 64 276 q 90 539 64 457 q 167 674 117 621 q 269 742 211 721 q 406 764 328 764 q 560 735 493 764 l 597 808 l 686 808 l 626 694 l 646 676 q 719 548 694 625 q 744 382 744 471 m 213 381 q 224 245 213 303 q 254 147 235 188 l 517 653 q 468 682 496 672 q 403 692 440 692 q 263 628 306 692 q 213 381 213 550 m 596 371 q 565 576 596 496 l 308 82 q 404 58 344 58 q 547 124 500 58 q 584 224 572 160 q 596 371 596 288 m 431 993 q 495 1080 471 1056 q 549 1104 519 1104 q 594 1092 578 1104 q 611 1056 611 1081 q 583 1005 611 1035 q 489 926 556 975 l 436 888 l 363 888 l 431 993 z "},"¸":{"ha":353,"x_min":35,"x_max":318,"o":"m 161 -292 q 35 -253 88 -292 l 72 -201 q 154 -229 113 -229 q 201 -215 183 -229 q 219 -179 219 -201 q 144 -137 219 -137 q 86 -146 115 -137 l 68 -115 l 175 24 l 236 24 l 172 -82 l 174 -86 q 285 -108 251 -86 q 318 -175 318 -131 q 272 -262 318 -232 q 161 -292 226 -292 z "},"ç":{"ha":744,"x_min":64,"x_max":692,"o":"m 363 -292 q 236 -253 289 -292 l 274 -201 q 356 -229 314 -229 q 403 -215 385 -229 q 421 -179 421 -201 q 346 -137 421 -137 q 288 -146 317 -137 l 269 -115 l 349 -11 q 114 142 186 6 q 77 244 90 186 q 64 367 64 301 q 89 530 64 457 q 160 655 114 603 q 273 735 207 707 q 419 764 339 764 q 612 705 540 764 q 683 547 683 646 q 597 440 683 440 q 535 463 557 440 q 513 522 513 485 q 531 582 513 557 q 582 617 550 607 q 428 693 542 693 q 262 619 314 693 q 210 388 210 546 q 246 186 210 256 q 428 79 301 79 q 550 107 492 79 q 650 186 608 135 l 692 153 q 572 31 639 71 q 415 -12 504 -8 l 374 -82 l 375 -86 q 486 -108 453 -86 q 519 -175 519 -131 q 474 -262 519 -232 q 363 -292 428 -292 z "},"ţ":{"ha":474,"x_min":13,"x_max":460,"o":"m 244 -292 q 118 -253 171 -292 l 156 -201 q 238 -229 196 -229 q 285 -215 267 -229 q 303 -179 303 -201 q 228 -137 303 -137 q 169 -146 199 -137 l 151 -115 l 229 -14 q 158 38 175 -10 q 149 80 151 54 q 147 158 147 106 l 147 681 l 13 681 l 13 731 l 147 750 l 165 925 l 282 942 l 282 750 l 460 750 l 460 681 l 282 681 l 282 185 q 283 120 282 138 q 289 92 285 103 q 304 78 293 81 q 340 75 315 75 l 438 75 l 438 35 q 363 10 397 19 q 301 -6 329 0 l 256 -82 l 257 -86 q 368 -108 335 -86 q 401 -175 401 -131 q 356 -262 401 -232 q 244 -292 310 -292 z "},"ş":{"ha":699,"x_min":61,"x_max":636,"o":"m 319 -292 q 193 -253 246 -292 l 231 -201 q 313 -229 271 -229 q 360 -215 342 -229 q 378 -179 378 -201 q 303 -137 378 -137 q 244 -146 274 -137 l 226 -115 l 304 -12 q 127 42 193 -7 q 61 171 61 90 q 81 241 61 215 q 139 267 101 267 q 195 247 172 267 q 218 196 218 228 q 203 146 218 169 q 168 111 189 122 q 233 67 186 83 q 339 50 279 50 q 467 81 418 50 q 515 171 515 113 q 497 229 515 206 q 451 269 479 253 q 387 298 422 286 q 318 319 351 310 q 234 349 275 332 q 160 391 193 365 q 108 453 128 417 q 89 543 89 490 q 162 703 89 643 q 365 764 235 764 q 541 717 476 764 q 606 590 606 671 q 586 521 606 546 q 531 496 567 496 q 478 515 499 496 q 457 565 457 535 q 471 613 457 592 q 507 644 485 635 q 453 687 486 674 q 369 700 421 700 q 203 582 203 700 q 214 529 203 550 q 247 493 225 508 q 302 466 269 478 q 378 440 335 454 q 471 408 425 425 q 553 367 517 392 q 613 304 590 342 q 636 211 636 267 q 563 53 636 111 q 372 -12 490 -4 l 331 -82 l 332 -86 q 443 -108 410 -86 q 476 -175 476 -131 q 431 -262 476 -232 q 319 -292 385 -292 z "},"˛":{"ha":382,"x_min":49,"x_max":333,"o":"m 188 -292 q 87 -259 125 -292 q 49 -174 49 -226 q 207 19 49 -69 l 264 19 q 149 -146 149 -60 q 218 -211 149 -211 q 269 -204 243 -211 q 313 -183 296 -197 l 333 -214 q 188 -292 283 -292 z "},"ą":{"ha":746,"x_min":53,"x_max":740,"o":"m 561 -292 q 460 -259 499 -292 q 422 -174 422 -226 q 543 -3 422 -81 q 519 42 525 10 q 513 138 513 75 l 507 138 q 393 26 464 67 q 240 -14 322 -14 q 103 33 153 -14 q 53 163 53 79 q 77 258 53 217 q 154 333 101 300 q 290 389 207 365 q 490 431 374 413 q 474 558 483 513 q 450 632 465 604 q 396 685 431 668 q 321 703 361 703 q 251 689 282 703 q 208 651 219 675 q 237 615 228 636 q 246 574 246 593 q 223 519 246 539 q 167 499 200 499 q 112 521 133 499 q 90 583 90 543 q 114 660 90 626 q 176 717 138 694 q 262 752 214 740 q 357 764 310 764 q 543 696 475 764 q 629 390 629 610 l 629 189 q 638 94 629 119 q 678 68 647 68 l 740 68 l 740 26 q 659 -2 696 7 q 594 -14 622 -11 q 522 -146 522 -78 q 592 -211 522 -211 q 643 -204 617 -211 q 686 -183 669 -197 l 707 -214 q 561 -292 657 -292 m 299 67 q 380 87 338 67 q 451 143 422 107 q 494 299 494 196 q 493 345 494 322 q 489 389 492 368 q 348 354 404 372 q 258 313 292 336 q 210 260 224 290 q 196 192 196 231 q 223 99 196 132 q 299 67 250 67 z "},"ę":{"ha":756,"x_min":65,"x_max":694,"o":"m 367 -292 q 266 -259 304 -292 q 228 -174 228 -226 q 336 -11 228 -87 q 198 38 257 -1 q 106 147 139 78 q 75 242 85 190 q 65 356 65 294 q 154 658 65 551 q 399 764 243 764 q 618 676 542 764 q 694 432 694 588 q 694 406 694 418 q 690 367 693 394 l 206 367 q 233 199 206 265 q 312 106 261 133 q 424 79 363 79 q 544 106 490 79 q 640 181 597 133 l 685 147 q 633 87 661 115 q 570 36 604 58 q 494 1 536 14 q 400 -14 451 -12 q 328 -146 328 -78 q 397 -211 328 -211 q 449 -204 422 -211 q 492 -183 475 -197 l 513 -214 q 367 -292 463 -292 m 390 689 q 207 435 224 689 l 554 435 l 554 481 q 512 635 554 581 q 390 689 469 689 z "},"į":{"ha":433,"x_min":50,"x_max":399,"o":"m 201 -292 q 101 -259 139 -292 q 63 -174 63 -226 q 188 0 63 -79 l 50 0 l 50 57 l 157 83 l 157 667 l 50 693 l 50 750 l 292 750 l 292 83 l 399 57 l 399 0 l 251 0 q 163 -146 163 -69 q 232 -211 163 -211 q 283 -204 257 -211 q 326 -183 310 -197 l 347 -214 q 201 -292 297 -292 m 138 974 q 160 1038 138 1014 q 224 1061 183 1061 q 288 1038 264 1061 q 311 974 311 1014 q 288 910 311 933 q 224 888 264 888 q 160 910 183 888 q 138 974 138 933 z "},"ǫ":{"ha":808,"x_min":64,"x_max":744,"o":"m 376 -292 q 276 -259 314 -292 q 238 -174 238 -226 q 346 -11 238 -87 q 163 74 228 1 q 90 201 115 125 q 64 365 64 276 q 90 539 64 457 q 167 674 117 621 q 269 742 211 721 q 406 764 328 764 q 543 742 482 764 q 646 676 604 721 q 719 548 694 625 q 744 382 744 471 q 717 210 744 290 q 642 76 690 129 q 543 10 601 32 q 410 -14 485 -11 q 338 -146 338 -78 q 407 -211 338 -211 q 458 -204 432 -211 q 501 -183 485 -197 l 522 -214 q 376 -292 472 -292 m 213 381 q 263 132 213 214 q 319 77 286 96 q 404 58 351 58 q 547 124 500 58 q 584 224 572 160 q 596 371 596 288 q 546 618 596 536 q 489 673 522 654 q 403 692 456 692 q 263 628 306 692 q 213 381 213 550 z "},"ų":{"ha":879,"x_min":40,"x_max":844,"o":"m 664 -292 q 563 -259 601 -292 q 525 -174 525 -226 q 629 -14 525 -89 l 614 139 l 608 139 q 499 27 568 68 q 350 -14 429 -14 q 253 6 297 -14 q 185 61 210 25 q 145 170 157 100 q 133 360 133 240 l 133 667 l 40 693 l 40 750 l 268 750 l 268 357 q 269 279 268 313 q 273 222 271 246 q 279 182 275 199 q 290 153 283 165 q 407 85 322 85 q 479 99 444 85 q 540 136 514 113 q 585 201 571 164 q 603 296 600 238 l 603 667 l 482 693 l 482 750 l 738 750 l 738 83 l 844 57 l 844 0 l 703 -8 q 625 -146 625 -75 q 694 -211 625 -211 q 746 -204 719 -211 q 789 -183 772 -197 l 810 -214 q 664 -292 760 -292 z "},"ł":{"ha":436,"x_min":35,"x_max":407,"o":"m 35 496 l 150 568 l 150 1000 l 43 1026 l 43 1083 l 285 1083 l 285 654 l 407 732 l 407 636 l 285 558 l 285 83 l 392 57 l 392 0 l 43 0 l 43 57 l 150 83 l 150 474 l 35 401 l 35 496 z "},"ģ":{"ha":778,"x_min":42,"x_max":768,"o":"m 704 -14 q 681 -111 704 -67 q 615 -187 658 -156 q 508 -237 571 -219 q 365 -256 444 -256 q 124 -210 206 -256 q 42 -82 42 -165 q 81 18 42 -17 q 188 64 119 53 l 188 69 q 96 178 96 96 q 127 258 96 221 q 225 318 158 294 q 119 396 156 343 q 82 525 82 449 q 102 624 82 581 q 159 699 122 668 q 248 747 196 731 q 365 764 300 764 q 569 700 494 764 l 617 717 l 744 778 l 768 778 l 768 656 l 744 656 l 647 667 l 600 667 q 640 533 640 611 q 565 360 640 424 q 356 297 490 297 q 327 298 340 297 q 300 300 314 299 q 190 218 190 283 q 215 174 190 186 q 313 163 240 163 l 474 163 q 646 120 588 163 q 704 -14 704 78 m 322 56 q 188 24 229 56 q 146 -60 146 -8 q 363 -186 146 -186 q 542 -151 481 -186 q 604 -44 604 -115 q 562 33 604 11 q 413 56 519 56 l 322 56 m 204 531 q 242 404 204 447 q 361 361 279 361 q 481 404 443 361 q 518 531 518 447 q 481 657 518 614 q 361 700 443 700 q 242 657 279 700 q 204 531 204 614 m 363 886 q 307 910 326 886 q 288 976 288 933 q 315 1073 288 1031 q 400 1151 342 1115 l 431 1114 q 375 1059 390 1082 q 357 1013 360 1036 l 361 1010 q 372 1015 364 1013 q 386 1018 379 1018 q 425 1000 410 1018 q 440 956 440 982 q 418 906 440 926 q 363 886 396 886 z "},"ǅ":{"ha":1811,"x_min":67,"x_max":1740,"o":"m 538 83 q 754 175 685 83 q 831 492 831 272 q 754 814 831 708 q 524 917 682 917 l 322 917 l 322 83 l 538 83 m 533 1000 q 856 883 740 1000 q 956 719 921 817 q 990 511 990 622 q 954 292 990 393 q 851 121 918 190 q 713 29 793 58 q 521 0 632 0 l 67 0 l 67 60 l 183 89 l 183 911 l 67 940 l 67 1000 l 533 1000 m 1661 267 l 1740 267 l 1740 0 l 1125 0 l 1125 78 l 1581 672 l 1256 672 l 1222 490 l 1143 490 l 1143 750 l 1735 750 l 1735 672 l 1279 78 l 1633 78 l 1661 267 m 1513 888 l 1365 888 l 1250 1083 l 1328 1083 l 1439 957 l 1554 1083 l 1628 1083 l 1513 888 z "},"ǆ":{"ha":1608,"x_min":64,"x_max":1538,"o":"m 64 368 q 88 540 64 460 q 158 674 111 621 q 253 741 199 718 q 382 764 308 764 q 494 740 444 764 q 585 656 544 717 l 585 1000 l 478 1026 l 478 1083 l 719 1083 l 719 83 l 826 57 l 826 0 l 611 -14 l 600 100 q 503 10 557 35 q 382 -14 449 -14 q 254 7 311 -14 q 160 74 197 28 q 90 203 115 128 q 64 368 64 279 m 585 369 q 536 618 585 540 q 482 673 514 654 q 397 692 450 692 q 257 626 303 692 q 221 526 232 590 q 210 379 210 463 q 258 132 210 213 q 314 77 282 96 q 399 58 346 58 q 482 74 447 58 q 536 122 517 90 q 572 223 560 161 q 585 369 585 285 m 1458 267 l 1538 267 l 1538 0 l 922 0 l 922 78 l 1378 672 l 1053 672 l 1019 490 l 940 490 l 940 750 l 1532 750 l 1532 672 l 1076 78 l 1431 78 l 1458 267 m 1310 888 l 1163 888 l 1047 1083 l 1125 1083 l 1236 957 l 1351 1083 l 1425 1083 l 1310 888 z "},"…":{"ha":994,"x_min":79,"x_max":917,"o":"m 79 74 q 103 140 79 115 q 167 164 126 164 q 231 139 207 164 q 256 74 256 114 q 231 10 256 33 q 167 -14 207 -14 q 102 9 125 -14 q 79 74 79 32 m 417 74 q 440 140 417 115 q 504 164 464 164 q 569 139 544 164 q 593 74 593 114 q 569 10 593 33 q 504 -14 544 -14 q 440 9 463 -14 q 417 74 417 32 m 740 74 q 764 140 740 115 q 828 164 788 164 q 892 139 868 164 q 917 74 917 114 q 892 10 917 33 q 828 -14 868 -14 q 763 9 786 -14 q 740 74 740 32 z "},"İ":{"ha":519,"x_min":60,"x_max":460,"o":"m 329 89 l 460 60 l 460 0 l 60 0 l 60 60 l 190 89 l 190 911 l 60 940 l 60 1000 l 460 1000 l 460 940 l 329 911 l 329 89 m 174 1156 q 197 1219 174 1196 q 260 1243 219 1243 q 324 1219 300 1243 q 347 1156 347 1196 q 324 1092 347 1115 q 260 1069 300 1069 q 197 1092 219 1069 q 174 1156 174 1115 z "},"Ċ":{"ha":950,"x_min":74,"x_max":900,"o":"m 515 939 q 318 853 383 939 q 253 710 276 799 q 229 517 229 622 q 250 331 229 417 q 308 188 271 246 q 399 102 346 129 q 533 75 453 75 q 731 134 657 75 q 824 310 804 193 l 900 310 q 775 66 868 146 q 519 -14 682 -14 q 214 97 328 -14 q 110 265 146 164 q 74 490 74 365 q 119 744 74 631 q 249 926 165 857 q 528 1014 354 1014 q 605 1009 571 1014 q 668 992 639 1004 q 723 961 697 981 q 775 913 749 942 l 803 1000 l 879 1000 l 879 693 l 794 693 q 515 939 754 939 m 444 1156 q 467 1219 444 1196 q 531 1243 490 1243 q 594 1219 571 1243 q 618 1156 618 1196 q 594 1092 618 1115 q 531 1069 571 1069 q 467 1092 490 1069 q 444 1156 444 1115 z "},"Ġ":{"ha":1046,"x_min":74,"x_max":1013,"o":"m 521 76 q 757 310 757 76 l 757 407 l 640 436 l 640 499 l 1013 499 l 1013 436 l 896 407 l 896 0 l 824 0 l 789 110 q 664 15 728 43 q 513 -14 600 -14 q 208 103 322 -14 q 108 268 143 169 q 74 489 74 367 q 110 718 74 613 q 214 894 147 824 q 518 1014 326 1014 q 660 988 601 1014 q 772 904 719 963 l 803 1000 l 879 1000 l 879 693 l 794 693 q 513 939 754 939 q 394 916 442 939 q 313 844 347 893 q 250 697 272 786 q 228 508 228 608 q 252 317 228 404 q 321 169 276 231 q 403 99 357 121 q 521 76 450 76 m 433 1156 q 456 1219 433 1196 q 519 1243 479 1243 q 583 1219 560 1243 q 607 1156 607 1196 q 583 1092 607 1115 q 519 1069 560 1069 q 456 1092 479 1069 q 433 1156 433 1115 z "},"Ż":{"ha":899,"x_min":51,"x_max":833,"o":"m 754 310 l 833 310 l 833 0 l 51 0 l 51 85 l 643 917 l 211 917 l 167 706 l 94 706 l 94 1000 l 801 1000 l 801 915 l 210 83 l 710 83 l 754 310 m 371 1156 q 394 1219 371 1196 q 457 1243 417 1243 q 521 1219 497 1243 q 544 1156 544 1196 q 521 1092 544 1115 q 457 1069 497 1069 q 394 1092 417 1069 q 371 1156 371 1115 z "},"Ṅ":{"ha":1113,"x_min":67,"x_max":1058,"o":"m 183 911 l 67 940 l 67 1000 l 332 1000 l 851 232 l 851 911 l 735 940 l 735 1000 l 1058 1000 l 1058 940 l 942 911 l 942 0 l 843 0 l 274 832 l 274 89 l 390 60 l 390 0 l 67 0 l 67 60 l 183 89 l 183 911 m 469 1156 q 492 1219 469 1196 q 556 1243 515 1243 q 619 1219 596 1243 q 643 1156 643 1196 q 619 1092 643 1115 q 556 1069 596 1069 q 492 1092 515 1069 q 469 1156 469 1115 z "},"Ï":{"ha":519,"x_min":19,"x_max":501,"o":"m 329 89 l 460 60 l 460 0 l 60 0 l 60 60 l 190 89 l 190 911 l 60 940 l 60 1000 l 460 1000 l 460 940 l 329 911 l 329 89 m 19 1154 q 41 1215 19 1193 q 100 1236 63 1236 q 160 1214 138 1236 q 182 1154 182 1192 q 160 1095 182 1117 q 100 1074 139 1074 q 41 1095 63 1074 q 19 1154 19 1117 m 339 1154 q 360 1215 339 1193 q 419 1236 382 1236 q 479 1214 457 1236 q 501 1154 501 1192 q 480 1095 501 1117 q 419 1074 458 1074 q 360 1095 382 1074 q 339 1154 339 1117 z "},"Ö":{"ha":1061,"x_min":74,"x_max":988,"o":"m 988 511 q 951 283 988 389 q 849 107 915 178 q 528 -14 736 -14 q 207 103 315 -14 q 108 270 143 169 q 74 489 74 371 q 110 717 74 611 q 213 893 146 822 q 348 985 271 956 q 531 1014 425 1014 q 853 897 740 1014 q 953 730 918 831 q 988 511 988 629 m 233 517 q 253 311 233 400 q 308 165 272 222 q 535 63 378 63 q 751 154 682 63 q 828 492 828 258 q 808 694 828 607 q 751 836 789 782 q 526 939 679 939 q 310 847 381 939 q 233 517 233 746 m 290 1154 q 312 1215 290 1193 q 371 1236 333 1236 q 431 1214 408 1236 q 453 1154 453 1192 q 431 1095 453 1117 q 371 1074 410 1074 q 312 1095 333 1074 q 290 1154 290 1117 m 610 1154 q 631 1215 610 1193 q 690 1236 653 1236 q 750 1214 728 1236 q 772 1154 772 1192 q 751 1095 772 1117 q 690 1074 729 1074 q 631 1095 653 1074 q 610 1154 610 1117 z "},"Ë":{"ha":951,"x_min":60,"x_max":872,"o":"m 585 331 l 560 472 l 329 472 l 329 83 l 749 83 l 792 310 l 872 310 l 872 0 l 60 0 l 60 60 l 190 89 l 190 911 l 60 940 l 60 1000 l 842 1000 l 842 706 l 769 706 l 725 919 l 329 919 l 329 556 l 560 556 l 585 697 l 656 697 l 656 331 l 585 331 m 240 1154 q 262 1215 240 1193 q 321 1236 283 1236 q 381 1214 358 1236 q 403 1154 403 1192 q 381 1095 403 1117 q 321 1074 360 1074 q 262 1095 283 1074 q 240 1154 240 1117 m 560 1154 q 581 1215 560 1193 q 640 1236 603 1236 q 700 1214 678 1236 q 722 1154 722 1192 q 701 1095 722 1117 q 640 1074 679 1074 q 581 1095 603 1074 q 560 1154 560 1117 z "},"Ü":{"ha":1072,"x_min":44,"x_max":1026,"o":"m 822 911 l 706 940 l 706 1000 l 1026 1000 l 1026 940 l 910 911 l 910 338 q 817 74 910 164 q 544 -15 725 -15 q 260 76 358 -15 q 161 339 161 168 l 161 911 l 44 940 l 44 1000 l 417 1000 l 417 940 l 300 911 l 300 363 q 575 61 300 61 q 764 131 706 61 q 822 360 822 201 l 822 911 m 322 1154 q 344 1215 322 1193 q 403 1236 365 1236 q 463 1214 440 1236 q 485 1154 485 1192 q 463 1095 485 1117 q 403 1074 442 1074 q 344 1095 365 1074 q 322 1154 322 1117 m 642 1154 q 663 1215 642 1193 q 722 1236 685 1236 q 782 1214 760 1236 q 804 1154 804 1192 q 783 1095 804 1117 q 722 1074 761 1074 q 663 1095 685 1074 q 642 1154 642 1117 z "},"Ä":{"ha":1001,"x_min":-10,"x_max":1007,"o":"m 657 336 l 285 336 l 200 89 l 315 60 l 315 0 l -10 0 l -10 60 l 104 89 l 438 1014 l 567 1014 l 896 89 l 1007 60 l 1007 0 l 625 0 l 625 60 l 739 89 l 657 336 m 313 417 l 631 417 l 481 890 l 475 890 l 313 417 m 263 1154 q 284 1215 263 1193 q 343 1236 306 1236 q 403 1214 381 1236 q 425 1154 425 1192 q 403 1095 425 1117 q 343 1074 382 1074 q 284 1095 306 1074 q 263 1154 263 1117 m 582 1154 q 603 1215 582 1193 q 663 1236 625 1236 q 722 1214 700 1236 q 744 1154 744 1192 q 723 1095 744 1117 q 663 1074 701 1074 q 603 1095 625 1074 q 582 1154 582 1117 z "},"Ẅ":{"ha":1446,"x_min":-7,"x_max":1447,"o":"m 1239 913 l 1129 940 l 1129 1000 l 1447 1000 l 1447 940 l 1332 911 l 1068 0 l 924 0 l 719 668 l 535 0 l 390 0 l 101 911 l -7 940 l -7 1000 l 388 1000 l 388 940 l 254 911 l 483 131 l 489 131 l 678 828 l 660 911 l 551 940 l 551 1000 l 918 1000 l 918 940 l 790 911 l 1018 131 l 1024 131 l 1239 913 m 486 1154 q 508 1215 486 1193 q 567 1236 529 1236 q 626 1214 604 1236 q 649 1154 649 1192 q 627 1095 649 1117 q 567 1074 606 1074 q 508 1095 529 1074 q 486 1154 486 1117 m 806 1154 q 827 1215 806 1193 q 886 1236 849 1236 q 946 1214 924 1236 q 968 1154 968 1192 q 947 1095 968 1117 q 886 1074 925 1074 q 827 1095 849 1074 q 806 1154 806 1117 z "},"Ÿ":{"ha":942,"x_min":-7,"x_max":943,"o":"m 740 911 l 628 940 l 628 1000 l 943 1000 l 943 940 l 829 911 l 546 392 l 546 89 l 676 60 l 676 0 l 276 0 l 276 60 l 407 89 l 407 369 l 108 911 l -7 940 l -7 1000 l 376 1000 l 376 940 l 260 911 l 499 467 l 740 911 m 258 1156 q 280 1216 258 1194 q 339 1238 301 1238 q 399 1215 376 1238 q 421 1156 421 1193 q 399 1097 421 1118 q 339 1075 378 1075 q 280 1097 301 1075 q 258 1156 258 1118 m 578 1156 q 599 1216 578 1194 q 658 1238 621 1238 q 718 1215 696 1238 q 740 1156 740 1193 q 719 1097 740 1118 q 658 1075 697 1075 q 599 1097 621 1075 q 578 1156 578 1118 z "},"Í":{"ha":519,"x_min":60,"x_max":463,"o":"m 329 89 l 460 60 l 460 0 l 60 0 l 60 60 l 190 89 l 190 911 l 60 940 l 60 1000 l 460 1000 l 460 940 l 329 911 l 329 89 m 307 1176 q 360 1228 336 1214 q 411 1243 385 1243 q 463 1201 463 1243 q 438 1160 463 1179 q 361 1110 414 1142 l 296 1069 l 222 1069 l 307 1176 z "},"Ó":{"ha":1061,"x_min":74,"x_max":988,"o":"m 988 511 q 951 283 988 389 q 849 107 915 178 q 528 -14 736 -14 q 207 103 315 -14 q 108 270 143 169 q 74 489 74 371 q 110 717 74 611 q 213 893 146 822 q 348 985 271 956 q 531 1014 425 1014 q 853 897 740 1014 q 953 730 918 831 q 988 511 988 629 m 233 517 q 253 311 233 400 q 308 165 272 222 q 535 63 378 63 q 751 154 682 63 q 828 492 828 258 q 808 694 828 607 q 751 836 789 782 q 526 939 679 939 q 310 847 381 939 q 233 517 233 746 m 578 1176 q 631 1228 607 1214 q 682 1243 656 1243 q 733 1201 733 1243 q 709 1160 733 1179 q 632 1110 685 1142 l 567 1069 l 493 1069 l 578 1176 z "},"É":{"ha":951,"x_min":60,"x_max":872,"o":"m 585 331 l 560 472 l 329 472 l 329 83 l 749 83 l 792 310 l 872 310 l 872 0 l 60 0 l 60 60 l 190 89 l 190 911 l 60 940 l 60 1000 l 842 1000 l 842 706 l 769 706 l 725 919 l 329 919 l 329 556 l 560 556 l 585 697 l 656 697 l 656 331 l 585 331 m 528 1176 q 581 1228 557 1214 q 632 1243 606 1243 q 683 1201 683 1243 q 659 1160 683 1179 q 582 1110 635 1142 l 517 1069 l 443 1069 l 528 1176 z "},"Ŕ":{"ha":981,"x_min":67,"x_max":978,"o":"m 754 531 q 696 497 729 511 q 614 474 663 483 q 669 399 639 449 l 854 86 l 978 60 l 978 0 l 692 0 l 692 60 l 492 449 l 322 449 l 322 89 l 454 60 l 454 0 l 67 0 l 67 60 l 183 89 l 183 911 l 67 940 l 67 1000 l 544 1000 q 661 988 611 1000 q 751 947 711 975 q 831 856 803 914 q 860 739 860 797 q 831 624 860 681 q 754 531 803 568 m 521 529 q 647 572 597 529 q 691 640 675 597 q 707 731 707 682 q 691 819 707 779 q 646 883 675 858 q 591 911 622 903 q 515 919 560 919 l 322 919 l 322 529 l 521 529 m 476 1176 q 530 1228 506 1214 q 581 1243 554 1243 q 632 1201 632 1243 q 608 1160 632 1179 q 531 1110 583 1142 l 465 1069 l 392 1069 l 476 1176 z "},"Ĺ":{"ha":874,"x_min":60,"x_max":831,"o":"m 329 83 l 707 83 l 754 324 l 831 324 l 831 0 l 60 0 l 60 60 l 190 89 l 190 911 l 60 940 l 60 1000 l 474 1000 l 474 940 l 329 911 l 329 83 m 306 1176 q 359 1228 335 1214 q 410 1243 383 1243 q 461 1201 461 1243 q 437 1160 461 1179 q 360 1110 413 1142 l 294 1069 l 221 1069 l 306 1176 z "},"Ć":{"ha":950,"x_min":74,"x_max":900,"o":"m 515 939 q 318 853 383 939 q 253 710 276 799 q 229 517 229 622 q 250 331 229 417 q 308 188 271 246 q 399 102 346 129 q 533 75 453 75 q 731 134 657 75 q 824 310 804 193 l 900 310 q 775 66 868 146 q 519 -14 682 -14 q 214 97 328 -14 q 110 265 146 164 q 74 490 74 365 q 119 744 74 631 q 249 926 165 857 q 528 1014 354 1014 q 605 1009 571 1014 q 668 992 639 1004 q 723 961 697 981 q 775 913 749 942 l 803 1000 l 879 1000 l 879 693 l 794 693 q 515 939 754 939 m 578 1176 q 631 1228 607 1214 q 682 1243 656 1243 q 733 1201 733 1243 q 709 1160 733 1179 q 632 1110 685 1142 l 567 1069 l 493 1069 l 578 1176 z "},"Ź":{"ha":899,"x_min":51,"x_max":833,"o":"m 754 310 l 833 310 l 833 0 l 51 0 l 51 85 l 643 917 l 211 917 l 167 706 l 94 706 l 94 1000 l 801 1000 l 801 915 l 210 83 l 710 83 l 754 310 m 504 1176 q 558 1228 533 1214 q 608 1243 582 1243 q 660 1201 660 1243 q 635 1160 660 1179 q 558 1110 611 1142 l 493 1069 l 419 1069 l 504 1176 z "},"Ú":{"ha":1072,"x_min":44,"x_max":1026,"o":"m 822 911 l 706 940 l 706 1000 l 1026 1000 l 1026 940 l 910 911 l 910 338 q 817 74 910 164 q 544 -15 725 -15 q 260 76 358 -15 q 161 339 161 168 l 161 911 l 44 940 l 44 1000 l 417 1000 l 417 940 l 300 911 l 300 363 q 575 61 300 61 q 764 131 706 61 q 822 360 822 201 l 822 911 m 610 1176 q 663 1228 639 1214 q 714 1243 688 1243 q 765 1201 765 1243 q 741 1160 765 1179 q 664 1110 717 1142 l 599 1069 l 525 1069 l 610 1176 z "},"Ń":{"ha":1113,"x_min":67,"x_max":1058,"o":"m 183 911 l 67 940 l 67 1000 l 332 1000 l 851 232 l 851 911 l 735 940 l 735 1000 l 1058 1000 l 1058 940 l 942 911 l 942 0 l 843 0 l 274 832 l 274 89 l 390 60 l 390 0 l 67 0 l 67 60 l 183 89 l 183 911 m 603 1176 q 656 1228 632 1214 q 707 1243 681 1243 q 758 1201 758 1243 q 734 1160 758 1179 q 657 1110 710 1142 l 592 1069 l 518 1069 l 603 1176 z "},"Á":{"ha":1001,"x_min":-10,"x_max":1007,"o":"m 657 336 l 285 336 l 200 89 l 315 60 l 315 0 l -10 0 l -10 60 l 104 89 l 438 1014 l 567 1014 l 896 89 l 1007 60 l 1007 0 l 625 0 l 625 60 l 739 89 l 657 336 m 313 417 l 631 417 l 481 890 l 475 890 l 313 417 m 550 1176 q 603 1228 579 1214 q 654 1243 628 1243 q 706 1201 706 1243 q 681 1160 706 1179 q 604 1110 657 1142 l 539 1069 l 465 1069 l 550 1176 z "},"Ẃ":{"ha":1446,"x_min":-7,"x_max":1447,"o":"m 1239 913 l 1129 940 l 1129 1000 l 1447 1000 l 1447 940 l 1332 911 l 1068 0 l 924 0 l 719 668 l 535 0 l 390 0 l 101 911 l -7 940 l -7 1000 l 388 1000 l 388 940 l 254 911 l 483 131 l 489 131 l 678 828 l 660 911 l 551 940 l 551 1000 l 918 1000 l 918 940 l 790 911 l 1018 131 l 1024 131 l 1239 913 m 774 1176 q 827 1228 803 1214 q 878 1243 851 1243 q 929 1201 929 1243 q 905 1160 929 1179 q 828 1110 881 1142 l 763 1069 l 689 1069 l 774 1176 z "},"Ý":{"ha":942,"x_min":-7,"x_max":943,"o":"m 740 911 l 628 940 l 628 1000 l 943 1000 l 943 940 l 829 911 l 546 392 l 546 89 l 676 60 l 676 0 l 276 0 l 276 60 l 407 89 l 407 369 l 108 911 l -7 940 l -7 1000 l 376 1000 l 376 940 l 260 911 l 499 467 l 740 911 m 546 1178 q 599 1230 575 1215 q 650 1244 624 1244 q 701 1203 701 1244 q 677 1162 701 1181 q 600 1111 653 1143 l 535 1071 l 461 1071 l 546 1178 z "},"Ś":{"ha":832,"x_min":92,"x_max":758,"o":"m 446 -15 q 296 10 363 -15 q 185 81 229 35 l 169 0 l 92 0 l 92 315 l 176 315 q 242 122 185 182 q 419 61 300 61 q 618 213 618 61 q 601 290 618 257 q 551 351 583 324 q 473 401 519 378 q 368 447 426 424 q 251 499 301 474 q 166 558 200 525 q 114 633 132 590 q 96 736 96 675 q 178 942 96 868 q 400 1015 261 1015 q 624 938 538 1015 l 635 1000 l 713 1000 l 713 685 l 633 685 q 584 880 633 819 q 426 940 535 940 q 236 767 236 940 q 244 708 236 732 q 276 663 253 683 q 338 622 299 642 q 438 576 376 603 q 585 505 524 539 q 684 433 646 471 q 740 353 722 396 q 758 256 758 310 q 735 141 758 192 q 672 56 713 90 q 573 3 631 21 q 446 -15 515 -15 m 447 1176 q 501 1228 476 1214 q 551 1243 525 1243 q 603 1201 603 1243 q 578 1160 603 1179 q 501 1110 554 1142 l 436 1069 l 363 1069 l 447 1176 z "},"Ì":{"ha":519,"x_min":60,"x_max":460,"o":"m 329 89 l 460 60 l 460 0 l 60 0 l 60 60 l 190 89 l 190 911 l 60 940 l 60 1000 l 460 1000 l 460 940 l 329 911 l 329 89 m 354 1069 l 281 1069 l 215 1110 q 138 1160 163 1142 q 114 1201 114 1179 q 165 1243 114 1243 q 216 1228 192 1243 q 269 1176 240 1214 l 354 1069 z "},"Ò":{"ha":1061,"x_min":74,"x_max":988,"o":"m 988 511 q 951 283 988 389 q 849 107 915 178 q 528 -14 736 -14 q 207 103 315 -14 q 108 270 143 169 q 74 489 74 371 q 110 717 74 611 q 213 893 146 822 q 348 985 271 956 q 531 1014 425 1014 q 853 897 740 1014 q 953 730 918 831 q 988 511 988 629 m 233 517 q 253 311 233 400 q 308 165 272 222 q 535 63 378 63 q 751 154 682 63 q 828 492 828 258 q 808 694 828 607 q 751 836 789 782 q 526 939 679 939 q 310 847 381 939 q 233 517 233 746 m 629 1069 l 556 1069 l 490 1110 q 413 1160 438 1142 q 389 1201 389 1179 q 440 1243 389 1243 q 491 1228 467 1243 q 544 1176 515 1214 l 629 1069 z "},"È":{"ha":951,"x_min":60,"x_max":872,"o":"m 585 331 l 560 472 l 329 472 l 329 83 l 749 83 l 792 310 l 872 310 l 872 0 l 60 0 l 60 60 l 190 89 l 190 911 l 60 940 l 60 1000 l 842 1000 l 842 706 l 769 706 l 725 919 l 329 919 l 329 556 l 560 556 l 585 697 l 656 697 l 656 331 l 585 331 m 576 1069 l 503 1069 l 438 1110 q 360 1160 385 1142 q 336 1201 336 1179 q 388 1243 336 1243 q 438 1228 414 1243 q 492 1176 463 1214 l 576 1069 z "},"Ù":{"ha":1072,"x_min":44,"x_max":1026,"o":"m 822 911 l 706 940 l 706 1000 l 1026 1000 l 1026 940 l 910 911 l 910 338 q 817 74 910 164 q 544 -15 725 -15 q 260 76 358 -15 q 161 339 161 168 l 161 911 l 44 940 l 44 1000 l 417 1000 l 417 940 l 300 911 l 300 363 q 575 61 300 61 q 764 131 706 61 q 822 360 822 201 l 822 911 m 660 1069 l 586 1069 l 521 1110 q 444 1160 468 1142 q 419 1201 419 1179 q 471 1243 419 1243 q 522 1228 497 1243 q 575 1176 546 1214 l 660 1069 z "},"À":{"ha":1001,"x_min":-10,"x_max":1007,"o":"m 657 336 l 285 336 l 200 89 l 315 60 l 315 0 l -10 0 l -10 60 l 104 89 l 438 1014 l 567 1014 l 896 89 l 1007 60 l 1007 0 l 625 0 l 625 60 l 739 89 l 657 336 m 313 417 l 631 417 l 481 890 l 475 890 l 313 417 m 567 1069 l 493 1069 l 428 1110 q 351 1160 375 1142 q 326 1201 326 1179 q 378 1243 326 1243 q 428 1228 404 1243 q 482 1176 453 1214 l 567 1069 z "},"Ẁ":{"ha":1446,"x_min":-7,"x_max":1447,"o":"m 1239 913 l 1129 940 l 1129 1000 l 1447 1000 l 1447 940 l 1332 911 l 1068 0 l 924 0 l 719 668 l 535 0 l 390 0 l 101 911 l -7 940 l -7 1000 l 388 1000 l 388 940 l 254 911 l 483 131 l 489 131 l 678 828 l 660 911 l 551 940 l 551 1000 l 918 1000 l 918 940 l 790 911 l 1018 131 l 1024 131 l 1239 913 m 801 1069 l 728 1069 l 663 1110 q 585 1160 610 1142 q 561 1201 561 1179 q 613 1243 561 1243 q 663 1228 639 1243 q 717 1176 688 1214 l 801 1069 z "},"Ỳ":{"ha":942,"x_min":-7,"x_max":943,"o":"m 740 911 l 628 940 l 628 1000 l 943 1000 l 943 940 l 829 911 l 546 392 l 546 89 l 676 60 l 676 0 l 276 0 l 276 60 l 407 89 l 407 369 l 108 911 l -7 940 l -7 1000 l 376 1000 l 376 940 l 260 911 l 499 467 l 740 911 m 579 1071 l 506 1071 l 440 1111 q 363 1162 388 1143 q 339 1203 339 1181 q 390 1244 339 1244 q 441 1230 417 1244 q 494 1178 465 1215 l 579 1071 z "},"Ő":{"ha":1061,"x_min":74,"x_max":988,"o":"m 988 511 q 951 283 988 389 q 849 107 915 178 q 528 -14 736 -14 q 207 103 315 -14 q 108 270 143 169 q 74 489 74 371 q 110 717 74 611 q 213 893 146 822 q 348 985 271 956 q 531 1014 425 1014 q 853 897 740 1014 q 953 730 918 831 q 988 511 988 629 m 233 517 q 253 311 233 400 q 308 165 272 222 q 535 63 378 63 q 751 154 682 63 q 828 492 828 258 q 808 694 828 607 q 751 836 789 782 q 526 939 679 939 q 310 847 381 939 q 233 517 233 746 m 457 1176 q 510 1228 486 1214 q 561 1243 535 1243 q 613 1201 613 1243 q 588 1160 613 1179 q 511 1110 564 1142 l 446 1069 l 372 1069 l 457 1176 m 707 1176 q 760 1228 736 1214 q 811 1243 785 1243 q 863 1201 863 1243 q 838 1160 863 1179 q 761 1110 814 1142 l 696 1069 l 622 1069 l 707 1176 z "},"Ű":{"ha":1072,"x_min":44,"x_max":1026,"o":"m 822 911 l 706 940 l 706 1000 l 1026 1000 l 1026 940 l 910 911 l 910 338 q 817 74 910 164 q 544 -15 725 -15 q 260 76 358 -15 q 161 339 161 168 l 161 911 l 44 940 l 44 1000 l 417 1000 l 417 940 l 300 911 l 300 363 q 575 61 300 61 q 764 131 706 61 q 822 360 822 201 l 822 911 m 489 1176 q 542 1228 518 1214 q 593 1243 567 1243 q 644 1201 644 1243 q 620 1160 644 1179 q 543 1110 596 1142 l 478 1069 l 404 1069 l 489 1176 m 739 1176 q 792 1228 768 1214 q 843 1243 817 1243 q 894 1201 894 1243 q 870 1160 894 1179 q 793 1110 846 1142 l 728 1069 l 654 1069 l 739 1176 z "},"ĺ":{"ha":428,"x_min":39,"x_max":403,"o":"m 247 1176 q 301 1228 276 1214 q 351 1243 325 1243 q 403 1201 403 1243 q 378 1160 403 1179 q 301 1110 354 1142 l 236 1069 l 163 1069 l 247 1176 m 146 917 l 39 943 l 39 1000 l 281 1000 l 281 83 l 388 57 l 388 0 l 39 0 l 39 57 l 146 83 l 146 917 z "},"Ĩ":{"ha":519,"x_min":4,"x_max":515,"o":"m 329 89 l 460 60 l 460 0 l 60 0 l 60 60 l 190 89 l 190 911 l 60 940 l 60 1000 l 460 1000 l 460 940 l 329 911 l 329 89 m 4 1069 q 160 1229 26 1229 q 221 1217 194 1229 q 269 1191 247 1206 q 313 1165 292 1176 q 363 1153 335 1153 q 425 1171 404 1153 q 453 1222 446 1189 l 515 1222 q 360 1054 490 1054 q 299 1066 325 1054 q 251 1092 274 1078 q 206 1119 228 1107 q 157 1132 183 1132 q 94 1115 115 1132 q 67 1069 74 1099 l 4 1069 z "},"Õ":{"ha":1061,"x_min":74,"x_max":988,"o":"m 988 511 q 951 283 988 389 q 849 107 915 178 q 528 -14 736 -14 q 207 103 315 -14 q 108 270 143 169 q 74 489 74 371 q 110 717 74 611 q 213 893 146 822 q 348 985 271 956 q 531 1014 425 1014 q 853 897 740 1014 q 953 730 918 831 q 988 511 988 629 m 233 517 q 253 311 233 400 q 308 165 272 222 q 535 63 378 63 q 751 154 682 63 q 828 492 828 258 q 808 694 828 607 q 751 836 789 782 q 526 939 679 939 q 310 847 381 939 q 233 517 233 746 m 275 1069 q 431 1229 297 1229 q 492 1217 465 1229 q 540 1191 518 1206 q 584 1165 563 1176 q 633 1153 606 1153 q 696 1171 675 1153 q 724 1222 717 1189 l 786 1222 q 631 1054 761 1054 q 570 1066 596 1054 q 522 1092 544 1078 q 476 1119 499 1107 q 428 1132 454 1132 q 365 1115 386 1132 q 338 1069 344 1099 l 275 1069 z "},"Ẽ":{"ha":951,"x_min":60,"x_max":872,"o":"m 585 331 l 560 472 l 329 472 l 329 83 l 749 83 l 792 310 l 872 310 l 872 0 l 60 0 l 60 60 l 190 89 l 190 911 l 60 940 l 60 1000 l 842 1000 l 842 706 l 769 706 l 725 919 l 329 919 l 329 556 l 560 556 l 585 697 l 656 697 l 656 331 l 585 331 m 225 1069 q 381 1229 247 1229 q 442 1217 415 1229 q 490 1191 468 1206 q 534 1165 513 1176 q 583 1153 556 1153 q 646 1171 625 1153 q 674 1222 667 1189 l 736 1222 q 581 1054 711 1054 q 520 1066 546 1054 q 472 1092 494 1078 q 426 1119 449 1107 q 378 1132 404 1132 q 315 1115 336 1132 q 288 1069 294 1099 l 225 1069 z "},"Ũ":{"ha":1072,"x_min":44,"x_max":1026,"o":"m 822 911 l 706 940 l 706 1000 l 1026 1000 l 1026 940 l 910 911 l 910 338 q 817 74 910 164 q 544 -15 725 -15 q 260 76 358 -15 q 161 339 161 168 l 161 911 l 44 940 l 44 1000 l 417 1000 l 417 940 l 300 911 l 300 363 q 575 61 300 61 q 764 131 706 61 q 822 360 822 201 l 822 911 m 307 1069 q 463 1229 329 1229 q 524 1217 497 1229 q 572 1191 550 1206 q 616 1165 594 1176 q 665 1153 638 1153 q 728 1171 707 1153 q 756 1222 749 1189 l 818 1222 q 663 1054 793 1054 q 602 1066 628 1054 q 553 1092 576 1078 q 508 1119 531 1107 q 460 1132 486 1132 q 397 1115 418 1132 q 369 1069 376 1099 l 307 1069 z "},"Ñ":{"ha":1113,"x_min":67,"x_max":1058,"o":"m 183 911 l 67 940 l 67 1000 l 332 1000 l 851 232 l 851 911 l 735 940 l 735 1000 l 1058 1000 l 1058 940 l 942 911 l 942 0 l 843 0 l 274 832 l 274 89 l 390 60 l 390 0 l 67 0 l 67 60 l 183 89 l 183 911 m 300 1069 q 456 1229 322 1229 q 517 1217 490 1229 q 565 1191 543 1206 q 609 1165 588 1176 q 658 1153 631 1153 q 721 1171 700 1153 q 749 1222 742 1189 l 811 1222 q 656 1054 786 1054 q 595 1066 621 1054 q 547 1092 569 1078 q 501 1119 524 1107 q 453 1132 479 1132 q 390 1115 411 1132 q 363 1069 369 1099 l 300 1069 z "},"Ã":{"ha":1001,"x_min":-10,"x_max":1007,"o":"m 657 336 l 285 336 l 200 89 l 315 60 l 315 0 l -10 0 l -10 60 l 104 89 l 438 1014 l 567 1014 l 896 89 l 1007 60 l 1007 0 l 625 0 l 625 60 l 739 89 l 657 336 m 313 417 l 631 417 l 481 890 l 475 890 l 313 417 m 247 1069 q 403 1229 269 1229 q 464 1217 438 1229 q 513 1191 490 1206 q 556 1165 535 1176 q 606 1153 578 1153 q 668 1171 647 1153 q 696 1222 689 1189 l 758 1222 q 603 1054 733 1054 q 542 1066 568 1054 q 494 1092 517 1078 q 449 1119 471 1107 q 400 1132 426 1132 q 338 1115 358 1132 q 310 1069 317 1099 l 247 1069 z "},"Ỹ":{"ha":942,"x_min":-7,"x_max":943,"o":"m 740 911 l 628 940 l 628 1000 l 943 1000 l 943 940 l 829 911 l 546 392 l 546 89 l 676 60 l 676 0 l 276 0 l 276 60 l 407 89 l 407 369 l 108 911 l -7 940 l -7 1000 l 376 1000 l 376 940 l 260 911 l 499 467 l 740 911 m 243 1071 q 399 1231 265 1231 q 460 1219 433 1231 q 508 1192 486 1207 q 552 1166 531 1178 q 601 1154 574 1154 q 664 1172 643 1154 q 692 1224 685 1190 l 754 1224 q 599 1056 729 1056 q 538 1067 564 1056 q 490 1094 513 1079 q 444 1121 467 1108 q 396 1133 422 1133 q 333 1117 354 1133 q 306 1071 313 1100 l 243 1071 z "},"Ŏ":{"ha":1061,"x_min":74,"x_max":988,"o":"m 988 511 q 951 283 988 389 q 849 107 915 178 q 528 -14 736 -14 q 207 103 315 -14 q 108 270 143 169 q 74 489 74 371 q 110 717 74 611 q 213 893 146 822 q 348 985 271 956 q 531 1014 425 1014 q 853 897 740 1014 q 953 730 918 831 q 988 511 988 629 m 233 517 q 253 311 233 400 q 308 165 272 222 q 535 63 378 63 q 751 154 682 63 q 828 492 828 258 q 808 694 828 607 q 751 836 789 782 q 526 939 679 939 q 310 847 381 939 q 233 517 233 746 m 743 1236 q 681 1092 740 1143 q 531 1040 621 1040 q 385 1094 436 1040 q 335 1236 335 1149 l 401 1236 q 440 1160 404 1183 q 531 1136 476 1136 q 638 1160 600 1136 q 676 1236 676 1183 l 743 1236 z "},"Ĕ":{"ha":951,"x_min":60,"x_max":872,"o":"m 585 331 l 560 472 l 329 472 l 329 83 l 749 83 l 792 310 l 872 310 l 872 0 l 60 0 l 60 60 l 190 89 l 190 911 l 60 940 l 60 1000 l 842 1000 l 842 706 l 769 706 l 725 919 l 329 919 l 329 556 l 560 556 l 585 697 l 656 697 l 656 331 l 585 331 m 693 1236 q 631 1092 690 1143 q 481 1040 571 1040 q 335 1094 386 1040 q 285 1236 285 1149 l 351 1236 q 390 1160 354 1183 q 481 1136 426 1136 q 588 1160 550 1136 q 626 1236 626 1183 l 693 1236 z "},"Ğ":{"ha":1046,"x_min":74,"x_max":1013,"o":"m 521 76 q 757 310 757 76 l 757 407 l 640 436 l 640 499 l 1013 499 l 1013 436 l 896 407 l 896 0 l 824 0 l 789 110 q 664 15 728 43 q 513 -14 600 -14 q 208 103 322 -14 q 108 268 143 169 q 74 489 74 367 q 110 718 74 613 q 214 894 147 824 q 518 1014 326 1014 q 660 988 601 1014 q 772 904 719 963 l 803 1000 l 879 1000 l 879 693 l 794 693 q 513 939 754 939 q 394 916 442 939 q 313 844 347 893 q 250 697 272 786 q 228 508 228 608 q 252 317 228 404 q 321 169 276 231 q 403 99 357 121 q 521 76 450 76 m 732 1236 q 669 1092 729 1143 q 519 1040 610 1040 q 374 1094 425 1040 q 324 1236 324 1149 l 390 1236 q 429 1160 393 1183 q 519 1136 465 1136 q 627 1160 589 1136 q 665 1236 665 1183 l 732 1236 z "},"Ŭ":{"ha":1072,"x_min":44,"x_max":1026,"o":"m 822 911 l 706 940 l 706 1000 l 1026 1000 l 1026 940 l 910 911 l 910 338 q 817 74 910 164 q 544 -15 725 -15 q 260 76 358 -15 q 161 339 161 168 l 161 911 l 44 940 l 44 1000 l 417 1000 l 417 940 l 300 911 l 300 363 q 575 61 300 61 q 764 131 706 61 q 822 360 822 201 l 822 911 m 775 1236 q 713 1092 772 1143 q 563 1040 653 1040 q 417 1094 468 1040 q 367 1236 367 1149 l 433 1236 q 472 1160 436 1183 q 563 1136 508 1136 q 670 1160 632 1136 q 708 1236 708 1183 l 775 1236 z "},"Ă":{"ha":1001,"x_min":-10,"x_max":1007,"o":"m 657 336 l 285 336 l 200 89 l 315 60 l 315 0 l -10 0 l -10 60 l 104 89 l 438 1014 l 567 1014 l 896 89 l 1007 60 l 1007 0 l 625 0 l 625 60 l 739 89 l 657 336 m 313 417 l 631 417 l 481 890 l 475 890 l 313 417 m 715 1236 q 653 1092 713 1143 q 503 1040 593 1040 q 358 1094 408 1040 q 307 1236 307 1149 l 374 1236 q 413 1160 376 1183 q 503 1136 449 1136 q 610 1160 572 1136 q 649 1236 649 1183 l 715 1236 z "},"Å":{"ha":1001,"x_min":-10,"x_max":1007,"o":"m 657 336 l 285 336 l 200 89 l 315 60 l 315 0 l -10 0 l -10 60 l 104 89 l 438 1014 l 567 1014 l 896 89 l 1007 60 l 1007 0 l 625 0 l 625 60 l 739 89 l 657 336 m 313 417 l 631 417 l 481 890 l 475 890 l 313 417 m 399 1144 q 429 1219 399 1189 q 503 1250 460 1250 q 578 1219 547 1250 q 608 1144 608 1189 q 578 1072 608 1101 q 503 1042 547 1042 q 429 1072 460 1042 q 399 1144 399 1101 m 474 1144 q 482 1124 474 1132 q 503 1115 490 1115 q 526 1124 517 1115 q 535 1144 535 1132 q 526 1167 535 1158 q 503 1176 517 1176 q 482 1167 490 1176 q 474 1144 474 1158 z "},"Ī":{"ha":519,"x_min":60,"x_max":460,"o":"m 329 89 l 460 60 l 460 0 l 60 0 l 60 60 l 190 89 l 190 911 l 60 940 l 60 1000 l 460 1000 l 460 940 l 329 911 l 329 89 m 65 1196 l 453 1196 l 453 1106 l 65 1106 l 65 1196 z "},"Ō":{"ha":1061,"x_min":74,"x_max":988,"o":"m 988 511 q 951 283 988 389 q 849 107 915 178 q 528 -14 736 -14 q 207 103 315 -14 q 108 270 143 169 q 74 489 74 371 q 110 717 74 611 q 213 893 146 822 q 348 985 271 956 q 531 1014 425 1014 q 853 897 740 1014 q 953 730 918 831 q 988 511 988 629 m 233 517 q 253 311 233 400 q 308 165 272 222 q 535 63 378 63 q 751 154 682 63 q 828 492 828 258 q 808 694 828 607 q 751 836 789 782 q 526 939 679 939 q 310 847 381 939 q 233 517 233 746 m 336 1196 l 724 1196 l 724 1106 l 336 1106 l 336 1196 z "},"Ē":{"ha":951,"x_min":60,"x_max":872,"o":"m 585 331 l 560 472 l 329 472 l 329 83 l 749 83 l 792 310 l 872 310 l 872 0 l 60 0 l 60 60 l 190 89 l 190 911 l 60 940 l 60 1000 l 842 1000 l 842 706 l 769 706 l 725 919 l 329 919 l 329 556 l 560 556 l 585 697 l 656 697 l 656 331 l 585 331 m 286 1196 l 674 1196 l 674 1106 l 286 1106 l 286 1196 z "},"Ū":{"ha":1072,"x_min":44,"x_max":1026,"o":"m 822 911 l 706 940 l 706 1000 l 1026 1000 l 1026 940 l 910 911 l 910 338 q 817 74 910 164 q 544 -15 725 -15 q 260 76 358 -15 q 161 339 161 168 l 161 911 l 44 940 l 44 1000 l 417 1000 l 417 940 l 300 911 l 300 363 q 575 61 300 61 q 764 131 706 61 q 822 360 822 201 l 822 911 m 368 1196 l 756 1196 l 756 1106 l 368 1106 l 368 1196 z "},"Ā":{"ha":1001,"x_min":-10,"x_max":1007,"o":"m 657 336 l 285 336 l 200 89 l 315 60 l 315 0 l -10 0 l -10 60 l 104 89 l 438 1014 l 567 1014 l 896 89 l 1007 60 l 1007 0 l 625 0 l 625 60 l 739 89 l 657 336 m 313 417 l 631 417 l 481 890 l 475 890 l 313 417 m 308 1196 l 696 1196 l 696 1106 l 308 1106 l 308 1196 z "},"Î":{"ha":519,"x_min":29,"x_max":490,"o":"m 329 89 l 460 60 l 460 0 l 60 0 l 60 60 l 190 89 l 190 911 l 60 940 l 60 1000 l 460 1000 l 460 940 l 329 911 l 329 89 m 490 1068 l 417 1068 l 260 1153 l 103 1068 l 29 1068 l 193 1236 l 325 1236 l 490 1068 z "},"Ĥ":{"ha":1115,"x_min":67,"x_max":1049,"o":"m 932 89 l 1049 60 l 1049 0 l 676 0 l 676 60 l 793 89 l 793 474 l 322 474 l 322 89 l 439 60 l 439 0 l 67 0 l 67 60 l 183 89 l 183 911 l 67 940 l 67 1000 l 439 1000 l 439 940 l 322 911 l 322 554 l 793 554 l 793 911 l 676 940 l 676 1000 l 1049 1000 l 1049 940 l 932 911 l 932 89 m 793 1068 l 719 1068 l 563 1153 l 406 1068 l 332 1068 l 496 1236 l 628 1236 l 793 1068 z "},"Ô":{"ha":1061,"x_min":74,"x_max":988,"o":"m 988 511 q 951 283 988 389 q 849 107 915 178 q 528 -14 736 -14 q 207 103 315 -14 q 108 270 143 169 q 74 489 74 371 q 110 717 74 611 q 213 893 146 822 q 348 985 271 956 q 531 1014 425 1014 q 853 897 740 1014 q 953 730 918 831 q 988 511 988 629 m 233 517 q 253 311 233 400 q 308 165 272 222 q 535 63 378 63 q 751 154 682 63 q 828 492 828 258 q 808 694 828 607 q 751 836 789 782 q 526 939 679 939 q 310 847 381 939 q 233 517 233 746 m 761 1068 l 688 1068 l 531 1153 l 374 1068 l 300 1068 l 464 1236 l 596 1236 l 761 1068 z "},"Ê":{"ha":951,"x_min":60,"x_max":872,"o":"m 585 331 l 560 472 l 329 472 l 329 83 l 749 83 l 792 310 l 872 310 l 872 0 l 60 0 l 60 60 l 190 89 l 190 911 l 60 940 l 60 1000 l 842 1000 l 842 706 l 769 706 l 725 919 l 329 919 l 329 556 l 560 556 l 585 697 l 656 697 l 656 331 l 585 331 m 711 1068 l 638 1068 l 481 1153 l 324 1068 l 250 1068 l 414 1236 l 546 1236 l 711 1068 z "},"Ĉ":{"ha":950,"x_min":74,"x_max":900,"o":"m 515 939 q 318 853 383 939 q 253 710 276 799 q 229 517 229 622 q 250 331 229 417 q 308 188 271 246 q 399 102 346 129 q 533 75 453 75 q 731 134 657 75 q 824 310 804 193 l 900 310 q 775 66 868 146 q 519 -14 682 -14 q 214 97 328 -14 q 110 265 146 164 q 74 490 74 365 q 119 744 74 631 q 249 926 165 857 q 528 1014 354 1014 q 605 1009 571 1014 q 668 992 639 1004 q 723 961 697 981 q 775 913 749 942 l 803 1000 l 879 1000 l 879 693 l 794 693 q 515 939 754 939 m 761 1068 l 688 1068 l 531 1153 l 374 1068 l 300 1068 l 464 1236 l 596 1236 l 761 1068 z "},"Ĝ":{"ha":1046,"x_min":74,"x_max":1013,"o":"m 521 76 q 757 310 757 76 l 757 407 l 640 436 l 640 499 l 1013 499 l 1013 436 l 896 407 l 896 0 l 824 0 l 789 110 q 664 15 728 43 q 513 -14 600 -14 q 208 103 322 -14 q 108 268 143 169 q 74 489 74 367 q 110 718 74 613 q 214 894 147 824 q 518 1014 326 1014 q 660 988 601 1014 q 772 904 719 963 l 803 1000 l 879 1000 l 879 693 l 794 693 q 513 939 754 939 q 394 916 442 939 q 313 844 347 893 q 250 697 272 786 q 228 508 228 608 q 252 317 228 404 q 321 169 276 231 q 403 99 357 121 q 521 76 450 76 m 750 1068 l 676 1068 l 519 1153 l 363 1068 l 289 1068 l 453 1236 l 585 1236 l 750 1068 z "},"Ĵ":{"ha":810,"x_min":25,"x_max":810,"o":"m 507 911 l 369 940 l 369 1000 l 756 1000 l 756 940 l 646 911 l 646 303 q 622 172 646 231 q 556 72 599 114 q 452 8 513 31 q 318 -15 392 -15 q 199 3 253 -15 q 106 56 144 22 q 47 138 68 90 q 25 243 25 186 q 117 360 25 360 q 181 338 157 360 q 204 279 204 315 q 186 215 204 247 q 144 171 168 182 q 192 96 144 126 q 317 65 240 65 q 461 120 415 65 q 507 288 507 175 l 507 911 m 810 1068 l 736 1068 l 579 1153 l 422 1068 l 349 1068 l 513 1236 l 644 1236 l 810 1068 z "},"Û":{"ha":1072,"x_min":44,"x_max":1026,"o":"m 822 911 l 706 940 l 706 1000 l 1026 1000 l 1026 940 l 910 911 l 910 338 q 817 74 910 164 q 544 -15 725 -15 q 260 76 358 -15 q 161 339 161 168 l 161 911 l 44 940 l 44 1000 l 417 1000 l 417 940 l 300 911 l 300 363 q 575 61 300 61 q 764 131 706 61 q 822 360 822 201 l 822 911 m 793 1068 l 719 1068 l 563 1153 l 406 1068 l 332 1068 l 496 1236 l 628 1236 l 793 1068 z "},"Â":{"ha":1001,"x_min":-10,"x_max":1007,"o":"m 657 336 l 285 336 l 200 89 l 315 60 l 315 0 l -10 0 l -10 60 l 104 89 l 438 1014 l 567 1014 l 896 89 l 1007 60 l 1007 0 l 625 0 l 625 60 l 739 89 l 657 336 m 313 417 l 631 417 l 481 890 l 475 890 l 313 417 m 733 1068 l 660 1068 l 503 1153 l 346 1068 l 272 1068 l 436 1236 l 568 1236 l 733 1068 z "},"Ŵ":{"ha":1446,"x_min":-7,"x_max":1447,"o":"m 1239 913 l 1129 940 l 1129 1000 l 1447 1000 l 1447 940 l 1332 911 l 1068 0 l 924 0 l 719 668 l 535 0 l 390 0 l 101 911 l -7 940 l -7 1000 l 388 1000 l 388 940 l 254 911 l 483 131 l 489 131 l 678 828 l 660 911 l 551 940 l 551 1000 l 918 1000 l 918 940 l 790 911 l 1018 131 l 1024 131 l 1239 913 m 957 1068 l 883 1068 l 726 1153 l 569 1068 l 496 1068 l 660 1236 l 792 1236 l 957 1068 z "},"Ŷ":{"ha":942,"x_min":-7,"x_max":943,"o":"m 740 911 l 628 940 l 628 1000 l 943 1000 l 943 940 l 829 911 l 546 392 l 546 89 l 676 60 l 676 0 l 276 0 l 276 60 l 407 89 l 407 369 l 108 911 l -7 940 l -7 1000 l 376 1000 l 376 940 l 260 911 l 499 467 l 740 911 m 729 1069 l 656 1069 l 499 1154 l 342 1069 l 268 1069 l 432 1238 l 564 1238 l 729 1069 z "},"Ŝ":{"ha":832,"x_min":92,"x_max":758,"o":"m 446 -15 q 296 10 363 -15 q 185 81 229 35 l 169 0 l 92 0 l 92 315 l 176 315 q 242 122 185 182 q 419 61 300 61 q 618 213 618 61 q 601 290 618 257 q 551 351 583 324 q 473 401 519 378 q 368 447 426 424 q 251 499 301 474 q 166 558 200 525 q 114 633 132 590 q 96 736 96 675 q 178 942 96 868 q 400 1015 261 1015 q 624 938 538 1015 l 635 1000 l 713 1000 l 713 685 l 633 685 q 584 880 633 819 q 426 940 535 940 q 236 767 236 940 q 244 708 236 732 q 276 663 253 683 q 338 622 299 642 q 438 576 376 603 q 585 505 524 539 q 684 433 646 471 q 740 353 722 396 q 758 256 758 310 q 735 141 758 192 q 672 56 713 90 q 573 3 631 21 q 446 -15 515 -15 m 631 1068 l 557 1068 l 400 1153 l 243 1068 l 169 1068 l 333 1236 l 465 1236 l 631 1068 z "},"Ĭ":{"ha":519,"x_min":43,"x_max":460,"o":"m 329 89 l 460 60 l 460 0 l 60 0 l 60 60 l 190 89 l 190 911 l 60 940 l 60 1000 l 460 1000 l 460 940 l 329 911 l 329 89 m 451 1236 q 389 1092 449 1143 q 239 1040 329 1040 q 94 1094 144 1040 q 43 1236 43 1149 l 110 1236 q 149 1160 113 1183 q 239 1136 185 1136 q 347 1160 308 1136 q 385 1236 385 1183 l 451 1236 z "},"Ď":{"ha":1064,"x_min":67,"x_max":990,"o":"m 538 83 q 754 175 685 83 q 831 492 831 272 q 754 814 831 708 q 524 917 682 917 l 322 917 l 322 83 l 538 83 m 533 1000 q 856 883 740 1000 q 956 719 921 817 q 990 511 990 622 q 954 292 990 393 q 851 121 918 190 q 713 29 793 58 q 521 0 632 0 l 67 0 l 67 60 l 183 89 l 183 911 l 67 940 l 67 1000 l 533 1000 m 568 1068 l 436 1068 l 272 1236 l 346 1236 l 503 1151 l 660 1236 l 733 1236 l 568 1068 z "},"Ě":{"ha":951,"x_min":60,"x_max":872,"o":"m 585 331 l 560 472 l 329 472 l 329 83 l 749 83 l 792 310 l 872 310 l 872 0 l 60 0 l 60 60 l 190 89 l 190 911 l 60 940 l 60 1000 l 842 1000 l 842 706 l 769 706 l 725 919 l 329 919 l 329 556 l 560 556 l 585 697 l 656 697 l 656 331 l 585 331 m 572 1068 l 440 1068 l 276 1236 l 350 1236 l 507 1151 l 664 1236 l 738 1236 l 572 1068 z "},"Ř":{"ha":981,"x_min":67,"x_max":978,"o":"m 754 531 q 696 497 729 511 q 614 474 663 483 q 669 399 639 449 l 854 86 l 978 60 l 978 0 l 692 0 l 692 60 l 492 449 l 322 449 l 322 89 l 454 60 l 454 0 l 67 0 l 67 60 l 183 89 l 183 911 l 67 940 l 67 1000 l 544 1000 q 661 988 611 1000 q 751 947 711 975 q 831 856 803 914 q 860 739 860 797 q 831 624 860 681 q 754 531 803 568 m 521 529 q 647 572 597 529 q 691 640 675 597 q 707 731 707 682 q 691 819 707 779 q 646 883 675 858 q 591 911 622 903 q 515 919 560 919 l 322 919 l 322 529 l 521 529 m 544 1068 l 413 1068 l 249 1236 l 322 1236 l 479 1151 l 636 1236 l 710 1236 l 544 1068 z "},"Ľ":{"ha":874,"x_min":28,"x_max":831,"o":"m 329 83 l 707 83 l 754 324 l 831 324 l 831 0 l 60 0 l 60 60 l 190 89 l 190 911 l 60 940 l 60 1000 l 474 1000 l 474 940 l 329 911 l 329 83 m 324 1068 l 192 1068 l 28 1236 l 101 1236 l 258 1151 l 415 1236 l 489 1236 l 324 1068 z "},"Č":{"ha":950,"x_min":74,"x_max":900,"o":"m 515 939 q 318 853 383 939 q 253 710 276 799 q 229 517 229 622 q 250 331 229 417 q 308 188 271 246 q 399 102 346 129 q 533 75 453 75 q 731 134 657 75 q 824 310 804 193 l 900 310 q 775 66 868 146 q 519 -14 682 -14 q 214 97 328 -14 q 110 265 146 164 q 74 490 74 365 q 119 744 74 631 q 249 926 165 857 q 528 1014 354 1014 q 605 1009 571 1014 q 668 992 639 1004 q 723 961 697 981 q 775 913 749 942 l 803 1000 l 879 1000 l 879 693 l 794 693 q 515 939 754 939 m 596 1068 l 464 1068 l 300 1236 l 374 1236 l 531 1151 l 688 1236 l 761 1236 l 596 1068 z "},"Ž":{"ha":899,"x_min":51,"x_max":833,"o":"m 754 310 l 833 310 l 833 0 l 51 0 l 51 85 l 643 917 l 211 917 l 167 706 l 94 706 l 94 1000 l 801 1000 l 801 915 l 210 83 l 710 83 l 754 310 m 522 1068 l 390 1068 l 226 1236 l 300 1236 l 457 1151 l 614 1236 l 688 1236 l 522 1068 z "},"Ů":{"ha":1072,"x_min":44,"x_max":1026,"o":"m 822 911 l 706 940 l 706 1000 l 1026 1000 l 1026 940 l 910 911 l 910 338 q 817 74 910 164 q 544 -15 725 -15 q 260 76 358 -15 q 161 339 161 168 l 161 911 l 44 940 l 44 1000 l 417 1000 l 417 940 l 300 911 l 300 363 q 575 61 300 61 q 764 131 706 61 q 822 360 822 201 l 822 911 m 458 1144 q 489 1219 458 1189 q 563 1250 519 1250 q 638 1219 607 1250 q 668 1144 668 1189 q 638 1072 668 1101 q 563 1042 607 1042 q 489 1072 519 1042 q 458 1144 458 1101 m 533 1144 q 542 1124 533 1132 q 563 1115 550 1115 q 585 1124 576 1115 q 594 1144 594 1132 q 585 1167 594 1158 q 563 1176 576 1176 q 542 1167 550 1176 q 533 1144 533 1158 z "},"Ň":{"ha":1113,"x_min":67,"x_max":1058,"o":"m 183 911 l 67 940 l 67 1000 l 332 1000 l 851 232 l 851 911 l 735 940 l 735 1000 l 1058 1000 l 1058 940 l 942 911 l 942 0 l 843 0 l 274 832 l 274 89 l 390 60 l 390 0 l 67 0 l 67 60 l 183 89 l 183 911 m 621 1068 l 489 1068 l 325 1236 l 399 1236 l 556 1151 l 713 1236 l 786 1236 l 621 1068 z "},"Š":{"ha":832,"x_min":92,"x_max":758,"o":"m 446 -15 q 296 10 363 -15 q 185 81 229 35 l 169 0 l 92 0 l 92 315 l 176 315 q 242 122 185 182 q 419 61 300 61 q 618 213 618 61 q 601 290 618 257 q 551 351 583 324 q 473 401 519 378 q 368 447 426 424 q 251 499 301 474 q 166 558 200 525 q 114 633 132 590 q 96 736 96 675 q 178 942 96 868 q 400 1015 261 1015 q 624 938 538 1015 l 635 1000 l 713 1000 l 713 685 l 633 685 q 584 880 633 819 q 426 940 535 940 q 236 767 236 940 q 244 708 236 732 q 276 663 253 683 q 338 622 299 642 q 438 576 376 603 q 585 505 524 539 q 684 433 646 471 q 740 353 722 396 q 758 256 758 310 q 735 141 758 192 q 672 56 713 90 q 573 3 631 21 q 446 -15 515 -15 m 490 1068 l 358 1068 l 194 1236 l 268 1236 l 425 1151 l 582 1236 l 656 1236 l 490 1068 z "},"Ç":{"ha":950,"x_min":74,"x_max":900,"o":"m 492 -292 q 365 -253 418 -292 l 403 -201 q 485 -229 443 -229 q 532 -215 514 -229 q 550 -179 550 -201 q 475 -137 550 -137 q 417 -146 446 -137 l 399 -115 l 478 -12 q 214 97 313 0 q 110 265 146 164 q 74 490 74 365 q 119 744 74 631 q 249 926 165 857 q 528 1014 354 1014 q 605 1009 571 1014 q 668 992 639 1004 q 723 961 697 981 q 775 913 749 942 l 803 1000 l 879 1000 l 879 693 l 794 693 q 515 939 754 939 q 318 853 383 939 q 253 710 276 799 q 229 517 229 622 q 250 331 229 417 q 308 188 271 246 q 399 102 346 129 q 533 75 453 75 q 731 134 657 75 q 824 310 804 193 l 900 310 q 783 72 869 151 q 544 -12 696 -7 l 503 -82 l 504 -86 q 615 -108 582 -86 q 649 -175 649 -131 q 603 -262 649 -232 q 492 -292 557 -292 z "},"Ş":{"ha":832,"x_min":92,"x_max":758,"o":"m 414 -292 q 288 -253 340 -292 l 325 -201 q 407 -229 365 -229 q 454 -215 436 -229 q 472 -179 472 -201 q 397 -137 472 -137 q 339 -146 368 -137 l 321 -115 l 399 -12 q 277 17 332 -6 q 185 81 222 40 l 169 0 l 92 0 l 92 315 l 176 315 q 242 122 185 182 q 419 61 300 61 q 618 213 618 61 q 601 290 618 257 q 551 351 583 324 q 473 401 519 378 q 368 447 426 424 q 251 499 301 474 q 166 558 200 525 q 114 633 132 590 q 96 736 96 675 q 178 942 96 868 q 400 1015 261 1015 q 624 938 538 1015 l 635 1000 l 713 1000 l 713 685 l 633 685 q 584 880 633 819 q 426 940 535 940 q 236 767 236 940 q 244 708 236 732 q 276 663 253 683 q 338 622 299 642 q 438 576 376 603 q 585 505 524 539 q 684 433 646 471 q 740 353 722 396 q 758 256 758 310 q 737 144 758 193 q 677 61 715 96 q 585 7 639 26 q 465 -15 531 -12 l 425 -82 l 426 -86 q 538 -108 504 -86 q 571 -175 571 -131 q 525 -262 571 -232 q 414 -292 479 -292 z "},"Ţ":{"ha":914,"x_min":43,"x_max":871,"o":"m 422 -292 q 296 -253 349 -292 l 333 -201 q 415 -229 374 -229 q 463 -215 444 -229 q 481 -179 481 -201 q 406 -137 481 -137 q 347 -146 376 -137 l 329 -115 l 418 0 l 240 0 l 240 60 l 388 93 l 388 917 l 158 917 l 115 708 l 43 708 l 43 1000 l 871 1000 l 871 708 l 799 708 l 754 917 l 526 917 l 526 93 l 674 60 l 674 0 l 482 0 l 433 -82 l 435 -86 q 546 -108 513 -86 q 579 -175 579 -131 q 533 -262 579 -232 q 422 -292 488 -292 z "},"Į":{"ha":519,"x_min":60,"x_max":460,"o":"m 236 -292 q 135 -259 174 -292 q 97 -174 97 -226 q 222 0 97 -79 l 60 0 l 60 60 l 190 89 l 190 911 l 60 940 l 60 1000 l 460 1000 l 460 940 l 329 911 l 329 89 l 460 60 l 460 0 l 286 0 q 197 -146 197 -69 q 267 -211 197 -211 q 318 -204 292 -211 q 361 -183 344 -197 l 382 -214 q 236 -292 332 -292 z "},"Ǫ":{"ha":1061,"x_min":74,"x_max":988,"o":"m 503 -292 q 402 -259 440 -292 q 364 -174 364 -226 q 472 -11 364 -86 q 207 103 300 1 q 108 270 143 169 q 74 489 74 371 q 110 717 74 611 q 213 893 146 822 q 348 985 271 956 q 531 1014 425 1014 q 853 897 740 1014 q 953 730 918 831 q 988 511 988 629 q 951 283 988 389 q 849 107 915 178 q 536 -14 738 -12 q 464 -146 464 -78 q 533 -211 464 -211 q 585 -204 558 -211 q 628 -183 611 -197 l 649 -214 q 503 -292 599 -292 m 233 517 q 253 311 233 400 q 308 165 272 222 q 535 63 378 63 q 751 154 682 63 q 828 492 828 258 q 808 694 828 607 q 751 836 789 782 q 526 939 679 939 q 310 847 381 939 q 233 517 233 746 z "},"Ę":{"ha":951,"x_min":60,"x_max":872,"o":"m 465 -292 q 365 -259 403 -292 q 326 -174 326 -226 q 451 0 326 -79 l 60 0 l 60 60 l 190 89 l 190 911 l 60 940 l 60 1000 l 842 1000 l 842 706 l 769 706 l 725 919 l 329 919 l 329 556 l 560 556 l 585 697 l 656 697 l 656 331 l 585 331 l 560 472 l 329 472 l 329 83 l 749 83 l 792 310 l 872 310 l 872 0 l 515 0 q 426 -146 426 -69 q 496 -211 426 -211 q 547 -204 521 -211 q 590 -183 574 -197 l 611 -214 q 465 -292 561 -292 z "},"Ų":{"ha":1072,"x_min":44,"x_max":1026,"o":"m 538 -292 q 437 -259 475 -292 q 399 -174 399 -226 q 503 -14 399 -87 q 249 88 338 -3 q 161 339 161 178 l 161 911 l 44 940 l 44 1000 l 417 1000 l 417 940 l 300 911 l 300 363 q 575 61 300 61 q 764 131 706 61 q 822 360 822 201 l 822 911 l 706 940 l 706 1000 l 1026 1000 l 1026 940 l 910 911 l 910 338 q 824 81 910 169 q 569 -15 738 -8 q 499 -146 499 -78 q 568 -211 499 -211 q 619 -204 593 -211 q 663 -183 646 -197 l 683 -214 q 538 -292 633 -292 z "},"Ą":{"ha":1001,"x_min":-10,"x_max":1007,"o":"m 803 -292 q 702 -259 740 -292 q 664 -174 664 -226 q 789 0 664 -79 l 625 0 l 625 60 l 739 89 l 657 336 l 285 336 l 200 89 l 315 60 l 315 0 l -10 0 l -10 60 l 104 89 l 438 1014 l 567 1014 l 896 89 l 1007 60 l 1007 0 l 853 0 q 764 -146 764 -69 q 833 -211 764 -211 q 885 -204 858 -211 q 928 -183 911 -197 l 949 -214 q 803 -292 899 -292 m 313 417 l 631 417 l 481 890 l 475 890 l 313 417 z "},"Ǻ":{"ha":1001,"x_min":-10,"x_max":1007,"o":"m 657 336 l 285 336 l 200 89 l 315 60 l 315 0 l -10 0 l -10 60 l 104 89 l 438 979 l 567 979 l 896 89 l 1007 60 l 1007 0 l 625 0 l 625 60 l 739 89 l 657 336 m 313 417 l 631 417 l 481 869 l 475 869 l 313 417 m 390 1144 q 421 1219 390 1189 q 494 1250 451 1250 q 563 1225 533 1250 q 583 1229 574 1228 q 603 1231 593 1231 q 649 1201 649 1231 q 600 1151 649 1175 l 600 1144 q 569 1072 600 1101 q 494 1042 539 1042 q 450 1051 471 1042 q 414 1078 429 1061 l 396 1069 l 346 1069 l 396 1113 q 390 1144 390 1125 m 465 1144 q 474 1124 465 1132 q 494 1115 482 1115 q 517 1124 508 1115 q 526 1144 526 1132 q 517 1167 526 1158 q 494 1176 508 1176 q 474 1167 482 1176 q 465 1144 465 1158 z "},"Ǽ":{"ha":1468,"x_min":-12,"x_max":1389,"o":"m 1101 331 l 1076 472 l 846 472 l 846 83 l 1265 83 l 1308 310 l 1389 310 l 1389 0 l 576 0 l 576 60 l 707 89 l 707 336 l 357 336 l 221 89 l 331 60 l 331 0 l -12 0 l -12 60 l 118 89 l 586 925 l 469 940 l 469 1000 l 1358 1000 l 1358 706 l 1286 706 l 1242 919 l 846 919 l 846 556 l 1076 556 l 1101 697 l 1172 697 l 1172 331 l 1101 331 m 675 915 l 401 417 l 707 417 l 707 911 l 675 915 m 924 1176 q 977 1228 953 1214 q 1028 1243 1001 1243 q 1079 1201 1079 1243 q 1055 1160 1079 1179 q 978 1110 1031 1142 l 913 1069 l 839 1069 l 924 1176 z "},"Ŗ":{"ha":981,"x_min":67,"x_max":978,"o":"m 754 531 q 696 497 729 511 q 614 474 663 483 q 669 399 639 449 l 854 86 l 978 60 l 978 0 l 692 0 l 692 60 l 492 449 l 322 449 l 322 89 l 454 60 l 454 0 l 67 0 l 67 60 l 183 89 l 183 911 l 67 940 l 67 1000 l 544 1000 q 661 988 611 1000 q 751 947 711 975 q 831 856 803 914 q 860 739 860 797 q 831 624 860 681 q 754 531 803 568 m 521 529 q 647 572 597 529 q 691 640 675 597 q 707 731 707 682 q 691 819 707 779 q 646 883 675 858 q 591 911 622 903 q 515 919 560 919 l 322 919 l 322 529 l 521 529 m 531 -61 q 586 -85 567 -61 q 606 -151 606 -108 q 578 -248 606 -206 q 493 -326 551 -290 l 463 -289 q 518 -234 503 -257 q 536 -187 533 -211 l 532 -185 q 522 -190 529 -187 q 507 -193 514 -193 q 468 -175 483 -193 q 453 -131 453 -157 q 475 -81 453 -101 q 531 -61 497 -61 z "},"Ļ":{"ha":874,"x_min":60,"x_max":831,"o":"m 329 83 l 707 83 l 754 324 l 831 324 l 831 0 l 60 0 l 60 60 l 190 89 l 190 911 l 60 940 l 60 1000 l 474 1000 l 474 940 l 329 911 l 329 83 m 465 -61 q 521 -85 501 -61 q 540 -151 540 -108 q 513 -248 540 -206 q 428 -326 486 -290 l 397 -289 q 453 -234 438 -257 q 471 -187 468 -211 l 467 -185 q 456 -190 464 -187 q 442 -193 449 -193 q 403 -175 418 -193 q 388 -131 388 -157 q 410 -81 388 -101 q 465 -61 432 -61 z "},"Ģ":{"ha":1046,"x_min":74,"x_max":1013,"o":"m 521 76 q 757 310 757 76 l 757 407 l 640 436 l 640 499 l 1013 499 l 1013 436 l 896 407 l 896 0 l 824 0 l 789 110 q 664 15 728 43 q 513 -14 600 -14 q 208 103 322 -14 q 108 268 143 169 q 74 489 74 367 q 110 718 74 613 q 214 894 147 824 q 518 1014 326 1014 q 660 988 601 1014 q 772 904 719 963 l 803 1000 l 879 1000 l 879 693 l 794 693 q 513 939 754 939 q 394 916 442 939 q 313 844 347 893 q 250 697 272 786 q 228 508 228 608 q 252 317 228 404 q 321 169 276 231 q 403 99 357 121 q 521 76 450 76 m 519 -61 q 575 -85 556 -61 q 594 -151 594 -108 q 567 -248 594 -206 q 482 -326 540 -290 l 451 -289 q 507 -234 492 -257 q 525 -187 522 -211 l 521 -185 q 510 -190 518 -187 q 496 -193 503 -193 q 457 -175 472 -193 q 442 -131 442 -157 q 464 -81 442 -101 q 519 -61 486 -61 z "},"Ņ":{"ha":1113,"x_min":67,"x_max":1058,"o":"m 183 911 l 67 940 l 67 1000 l 332 1000 l 851 232 l 851 911 l 735 940 l 735 1000 l 1058 1000 l 1058 940 l 942 911 l 942 0 l 843 0 l 274 832 l 274 89 l 390 60 l 390 0 l 67 0 l 67 60 l 183 89 l 183 911 m 557 -61 q 613 -85 593 -61 q 632 -151 632 -108 q 605 -248 632 -206 q 519 -326 578 -290 l 489 -289 q 544 -234 529 -257 q 563 -187 560 -211 l 558 -185 q 548 -190 556 -187 q 533 -193 540 -193 q 494 -175 510 -193 q 479 -131 479 -157 q 501 -81 479 -101 q 557 -61 524 -61 z "},"Ķ":{"ha":1029,"x_min":60,"x_max":1042,"o":"m 329 508 l 718 911 l 592 940 l 592 1000 l 957 1000 l 957 940 l 835 911 l 510 589 l 925 86 l 1042 60 l 1042 0 l 654 0 l 654 60 l 746 88 l 417 494 l 329 411 l 329 89 l 446 60 l 446 0 l 60 0 l 60 60 l 190 89 l 190 911 l 60 940 l 60 1000 l 446 1000 l 446 940 l 329 911 l 329 508 m 536 -61 q 592 -85 572 -61 q 611 -151 611 -108 q 584 -248 611 -206 q 499 -326 557 -290 l 468 -289 q 524 -234 508 -257 q 542 -187 539 -211 l 538 -185 q 527 -190 535 -187 q 513 -193 519 -193 q 474 -175 489 -193 q 458 -131 458 -157 q 481 -81 458 -101 q 536 -61 503 -61 z "},"Ț":{"ha":914,"x_min":43,"x_max":871,"o":"m 871 1000 l 871 708 l 799 708 l 754 917 l 526 917 l 526 93 l 674 60 l 674 0 l 240 0 l 240 60 l 388 93 l 388 917 l 158 917 l 115 708 l 43 708 l 43 1000 l 871 1000 m 456 -61 q 511 -85 492 -61 q 531 -151 531 -108 q 503 -248 531 -206 q 418 -326 476 -290 l 388 -289 q 443 -234 428 -257 q 461 -187 458 -211 l 457 -185 q 447 -190 454 -187 q 432 -193 439 -193 q 393 -175 408 -193 q 378 -131 378 -157 q 400 -81 378 -101 q 456 -61 422 -61 z "},"Ș":{"ha":832,"x_min":92,"x_max":758,"o":"m 446 -15 q 296 10 363 -15 q 185 81 229 35 l 169 0 l 92 0 l 92 315 l 176 315 q 242 122 185 182 q 419 61 300 61 q 618 213 618 61 q 601 290 618 257 q 551 351 583 324 q 473 401 519 378 q 368 447 426 424 q 251 499 301 474 q 166 558 200 525 q 114 633 132 590 q 96 736 96 675 q 178 942 96 868 q 400 1015 261 1015 q 624 938 538 1015 l 635 1000 l 713 1000 l 713 685 l 633 685 q 584 880 633 819 q 426 940 535 940 q 236 767 236 940 q 244 708 236 732 q 276 663 253 683 q 338 622 299 642 q 438 576 376 603 q 585 505 524 539 q 684 433 646 471 q 740 353 722 396 q 758 256 758 310 q 735 141 758 192 q 672 56 713 90 q 573 3 631 21 q 446 -15 515 -15 m 447 -61 q 503 -85 483 -61 q 522 -151 522 -108 q 495 -248 522 -206 q 410 -326 468 -290 l 379 -289 q 435 -234 419 -257 q 453 -187 450 -211 l 449 -185 q 438 -190 446 -187 q 424 -193 431 -193 q 385 -175 400 -193 q 369 -131 369 -157 q 392 -81 369 -101 q 447 -61 414 -61 z "},"Ė":{"ha":951,"x_min":60,"x_max":872,"o":"m 585 331 l 560 472 l 329 472 l 329 83 l 749 83 l 792 310 l 872 310 l 872 0 l 60 0 l 60 60 l 190 89 l 190 911 l 60 940 l 60 1000 l 842 1000 l 842 706 l 769 706 l 725 919 l 329 919 l 329 556 l 560 556 l 585 697 l 656 697 l 656 331 l 585 331 m 397 1156 q 420 1219 397 1196 q 483 1243 443 1243 q 547 1219 524 1243 q 571 1156 571 1196 q 547 1092 571 1115 q 483 1069 524 1069 q 420 1092 443 1069 q 397 1156 397 1115 z "},"Đ":{"ha":1071,"x_min":74,"x_max":997,"o":"m 74 551 l 190 551 l 190 911 l 74 940 l 74 1000 l 540 1000 q 863 883 747 1000 q 963 719 928 817 q 997 511 997 622 q 961 292 997 393 q 858 121 925 190 q 719 29 800 58 q 528 0 639 0 l 74 0 l 74 60 l 190 89 l 190 461 l 74 461 l 74 551 m 544 83 q 761 175 692 83 q 838 492 838 272 q 761 814 838 708 q 531 917 689 917 l 329 917 l 329 551 l 531 551 l 531 461 l 329 461 l 329 83 l 544 83 z "},"Ð":{"ha":1071,"x_min":74,"x_max":997,"o":"m 74 551 l 190 551 l 190 911 l 74 940 l 74 1000 l 540 1000 q 863 883 747 1000 q 963 719 928 817 q 997 511 997 622 q 961 292 997 393 q 858 121 925 190 q 719 29 800 58 q 528 0 639 0 l 74 0 l 74 60 l 190 89 l 190 458 l 74 458 l 74 551 m 544 83 q 761 175 692 83 q 838 492 838 272 q 761 814 838 708 q 531 917 689 917 l 329 917 l 329 551 l 506 551 l 506 458 l 329 458 l 329 83 l 544 83 z "}}}
